<?xml version="1.0" standalone="no"?>
 <!DOCTYPE svg PUBLIC "-//W3C//DTD SVG 1.1//EN" 
 "http://www.w3.org/Graphics/SVG/1.1/DTD/svg11.dtd"> 
<svg xmlns="http://www.w3.org/2000/svg" version="1.1" 
    width="29.7002cm" height="21.0007cm" viewBox="0 0 116930 82680 ">
<title>SVG Picture created as cseduinop-F_Mask.svg date 2015/04/28 14:57:48 </title>
  <desc>Picture generated by PCBNEW </desc>
<g style="fill:#000000; fill-opacity:1;stroke:#000000; stroke-opacity:1;
stroke-linecap:round; stroke-linejoin:round; "
 transform="translate(0 0) scale(1 1)">
</g>
<g style="fill:#000000; fill-opacity:0.0; 
stroke:#000000; stroke-width:620; stroke-opacity:1; 
stroke-linecap:round; stroke-linejoin:round;">
<path d="M25140 16000
L24860 16000
" />
<path d="M25140 17000
L24860 17000
" />
<path d="M25140 18000
L24860 18000
" />
<path d="M25140 19000
L24860 19000
" />
<path d="M25140 20000
L24860 20000
" />
<path d="M25140 21000
L24860 21000
" />
<path d="M25140 22000
L24860 22000
" />
<path d="M25140 23000
L24860 23000
" />
<path d="M25140 24000
L24860 24000
" />
<path d="M25140 25000
L24860 25000
" />
<path d="M25140 26000
L24860 26000
" />
<path d="M25140 27000
L24860 27000
" />
<path d="M25140 28000
L24860 28000
" />
</g>
<g style="fill:#000000; fill-opacity:0.0; 
stroke:#000000; stroke-width:39.3701; stroke-opacity:1; 
stroke-linecap:round; stroke-linejoin:round;">
</g>
<g style="fill:#000000; fill-opacity:1.0; 
stroke:#000000; stroke-width:39.3701; stroke-opacity:1; 
stroke-linecap:round; stroke-linejoin:round;">
<polyline style="fill-rule:evenodd;"
points="24569,14709
25430,14709
25430,15290
24569,15290
24569,14709
" /> 
</g>
<g style="fill:#000000; fill-opacity:1.0; 
stroke:#000000; stroke-width:620; stroke-opacity:1; 
stroke-linecap:round; stroke-linejoin:round;">
</g>
<g style="fill:#000000; fill-opacity:0.0; 
stroke:#000000; stroke-width:620; stroke-opacity:1; 
stroke-linecap:round; stroke-linejoin:round;">
<path d="M28140 28000
L27860 28000
" />
<path d="M28140 27000
L27860 27000
" />
<path d="M28140 26000
L27860 26000
" />
<path d="M28140 25000
L27860 25000
" />
<path d="M28140 24000
L27860 24000
" />
<path d="M28140 23000
L27860 23000
" />
<path d="M28140 22000
L27860 22000
" />
<path d="M28140 21000
L27860 21000
" />
<path d="M28140 20000
L27860 20000
" />
<path d="M28140 19000
L27860 19000
" />
<path d="M28140 18000
L27860 18000
" />
<path d="M28140 17000
L27860 17000
" />
<path d="M28140 16000
L27860 16000
" />
<path d="M28140 15000
L27860 15000
" />
</g>
<g style="fill:#000000; fill-opacity:0.0; 
stroke:#000000; stroke-width:39.3701; stroke-opacity:1; 
stroke-linecap:round; stroke-linejoin:round;">
</g>
<g style="fill:#000000; fill-opacity:1.0; 
stroke:#000000; stroke-width:39.3701; stroke-opacity:1; 
stroke-linecap:round; stroke-linejoin:round;">
<circle cx="20500" cy="24000" r="255.315" /> 
<circle cx="20500" cy="23000" r="255.315" /> 
<circle cx="20500" cy="26000" r="255.315" /> 
<circle cx="20500" cy="27000" r="255.315" /> 
<circle cx="18500" cy="15000" r="255.315" /> 
<circle cx="16500" cy="15000" r="255.315" /> 
<circle cx="28500" cy="13500" r="373.815" /> 
<polyline style="fill-rule:evenodd;"
points="24873,13126
24873,13873
24126,13873
24126,13126
24873,13126
" /> 
<circle cx="19500" cy="19500" r="255.315" /> 
<circle cx="19500" cy="21500" r="255.315" /> 
<circle cx="16500" cy="19500" r="255.315" /> 
<circle cx="16500" cy="21500" r="255.315" /> 
</g>
<g style="fill:#000000; fill-opacity:1.0; 
stroke:#000000; stroke-width:787; stroke-opacity:1; 
stroke-linecap:round; stroke-linejoin:round;">
</g>
<g style="fill:#000000; fill-opacity:0.0; 
stroke:#000000; stroke-width:787; stroke-opacity:1; 
stroke-linecap:round; stroke-linejoin:round;">
<path d="M18901 25461
L19098 25461
" />
<path d="M18901 23539
L19098 23539
" />
</g>
<g style="fill:#000000; fill-opacity:0.0; 
stroke:#000000; stroke-width:680; stroke-opacity:1; 
stroke-linecap:round; stroke-linejoin:round;">
<path d="M15940 23500
L16060 23500
" />
<path d="M15940 24500
L16060 24500
" />
<path d="M15940 25500
L16060 25500
" />
<path d="M15940 26500
L16060 26500
" />
<path d="M15940 27500
L16060 27500
" />
<path d="M14940 23500
L15060 23500
" />
<path d="M14940 24500
L15060 24500
" />
<path d="M14940 25500
L15060 25500
" />
<path d="M14940 26500
L15060 26500
" />
<path d="M14940 27500
L15060 27500
" />
</g>
<g style="fill:#000000; fill-opacity:0.0; 
stroke:#000000; stroke-width:39.3701; stroke-opacity:1; 
stroke-linecap:round; stroke-linejoin:round;">
</g>
<g style="fill:#000000; fill-opacity:1.0; 
stroke:#000000; stroke-width:39.3701; stroke-opacity:1; 
stroke-linecap:round; stroke-linejoin:round;">
<polyline style="fill-rule:evenodd;"
points="14619,15320
14619,14679
15380,14679
15380,15320
14619,15320
" /> 
</g>
<g style="fill:#000000; fill-opacity:1.0; 
stroke:#000000; stroke-width:680; stroke-opacity:1; 
stroke-linecap:round; stroke-linejoin:round;">
</g>
<g style="fill:#000000; fill-opacity:0.0; 
stroke:#000000; stroke-width:680; stroke-opacity:1; 
stroke-linecap:round; stroke-linejoin:round;">
<path d="M14940 16000
L15060 16000
" />
<path d="M14940 17000
L15060 17000
" />
<path d="M14940 18000
L15060 18000
" />
<path d="M14940 19000
L15060 19000
" />
<path d="M14940 20000
L15060 20000
" />
</g>
<g style="fill:#000000; fill-opacity:0.0; 
stroke:#000000; stroke-width:39.3701; stroke-opacity:1; 
stroke-linecap:round; stroke-linejoin:round;">
</g>
<g style="fill:#000000; fill-opacity:1.0; 
stroke:#000000; stroke-width:39.3701; stroke-opacity:1; 
stroke-linecap:round; stroke-linejoin:round;">
<polyline style="fill-rule:evenodd;"
points="21619,15320
21619,14679
22380,14679
22380,15320
21619,15320
" /> 
</g>
<g style="fill:#000000; fill-opacity:1.0; 
stroke:#000000; stroke-width:680; stroke-opacity:1; 
stroke-linecap:round; stroke-linejoin:round;">
</g>
<g style="fill:#000000; fill-opacity:0.0; 
stroke:#000000; stroke-width:680; stroke-opacity:1; 
stroke-linecap:round; stroke-linejoin:round;">
<path d="M21940 16000
L22060 16000
" />
<path d="M21940 17000
L22060 17000
" />
<path d="M21940 18000
L22060 18000
" />
<path d="M21940 19000
L22060 19000
" />
<path d="M21940 20000
L22060 20000
" />
<path d="M21940 21000
L22060 21000
" />
<path d="M21940 22000
L22060 22000
" />
</g>
<g style="fill:#000000; fill-opacity:0.0; 
stroke:#000000; stroke-width:800; stroke-opacity:1; 
stroke-linecap:round; stroke-linejoin:round;">
<path d="M31000 12000
L31000 12000
" />
<path d="M31000 13000
L31000 13000
" />
</g>
<g style="fill:#000000; fill-opacity:0.0; 
stroke:#000000; stroke-width:680; stroke-opacity:1; 
stroke-linecap:round; stroke-linejoin:round;">
<path d="M21940 25000
L22060 25000
" />
<path d="M21940 26000
L22060 26000
" />
<path d="M21940 27000
L22060 27000
" />
<path d="M21940 28000
L22060 28000
" />
<path d="M31060 28000
L30940 28000
" />
<path d="M31060 27000
L30940 27000
" />
<path d="M31060 26000
L30940 26000
" />
<path d="M31060 25000
L30940 25000
" />
<path d="M31060 24000
L30940 24000
" />
<path d="M31060 23000
L30940 23000
" />
<path d="M31060 22000
L30940 22000
" />
<path d="M31060 21000
L30940 21000
" />
<path d="M31060 20000
L30940 20000
" />
<path d="M31060 19000
L30940 19000
" />
<path d="M31060 18000
L30940 18000
" />
<path d="M31060 17000
L30940 17000
" />
<path d="M31060 16000
L30940 16000
" />
<path d="M31060 15000
L30940 15000
" />
</g>
<g style="fill:#000000; fill-opacity:0.0; 
stroke:#000000; stroke-width:39.3701; stroke-opacity:1; 
stroke-linecap:round; stroke-linejoin:round;">
</g>
<g style="fill:#000000; fill-opacity:1.0; 
stroke:#000000; stroke-width:39.3701; stroke-opacity:1; 
stroke-linecap:round; stroke-linejoin:round;">
<circle cx="27500" cy="11015.7" r="236.22" /> 
<polyline style="fill-rule:evenodd;"
points="27736,12236
27263,12236
27263,11763
27736,11763
27736,12236
" /> 
<circle cx="24000" cy="11984.3" r="236.22" /> 
<polyline style="fill-rule:evenodd;"
points="23763,10763
24236,10763
24236,11236
23763,11236
23763,10763
" /> 
<circle cx="19500" cy="28000" r="310.315" /> 
<circle cx="18500" cy="28000" r="310.315" /> 
<circle cx="17500" cy="27500" r="373.815" /> 
<circle cx="17500" cy="23500" r="373.815" /> 
<circle cx="20500" cy="19000" r="373.815" /> 
<circle cx="20500" cy="15000" r="373.815" /> 
<polyline style="fill-rule:evenodd;"
points="17230,10269
17230,13730
13769,13730
13769,10269
17230,10269
" /> 
<circle cx="22000" cy="13000" r="330.315" /> 
<polyline style="fill-rule:evenodd;"
points="22330,11669
22330,12330
21669,12330
21669,11669
22330,11669
" /> 
<circle cx="22000" cy="11000" r="330.315" /> 
</g> 
</svg>
