<?xml version="1.0" standalone="no"?>
 <!DOCTYPE svg PUBLIC "-//W3C//DTD SVG 1.1//EN" 
 "http://www.w3.org/Graphics/SVG/1.1/DTD/svg11.dtd"> 
<svg xmlns="http://www.w3.org/2000/svg" version="1.1" 
    width="29.7002cm" height="21.0007cm" viewBox="0 0 116930 82680 ">
<title>SVG Picture created as cseduinop-B_Cu.svg date 2015/04/28 14:57:48 </title>
  <desc>Picture generated by PCBNEW </desc>
<g style="fill:#000000; fill-opacity:1;stroke:#000000; stroke-opacity:1;
stroke-linecap:round; stroke-linejoin:round; "
 transform="translate(0 0) scale(1 1)">
</g>
<g style="fill:#000000; fill-opacity:0.0; 
stroke:#000000; stroke-width:620; stroke-opacity:1; 
stroke-linecap:round; stroke-linejoin:round;">
<path d="M25140 16000
L24860 16000
" />
<path d="M25140 17000
L24860 17000
" />
<path d="M25140 18000
L24860 18000
" />
<path d="M25140 19000
L24860 19000
" />
<path d="M25140 20000
L24860 20000
" />
<path d="M25140 21000
L24860 21000
" />
<path d="M25140 22000
L24860 22000
" />
<path d="M25140 23000
L24860 23000
" />
<path d="M25140 24000
L24860 24000
" />
<path d="M25140 25000
L24860 25000
" />
<path d="M25140 26000
L24860 26000
" />
<path d="M25140 27000
L24860 27000
" />
<path d="M25140 28000
L24860 28000
" />
</g>
<g style="fill:#000000; fill-opacity:0.0; 
stroke:#000000; stroke-width:39.3701; stroke-opacity:1; 
stroke-linecap:round; stroke-linejoin:round;">
</g>
<g style="fill:#000000; fill-opacity:1.0; 
stroke:#000000; stroke-width:39.3701; stroke-opacity:1; 
stroke-linecap:round; stroke-linejoin:round;">
<polyline style="fill-rule:evenodd;"
points="24569,14709
25430,14709
25430,15290
24569,15290
24569,14709
" /> 
</g>
<g style="fill:#000000; fill-opacity:1.0; 
stroke:#000000; stroke-width:620; stroke-opacity:1; 
stroke-linecap:round; stroke-linejoin:round;">
</g>
<g style="fill:#000000; fill-opacity:0.0; 
stroke:#000000; stroke-width:620; stroke-opacity:1; 
stroke-linecap:round; stroke-linejoin:round;">
<path d="M28140 28000
L27860 28000
" />
<path d="M28140 27000
L27860 27000
" />
<path d="M28140 26000
L27860 26000
" />
<path d="M28140 25000
L27860 25000
" />
<path d="M28140 24000
L27860 24000
" />
<path d="M28140 23000
L27860 23000
" />
<path d="M28140 22000
L27860 22000
" />
<path d="M28140 21000
L27860 21000
" />
<path d="M28140 20000
L27860 20000
" />
<path d="M28140 19000
L27860 19000
" />
<path d="M28140 18000
L27860 18000
" />
<path d="M28140 17000
L27860 17000
" />
<path d="M28140 16000
L27860 16000
" />
<path d="M28140 15000
L27860 15000
" />
</g>
<g style="fill:#000000; fill-opacity:0.0; 
stroke:#000000; stroke-width:39.3701; stroke-opacity:1; 
stroke-linecap:round; stroke-linejoin:round;">
</g>
<g style="fill:#000000; fill-opacity:1.0; 
stroke:#000000; stroke-width:39.3701; stroke-opacity:1; 
stroke-linecap:round; stroke-linejoin:round;">
<circle cx="20500" cy="24000" r="255.315" /> 
<circle cx="20500" cy="23000" r="255.315" /> 
<circle cx="20500" cy="26000" r="255.315" /> 
<circle cx="20500" cy="27000" r="255.315" /> 
<circle cx="18500" cy="15000" r="255.315" /> 
<circle cx="16500" cy="15000" r="255.315" /> 
<circle cx="28500" cy="13500" r="373.815" /> 
<polyline style="fill-rule:evenodd;"
points="24873,13126
24873,13873
24126,13873
24126,13126
24873,13126
" /> 
<circle cx="19500" cy="19500" r="255.315" /> 
<circle cx="19500" cy="21500" r="255.315" /> 
<circle cx="16500" cy="19500" r="255.315" /> 
<circle cx="16500" cy="21500" r="255.315" /> 
</g>
<g style="fill:#000000; fill-opacity:1.0; 
stroke:#000000; stroke-width:787; stroke-opacity:1; 
stroke-linecap:round; stroke-linejoin:round;">
</g>
<g style="fill:#000000; fill-opacity:0.0; 
stroke:#000000; stroke-width:787; stroke-opacity:1; 
stroke-linecap:round; stroke-linejoin:round;">
<path d="M18901 25461
L19098 25461
" />
<path d="M18901 23539
L19098 23539
" />
</g>
<g style="fill:#000000; fill-opacity:0.0; 
stroke:#000000; stroke-width:680; stroke-opacity:1; 
stroke-linecap:round; stroke-linejoin:round;">
<path d="M15940 23500
L16060 23500
" />
<path d="M15940 24500
L16060 24500
" />
<path d="M15940 25500
L16060 25500
" />
<path d="M15940 26500
L16060 26500
" />
<path d="M15940 27500
L16060 27500
" />
<path d="M14940 23500
L15060 23500
" />
<path d="M14940 24500
L15060 24500
" />
<path d="M14940 25500
L15060 25500
" />
<path d="M14940 26500
L15060 26500
" />
<path d="M14940 27500
L15060 27500
" />
</g>
<g style="fill:#000000; fill-opacity:0.0; 
stroke:#000000; stroke-width:39.3701; stroke-opacity:1; 
stroke-linecap:round; stroke-linejoin:round;">
</g>
<g style="fill:#000000; fill-opacity:1.0; 
stroke:#000000; stroke-width:39.3701; stroke-opacity:1; 
stroke-linecap:round; stroke-linejoin:round;">
<polyline style="fill-rule:evenodd;"
points="14619,15320
14619,14679
15380,14679
15380,15320
14619,15320
" /> 
</g>
<g style="fill:#000000; fill-opacity:1.0; 
stroke:#000000; stroke-width:680; stroke-opacity:1; 
stroke-linecap:round; stroke-linejoin:round;">
</g>
<g style="fill:#000000; fill-opacity:0.0; 
stroke:#000000; stroke-width:680; stroke-opacity:1; 
stroke-linecap:round; stroke-linejoin:round;">
<path d="M14940 16000
L15060 16000
" />
<path d="M14940 17000
L15060 17000
" />
<path d="M14940 18000
L15060 18000
" />
<path d="M14940 19000
L15060 19000
" />
<path d="M14940 20000
L15060 20000
" />
</g>
<g style="fill:#000000; fill-opacity:0.0; 
stroke:#000000; stroke-width:39.3701; stroke-opacity:1; 
stroke-linecap:round; stroke-linejoin:round;">
</g>
<g style="fill:#000000; fill-opacity:1.0; 
stroke:#000000; stroke-width:39.3701; stroke-opacity:1; 
stroke-linecap:round; stroke-linejoin:round;">
<polyline style="fill-rule:evenodd;"
points="21619,15320
21619,14679
22380,14679
22380,15320
21619,15320
" /> 
</g>
<g style="fill:#000000; fill-opacity:1.0; 
stroke:#000000; stroke-width:680; stroke-opacity:1; 
stroke-linecap:round; stroke-linejoin:round;">
</g>
<g style="fill:#000000; fill-opacity:0.0; 
stroke:#000000; stroke-width:680; stroke-opacity:1; 
stroke-linecap:round; stroke-linejoin:round;">
<path d="M21940 16000
L22060 16000
" />
<path d="M21940 17000
L22060 17000
" />
<path d="M21940 18000
L22060 18000
" />
<path d="M21940 19000
L22060 19000
" />
<path d="M21940 20000
L22060 20000
" />
<path d="M21940 21000
L22060 21000
" />
<path d="M21940 22000
L22060 22000
" />
</g>
<g style="fill:#000000; fill-opacity:0.0; 
stroke:#000000; stroke-width:800; stroke-opacity:1; 
stroke-linecap:round; stroke-linejoin:round;">
<path d="M31000 12000
L31000 12000
" />
<path d="M31000 13000
L31000 13000
" />
</g>
<g style="fill:#000000; fill-opacity:0.0; 
stroke:#000000; stroke-width:680; stroke-opacity:1; 
stroke-linecap:round; stroke-linejoin:round;">
<path d="M21940 25000
L22060 25000
" />
<path d="M21940 26000
L22060 26000
" />
<path d="M21940 27000
L22060 27000
" />
<path d="M21940 28000
L22060 28000
" />
<path d="M31060 28000
L30940 28000
" />
<path d="M31060 27000
L30940 27000
" />
<path d="M31060 26000
L30940 26000
" />
<path d="M31060 25000
L30940 25000
" />
<path d="M31060 24000
L30940 24000
" />
<path d="M31060 23000
L30940 23000
" />
<path d="M31060 22000
L30940 22000
" />
<path d="M31060 21000
L30940 21000
" />
<path d="M31060 20000
L30940 20000
" />
<path d="M31060 19000
L30940 19000
" />
<path d="M31060 18000
L30940 18000
" />
<path d="M31060 17000
L30940 17000
" />
<path d="M31060 16000
L30940 16000
" />
<path d="M31060 15000
L30940 15000
" />
</g>
<g style="fill:#000000; fill-opacity:0.0; 
stroke:#000000; stroke-width:39.3701; stroke-opacity:1; 
stroke-linecap:round; stroke-linejoin:round;">
</g>
<g style="fill:#000000; fill-opacity:1.0; 
stroke:#000000; stroke-width:39.3701; stroke-opacity:1; 
stroke-linecap:round; stroke-linejoin:round;">
<circle cx="27500" cy="11015.7" r="236.22" /> 
<polyline style="fill-rule:evenodd;"
points="27736,12236
27263,12236
27263,11763
27736,11763
27736,12236
" /> 
<circle cx="24000" cy="11984.3" r="236.22" /> 
<polyline style="fill-rule:evenodd;"
points="23763,10763
24236,10763
24236,11236
23763,11236
23763,10763
" /> 
<circle cx="19500" cy="28000" r="310.315" /> 
<circle cx="18500" cy="28000" r="310.315" /> 
<circle cx="17500" cy="27500" r="373.815" /> 
<circle cx="17500" cy="23500" r="373.815" /> 
<circle cx="20500" cy="19000" r="373.815" /> 
<circle cx="20500" cy="15000" r="373.815" /> 
<polyline style="fill-rule:evenodd;"
points="17230,10269
17230,13730
13769,13730
13769,10269
17230,10269
" /> 
<circle cx="22000" cy="13000" r="330.315" /> 
<polyline style="fill-rule:evenodd;"
points="22330,11669
22330,12330
21669,12330
21669,11669
22330,11669
" /> 
<circle cx="22000" cy="11000" r="330.315" /> 
<circle cx="28000" cy="23000" r="155.315" /> 
<circle cx="17500" cy="16000" r="155.315" /> 
</g>
<g style="fill:#000000; fill-opacity:1.0; 
stroke:#000000; stroke-width:200; stroke-opacity:1; 
stroke-linecap:round; stroke-linejoin:round;">
</g>
<g style="fill:#000000; fill-opacity:0.0; 
stroke:#000000; stroke-width:200; stroke-opacity:1; 
stroke-linecap:round; stroke-linejoin:round;">
<path d="M17500 23500
L16000 23500
" />
<path d="M16000 24500
L16000 25500
" />
<path d="M16000 25500
L16000 26500
" />
<path d="M16000 26500
L16000 27500
" />
<path d="M16500 21500
L16000 22000
" />
<path d="M16000 23000
L16000 23500
" />
<path d="M16000 22000
L16000 23000
" />
<path d="M16000 23500
L16000 24500
" />
<path d="M25047 11984
L24000 11984
" />
<path d="M24000 11984
L23984 12000
" />
<path d="M23984 12000
L22000 12000
" />
<path d="M27500 11015
L26015 11015
" />
<path d="M28000 21000
L27500 21000
" />
<path d="M27500 21000
L26500 20000
" />
<path d="M26500 20000
L26500 13437
" />
<path d="M26500 13437
L25047 11984
" />
<path d="M31000 13000
L30000 13000
" />
<path d="M26015 11015
L25047 11984
" />
<path d="M28515 11015
L26015 11015
" />
<path d="M30000 13000
L28515 11015
" />
<path d="M27500 21000
L31000 21000
" />
<path d="M25000 22000
L26500 22000
" />
<path d="M16500 21500
L15000 20000
" />
<path d="M15000 20000
L15000 19000
" />
<path d="M20000 22000
L19500 21500
" />
<path d="M19500 21500
L16500 21500
" />
<path d="M25000 22000
L22000 22000
" />
<path d="M22000 22000
L20000 22000
" />
<path d="M20000 22000
L20500 22500
" />
<path d="M20500 22500
L20500 23000
" />
<path d="M16000 27500
L16000 26500
" />
<path d="M16000 26500
L16000 25500
" />
<path d="M16000 25500
L16000 24500
" />
<path d="M19500 21500
L19500 21500
" />
<path d="M17500 26000
L18500 27000
" />
<path d="M18500 27000
L20500 27000
" />
<path d="M17500 23500
L17500 26000
" />
<path d="M26500 22000
L27500 21000
" />
<path d="M28000 23000
L31000 23000
" />
<path d="M20500 26000
L19500 26000
" />
<path d="M19500 26000
L19000 25500
" />
<path d="M19000 25500
L19000 25461
" />
<path d="M20500 26000
L20500 25000
" />
<path d="M20500 25000
L21500 24000
" />
<path d="M21500 24000
L25000 24000
" />
<path d="M20500 24000
L19500 24000
" />
<path d="M19500 24000
L19039 23539
" />
<path d="M19039 23539
L19000 23539
" />
<path d="M25000 23000
L21500 23000
" />
<path d="M21500 23000
L20500 24000
" />
<path d="M20500 24000
L20500 24000
" />
<path d="M20461 24039
L20500 24000
" />
<path d="M20500 15000
L18500 15000
" />
<path d="M20500 15000
L22000 15000
" />
<path d="M22000 15000
L25000 15000
" />
<path d="M16500 19500
L19500 19500
" />
<path d="M15000 15000
L16500 15000
" />
<path d="M22000 16000
L17500 16000
" />
<path d="M22000 16000
L25000 16000
" />
<path d="M22000 17000
L25000 17000
" />
<path d="M15000 16000
L16500 16000
" />
<path d="M17500 17000
L22000 17000
" />
<path d="M16500 16000
L17500 17000
" />
<path d="M22000 18000
L25000 18000
" />
<path d="M22000 19000
L25000 19000
" />
<path d="M22000 20000
L25000 20000
" />
<path d="M22000 25000
L25000 25000
" />
<path d="M22000 26000
L25000 26000
" />
<path d="M22000 27000
L25000 27000
" />
<path d="M22000 28000
L25000 28000
" />
<path d="M28000 28000
L31000 28000
" />
<path d="M28000 27000
L31000 27000
" />
<path d="M28000 26000
L31000 26000
" />
<path d="M28000 25000
L31000 25000
" />
<path d="M28000 24000
L31000 24000
" />
<path d="M28000 22000
L31000 22000
" />
<path d="M28000 20000
L31000 20000
" />
<path d="M28000 19000
L31000 19000
" />
<path d="M28000 18000
L31000 18000
" />
<path d="M28000 17000
L31000 17000
" />
<path d="M28000 16000
L31000 16000
" />
<path d="M28000 15000
L31000 15000
" />
<path d="M17500 27500
L17500 27500
" />
<path d="M18000 28000
L18500 28000
" />
<path d="M17500 27500
L18000 28000
" />
</g>
<g style="fill:#000000; fill-opacity:1.0; 
stroke:#000000; stroke-width:100; stroke-opacity:1; 
stroke-linecap:round; stroke-linejoin:round;">
<polyline style="fill-rule:evenodd;"
points="31830,29330
31662,29330
31662,28000
31617,27774
31489,27582
31365,27500
31489,27417
31617,27225
31662,27000
31617,26774
31489,26582
31365,26500
31489,26417
31617,26225
31662,26000
31617,25774
31489,25582
31365,25500
31489,25417
31617,25225
31662,25000
31617,24774
31489,24582
31365,24500
31489,24417
31617,24225
31662,24000
31617,23774
31489,23582
31365,23500
31489,23417
31617,23225
31662,23000
31617,22774
31489,22582
31365,22500
31489,22417
31617,22225
31662,22000
31662,20000
31617,19774
31489,19582
31365,19500
31489,19417
31617,19225
31662,19000
31617,18774
31489,18582
31365,18500
31489,18417
31617,18225
31662,18000
31617,17774
31489,17582
31365,17500
31489,17417
31617,17225
31662,17000
31617,16774
31489,16582
31365,16500
31489,16417
31617,16225
31662,16000
31617,15774
31489,15582
31365,15500
31489,15417
31617,15225
31662,15000
31617,14774
31533,14647
31533,13135
31510,13050
31050,13050
31050,13510
31135,13533
31328,13440
31472,13281
31533,13135
31533,14647
31489,14582
31298,14454
31072,14410
30950,14410
30950,13510
30950,13050
30489,13050
30466,13135
30527,13281
30671,13440
30864,13533
30950,13510
30950,14410
30927,14410
30701,14454
30510,14582
30465,14650
29143,14650
29143,13372
29045,13135
28864,12954
28628,12856
28372,12856
28135,12954
28010,13079
28010,12255
28010,11744
27992,11648
27937,11564
27911,11547
27911,11063
27897,10902
27861,10814
27799,10787
27728,10858
27728,10716
27701,10653
27547,10604
27386,10617
27298,10653
27271,10716
27500,10945
27728,10716
27728,10858
27570,11015
27799,11244
27861,11216
27911,11063
27911,11547
27854,11508
27755,11489
27728,11489
27728,11314
27500,11086
27429,11157
27429,11015
27200,10787
27138,10814
27088,10968
27102,11129
27138,11216
27200,11244
27429,11015
27429,11157
27271,11314
27298,11377
27452,11426
27613,11413
27701,11377
27728,11314
27728,11489
27244,11489
27148,11507
27064,11562
27008,11645
26989,11744
26989,12255
27007,12351
27062,12435
27145,12491
27244,12510
27755,12510
27851,12492
27935,12437
27991,12354
28010,12255
28010,13079
27954,13135
27856,13371
27856,13627
27954,13864
28135,14045
28371,14143
28627,14143
28864,14045
29045,13864
29143,13628
29143,13372
29143,14650
28580,14650
28549,14604
28368,14482
28153,14440
27846,14440
27631,14482
27450,14604
27328,14785
27286,15000
27328,15214
27450,15395
27605,15500
27450,15604
27328,15785
27286,16000
27328,16214
27450,16395
27605,16500
27450,16604
27328,16785
27286,17000
27328,17214
27450,17395
27605,17500
27450,17604
27328,17785
27286,18000
27328,18214
27450,18395
27605,18500
27450,18604
27328,18785
27286,19000
27328,19214
27450,19395
27605,19500
27450,19604
27328,19785
27286,20000
27328,20214
27450,20395
27631,20517
27785,20547
27637,20594
27499,20710
27416,20879
27440,20950
27950,20950
27950,20942
28050,20942
28050,20950
28559,20950
28583,20879
28500,20710
28362,20594
28214,20547
28368,20517
28549,20395
28580,20350
30465,20350
30510,20417
30701,20545
30753,20555
30692,20576
30549,20703
30466,20874
30490,20950
30950,20950
30950,20942
31050,20942
31050,20950
31509,20950
31533,20874
31450,20703
31307,20576
31246,20555
31298,20545
31489,20417
31617,20225
31662,20000
31662,22000
31617,21774
31489,21582
31298,21454
31246,21444
31307,21423
31450,21296
31533,21125
31509,21050
31050,21050
31050,21057
30950,21057
30950,21050
30490,21050
30466,21125
30549,21296
30692,21423
30753,21444
30701,21454
30510,21582
30465,21650
28580,21650
28549,21604
28368,21482
28214,21452
28362,21405
28500,21289
28583,21120
28559,21050
28050,21050
28050,21057
27950,21057
27950,21050
27440,21050
27416,21120
27499,21289
27637,21405
27785,21452
27631,21482
27450,21604
27328,21785
27286,22000
27328,22214
27450,22395
27605,22500
27450,22604
27328,22785
27286,23000
27328,23214
27450,23395
27605,23500
27450,23604
27328,23785
27286,24000
27328,24214
27450,24395
27605,24500
27450,24604
27328,24785
27286,25000
27328,25214
27450,25395
27605,25500
27450,25604
27328,25785
27286,26000
27328,26214
27450,26395
27605,26500
27450,26604
27328,26785
27286,27000
27328,27214
27450,27395
27605,27500
27450,27604
27328,27785
27286,28000
27328,28214
27450,28395
27631,28517
27846,28560
28153,28560
28368,28517
28549,28395
28580,28350
30465,28350
30510,28417
30701,28545
30927,28590
31072,28590
31298,28545
31489,28417
31617,28225
31662,28000
31662,29330
25713,29330
25713,28000
25671,27785
25549,27604
25394,27500
25549,27395
25671,27214
25713,27000
25671,26785
25549,26604
25394,26500
25549,26395
25671,26214
25713,26000
25671,25785
25549,25604
25394,25500
25549,25395
25671,25214
25713,25000
25671,24785
25549,24604
25394,24500
25549,24395
25671,24214
25713,24000
25671,23785
25549,23604
25394,23500
25549,23395
25671,23214
25713,23000
25713,21000
25671,20785
25549,20604
25394,20500
25549,20395
25671,20214
25713,20000
25671,19785
25549,19604
25394,19500
25549,19395
25671,19214
25713,19000
25671,18785
25549,18604
25394,18500
25549,18395
25671,18214
25713,18000
25671,17785
25549,17604
25394,17500
25549,17395
25671,17214
25713,17000
25671,16785
25549,16604
25394,16500
25549,16395
25671,16214
25713,16000
25671,15785
25549,15604
25481,15558
25545,15546
25629,15491
25685,15408
25704,15310
25704,14690
25686,14594
25631,14510
25548,14454
25450,14435
25148,14435
25148,13893
25148,13106
25129,13011
25074,12927
24991,12871
24893,12851
24510,12851
24510,11255
24510,10744
24492,10648
24437,10564
24354,10508
24255,10489
23744,10489
23648,10507
23564,10562
23508,10645
23489,10744
23489,11255
23507,11351
23562,11435
23645,11491
23744,11510
24255,11510
24351,11492
24435,11437
24491,11354
24510,11255
24510,12851
24411,12851
24411,12031
24397,11870
24361,11783
24299,11755
24228,11826
24228,11685
24201,11622
24047,11573
23886,11586
23798,11622
23771,11685
24000,11913
24228,11685
24228,11826
24070,11984
24299,12212
24361,12185
24411,12031
24411,12851
24228,12851
24228,12283
24000,12054
23929,12125
23929,11984
23700,11755
23638,11783
23588,11936
23602,12097
23638,12185
23700,12212
23929,11984
23929,12125
23771,12283
23798,12346
23952,12395
24113,12382
24201,12346
24228,12283
24228,12851
24106,12851
24011,12870
23927,12925
23871,13008
23851,13106
23851,13893
23870,13988
23925,14072
24008,14128
24106,14148
24893,14148
24988,14129
25072,14074
25128,13991
25148,13893
25148,14435
24550,14435
24454,14453
24370,14508
24314,14591
24303,14650
22652,14650
22636,14564
22600,14509
22600,12881
22600,10881
22508,10660
22340,10491
22119,10400
21881,10399
21660,10491
21491,10659
21400,10880
21399,11118
21491,11339
21651,11500
21620,11500
21565,11522
21522,11565
21500,11620
21500,11679
21500,11912
21537,11950
21950,11950
21950,11942
22050,11942
22050,11950
22462,11950
22500,11912
22500,11679
22500,11620
22477,11565
22434,11522
22379,11500
22348,11500
22508,11340
22599,11119
22600,10881
22600,12881
22508,12660
22348,12500
22379,12500
22434,12477
22477,12434
22500,12379
22500,12320
22500,12087
22462,12050
22050,12050
22050,12057
21950,12057
21950,12050
21537,12050
21500,12087
21500,12320
21500,12379
21522,12434
21565,12477
21620,12500
21651,12500
21491,12659
21400,12880
21399,13118
21491,13339
21659,13508
21880,13599
22118,13600
22339,13508
22508,13340
22599,13119
22600,12881
22600,14509
22581,14480
22498,14424
22400,14405
21600,14405
21504,14423
21420,14478
21364,14561
21347,14650
21051,14650
21045,14635
20864,14454
20628,14356
20372,14356
20135,14454
19954,14635
19948,14650
18892,14650
18797,14555
18604,14475
18396,14474
18203,14554
18055,14702
17975,14895
17974,15103
18054,15297
18202,15444
18395,15524
18603,15525
18797,15445
18892,15350
19948,15350
19954,15364
20135,15545
20371,15643
20627,15643
20864,15545
21045,15364
21051,15350
21347,15350
21363,15435
21418,15519
21501,15575
21516,15578
21510,15582
21465,15650
17751,15650
17741,15639
17584,15575
17504,15575
17504,13750
17504,10250
17486,10154
17431,10070
17348,10014
17250,9995
13750,9995
13654,10013
13570,10068
13514,10151
13495,10250
13495,13750
13513,13845
13568,13929
13651,13985
13750,14004
17250,14004
17345,13986
17429,13931
17485,13848
17504,13750
17504,15575
17415,15574
17259,15639
17139,15758
17075,15915
17074,16079
16747,15752
16633,15676
16500,15650
15534,15650
15489,15582
15483,15578
15495,15576
15579,15521
15635,15438
15652,15350
16107,15350
16202,15444
16395,15524
16603,15525
16797,15445
16944,15297
17024,15104
17025,14896
16945,14703
16797,14555
16604,14475
16396,14474
16203,14554
16107,14650
15652,14650
15636,14564
15581,14480
15498,14424
15400,14405
14600,14405
14504,14423
14420,14478
14364,14561
14345,14660
14345,15340
14363,15435
14418,15519
14501,15575
14516,15578
14510,15582
14382,15774
14337,16000
14382,16225
14510,16417
14634,16500
14510,16582
14382,16774
14337,17000
14382,17225
14510,17417
14634,17500
14510,17582
14382,17774
14337,18000
14382,18225
14510,18417
14701,18545
14753,18555
14692,18576
14549,18703
14466,18874
14490,18950
14950,18950
14950,18942
15050,18942
15050,18950
15509,18950
15533,18874
15450,18703
15307,18576
15246,18555
15298,18545
15489,18417
15617,18225
15662,18000
15617,17774
15489,17582
15365,17500
15489,17417
15617,17225
15662,17000
15617,16774
15489,16582
15365,16500
15489,16417
15534,16350
16355,16350
17252,17247
17366,17323
17500,17350
21465,17350
21510,17417
21634,17500
21510,17582
21382,17774
21337,18000
21382,18225
21510,18417
21634,18500
21510,18582
21382,18774
21337,19000
21382,19225
21510,19417
21634,19500
21510,19582
21382,19774
21337,20000
21382,20225
21510,20417
21634,20500
21510,20582
21382,20774
21337,21000
21382,21225
21510,21417
21701,21545
21753,21555
21692,21576
21549,21703
21466,21874
21490,21950
21950,21950
21950,21942
22050,21942
22050,21950
22509,21950
22533,21874
22450,21703
22307,21576
22246,21555
22298,21545
22489,21417
22617,21225
22662,21000
22617,20774
22489,20582
22365,20500
22489,20417
22534,20350
24419,20350
24450,20395
24605,20500
24450,20604
24328,20785
24286,21000
24328,21214
24450,21395
24631,21517
24785,21547
24637,21594
24499,21710
24416,21879
24440,21950
24950,21950
24950,21942
25050,21942
25050,21950
25559,21950
25583,21879
25500,21710
25362,21594
25214,21547
25368,21517
25549,21395
25671,21214
25713,21000
25713,23000
25671,22785
25549,22604
25368,22482
25214,22452
25362,22405
25500,22289
25583,22120
25559,22050
25050,22050
25050,22057
24950,22057
24950,22050
24440,22050
24416,22120
24499,22289
24637,22405
24785,22452
24631,22482
24450,22604
24419,22650
22533,22650
22533,22125
22509,22050
22050,22050
22050,22453
22126,22486
22307,22423
22450,22296
22533,22125
22533,22650
21950,22650
21950,22453
21950,22050
21490,22050
21466,22125
21549,22296
21692,22423
21873,22486
21950,22453
21950,22650
21500,22650
21366,22676
21252,22752
21143,22861
21143,18872
21045,18635
20864,18454
20628,18356
20372,18356
20135,18454
19954,18635
19856,18871
19856,19113
19797,19055
19604,18975
19396,18974
19203,19054
19107,19150
16892,19150
16797,19055
16604,18975
16396,18974
16203,19054
16055,19202
15975,19395
15974,19603
16054,19797
16202,19944
16395,20024
16603,20025
16797,19945
16892,19850
19107,19850
19202,19944
19395,20024
19603,20025
19797,19945
19944,19797
20024,19604
20025,19435
20135,19545
20371,19643
20627,19643
20864,19545
21045,19364
21143,19128
21143,18872
21143,22861
20919,23085
20930,23051
20917,22883
20877,22787
20813,22757
20742,22828
20742,22686
20712,22622
20551,22569
20383,22582
20287,22622
20257,22686
20500,22929
20742,22686
20742,22828
20570,23000
20576,23005
20505,23076
20500,23070
20429,23141
20429,23000
20186,22757
20122,22787
20069,22948
20082,23116
20122,23212
20186,23242
20429,23000
20429,23141
20257,23313
20287,23377
20448,23430
20585,23419
20529,23475
20396,23474
20203,23554
20107,23650
19930,23650
19930,21551
19917,21383
19877,21287
19813,21257
19742,21328
19742,21186
19712,21122
19551,21069
19383,21082
19287,21122
19257,21186
19500,21429
19742,21186
19742,21328
19570,21500
19813,21742
19877,21712
19930,21551
19930,23650
19734,23650
19756,23539
19742,23467
19742,21813
19500,21570
19429,21641
19429,21500
19186,21257
19122,21287
19069,21448
19082,21616
19122,21712
19186,21742
19429,21500
19429,21641
19257,21813
19287,21877
19448,21930
19616,21917
19712,21877
19742,21813
19742,23467
19707,23292
19568,23083
19359,22944
19113,22895
18886,22895
18640,22944
18431,23083
18292,23292
18243,23539
18292,23785
18431,23994
18640,24133
18886,24182
19113,24182
19175,24170
19252,24247
19366,24323
19366,24323
19500,24350
20107,24350
20202,24444
20395,24524
20480,24524
20252,24752
20176,24866
20150,25000
20150,25607
20107,25650
19718,25650
19756,25461
19707,25214
19568,25005
19359,24866
19113,24817
18886,24817
18640,24866
18431,25005
18292,25214
18243,25461
18292,25707
18431,25916
18640,26055
18886,26104
19109,26104
19252,26247
19366,26323
19366,26323
19500,26350
20107,26350
20202,26444
20395,26524
20603,26525
20797,26445
20944,26297
21024,26104
21025,25896
20945,25703
20850,25607
20850,25144
21644,24350
24419,24350
24450,24395
24605,24500
24450,24604
24419,24650
22534,24650
22489,24582
22298,24454
22072,24410
21927,24410
21701,24454
21510,24582
21382,24774
21337,25000
21382,25225
21510,25417
21634,25500
21510,25582
21382,25774
21337,26000
21382,26225
21510,26417
21634,26500
21510,26582
21382,26774
21337,27000
21382,27225
21510,27417
21634,27500
21510,27582
21382,27774
21337,28000
21382,28225
21510,28417
21701,28545
21927,28590
22072,28590
22298,28545
22489,28417
22534,28350
24419,28350
24450,28395
24631,28517
24846,28560
25153,28560
25368,28517
25549,28395
25671,28214
25713,28000
25713,29330
20930,29330
20930,27051
20917,26883
20877,26787
20813,26757
20742,26828
20742,26686
20712,26622
20551,26569
20383,26582
20287,26622
20257,26686
20500,26929
20742,26686
20742,26828
20570,27000
20813,27242
20877,27212
20930,27051
20930,29330
20742,29330
20742,27313
20500,27070
20429,27141
20429,27000
20186,26757
20122,26787
20069,26948
20082,27116
20122,27212
20186,27242
20429,27000
20429,27141
20257,27313
20287,27377
20448,27430
20616,27417
20712,27377
20742,27313
20742,29330
20080,29330
20080,27885
19991,27671
19828,27508
19615,27420
19385,27419
19171,27508
19008,27671
19000,27691
18991,27671
18828,27508
18615,27420
18385,27419
18171,27508
18143,27536
18143,27372
18048,27141
18048,23580
18037,23364
17975,23216
17898,23171
17828,23242
17828,23101
17783,23024
17580,22951
17364,22962
17216,23024
17171,23101
17500,23429
17828,23101
17828,23242
17570,23500
17898,23828
17975,23783
18048,23580
18048,27141
18045,27135
17864,26954
17828,26939
17828,23898
17500,23570
17429,23641
17429,23500
17101,23171
17024,23216
16951,23419
16962,23635
17024,23783
17101,23828
17429,23500
17429,23641
17171,23898
17216,23975
17419,24048
17635,24037
17783,23975
17828,23898
17828,26939
17628,26856
17372,26856
17135,26954
16954,27135
16930,27194
16930,21551
16917,21383
16877,21287
16813,21257
16742,21328
16742,21186
16712,21122
16551,21069
16383,21082
16287,21122
16257,21186
16500,21429
16742,21186
16742,21328
16570,21500
16813,21742
16877,21712
16930,21551
16930,27194
16856,27371
16856,27627
16954,27864
17135,28045
17371,28143
17627,28143
17642,28137
17752,28247
17866,28323
17866,28323
18000,28350
18029,28350
18171,28491
18384,28579
18614,28580
18828,28491
18991,28328
18999,28308
19008,28328
19171,28491
19384,28579
19614,28580
19828,28491
19991,28328
20079,28115
20080,27885
20080,29330
16742,29330
16742,21813
16500,21570
16429,21641
16429,21500
16186,21257
16122,21287
16069,21448
16082,21616
16122,21712
16186,21742
16429,21500
16429,21641
16257,21813
16287,21877
16448,21930
16616,21917
16712,21877
16742,21813
16742,29330
14191,29330
14475,29213
14712,28976
14840,28667
14840,28333
14723,28049
14927,28090
15072,28090
15298,28045
15489,27917
15500,27902
15510,27917
15701,28045
15927,28090
16072,28090
16298,28045
16489,27917
16617,27725
16662,27500
16617,27274
16489,27082
16365,27000
16489,26917
16617,26725
16662,26500
16617,26274
16489,26082
16365,26000
16489,25917
16617,25725
16662,25500
16617,25274
16489,25082
16365,25000
16489,24917
16617,24725
16662,24500
16617,24274
16489,24082
16365,24000
16489,23917
16617,23725
16662,23500
16617,23274
16489,23082
16298,22954
16072,22910
15927,22910
15701,22954
15533,23067
15533,20125
15533,19874
15533,19125
15509,19050
15050,19050
15050,19453
15126,19486
15307,19423
15450,19296
15533,19125
15533,19874
15450,19703
15307,19576
15126,19513
15050,19546
15050,19950
15509,19950
15533,19874
15533,20125
15509,20050
15050,20050
15050,20453
15126,20486
15307,20423
15450,20296
15533,20125
15533,23067
15510,23082
15500,23097
15489,23082
15298,22954
15072,22910
14950,22910
14950,20453
14950,20050
14950,19950
14950,19546
14950,19453
14950,19050
14490,19050
14466,19125
14549,19296
14692,19423
14873,19486
14950,19453
14950,19546
14873,19513
14692,19576
14549,19703
14466,19874
14490,19950
14950,19950
14950,20050
14490,20050
14466,20125
14549,20296
14692,20423
14873,20486
14950,20453
14950,22910
14927,22910
14701,22954
14510,23082
14382,23274
14337,23500
14382,23725
14510,23917
14634,24000
14510,24082
14382,24274
14337,24500
14382,24725
14510,24917
14634,25000
14510,25082
14382,25274
14337,25500
14382,25725
14510,25917
14634,26000
14510,26082
14382,26274
14337,26500
14382,26725
14510,26917
14634,27000
14510,27082
14382,27274
14337,27500
14382,27725
14403,27757
14167,27659
13833,27659
13524,27787
13287,28023
13169,28307
13169,9669
31830,9669
31830,10505
31713,10221
31476,9984
31167,9856
30833,9856
30524,9983
30287,10220
30159,10528
30159,10863
30287,11172
30523,11409
30647,11460
30527,11540
30386,11751
30337,12000
30386,12248
30527,12459
30674,12557
30671,12559
30527,12718
30466,12864
30489,12950
30950,12950
30950,12942
31050,12942
31050,12950
31510,12950
31533,12864
31472,12718
31328,12559
31325,12557
31472,12459
31613,12248
31662,12000
31613,11751
31472,11540
31352,11460
31475,11409
31712,11173
31830,10889
31830,29330
" /> 
</g>
<g style="fill:#FFFFFF; fill-opacity:1.0; 
stroke:#FFFFFF; stroke-width:39.3701; stroke-opacity:1; 
stroke-linecap:round; stroke-linejoin:round;">
<circle cx="28000" cy="23000" r="105.315" /> 
<circle cx="17500" cy="16000" r="105.315" /> 
<circle cx="25000" cy="16000" r="140.315" /> 
<circle cx="25000" cy="17000" r="140.315" /> 
<circle cx="25000" cy="18000" r="140.315" /> 
<circle cx="25000" cy="19000" r="140.315" /> 
<circle cx="25000" cy="20000" r="140.315" /> 
<circle cx="25000" cy="21000" r="140.315" /> 
<circle cx="25000" cy="22000" r="140.315" /> 
<circle cx="25000" cy="23000" r="140.315" /> 
<circle cx="25000" cy="24000" r="140.315" /> 
<circle cx="25000" cy="25000" r="140.315" /> 
<circle cx="25000" cy="26000" r="140.315" /> 
<circle cx="25000" cy="27000" r="140.315" /> 
<circle cx="25000" cy="28000" r="140.315" /> 
<circle cx="25000" cy="15000" r="140.315" /> 
<circle cx="28000" cy="28000" r="140.315" /> 
<circle cx="28000" cy="27000" r="140.315" /> 
<circle cx="28000" cy="26000" r="140.315" /> 
<circle cx="28000" cy="25000" r="140.315" /> 
<circle cx="28000" cy="24000" r="140.315" /> 
<circle cx="28000" cy="23000" r="140.315" /> 
<circle cx="28000" cy="22000" r="140.315" /> 
<circle cx="28000" cy="21000" r="140.315" /> 
<circle cx="28000" cy="20000" r="140.315" /> 
<circle cx="28000" cy="19000" r="140.315" /> 
<circle cx="28000" cy="18000" r="140.315" /> 
<circle cx="28000" cy="17000" r="140.315" /> 
<circle cx="28000" cy="16000" r="140.315" /> 
<circle cx="28000" cy="15000" r="140.315" /> 
<circle cx="20500" cy="24000" r="140.315" /> 
<circle cx="20500" cy="23000" r="140.315" /> 
<circle cx="20500" cy="26000" r="140.315" /> 
<circle cx="20500" cy="27000" r="140.315" /> 
<circle cx="18500" cy="15000" r="140.315" /> 
<circle cx="16500" cy="15000" r="140.315" /> 
<circle cx="28500" cy="13500" r="230.315" /> 
<circle cx="24500" cy="13500" r="177.315" /> 
<circle cx="19500" cy="19500" r="140.315" /> 
<circle cx="19500" cy="21500" r="140.315" /> 
<circle cx="16500" cy="19500" r="140.315" /> 
<circle cx="16500" cy="21500" r="140.315" /> 
<circle cx="19000" cy="25461" r="216.315" /> 
<circle cx="19000" cy="23539" r="216.315" /> 
<circle cx="16000" cy="23500" r="180.315" /> 
<circle cx="16000" cy="24500" r="180.315" /> 
<circle cx="16000" cy="25500" r="180.315" /> 
<circle cx="16000" cy="26500" r="180.315" /> 
<circle cx="16000" cy="27500" r="180.315" /> 
<circle cx="15000" cy="23500" r="180.315" /> 
<circle cx="15000" cy="24500" r="180.315" /> 
<circle cx="15000" cy="25500" r="180.315" /> 
<circle cx="15000" cy="26500" r="180.315" /> 
<circle cx="15000" cy="27500" r="180.315" /> 
<circle cx="15000" cy="15000" r="180.315" /> 
<circle cx="15000" cy="16000" r="180.315" /> 
<circle cx="15000" cy="17000" r="180.315" /> 
<circle cx="15000" cy="18000" r="180.315" /> 
<circle cx="15000" cy="19000" r="180.315" /> 
<circle cx="15000" cy="20000" r="180.315" /> 
<circle cx="22000" cy="15000" r="180.315" /> 
<circle cx="22000" cy="16000" r="180.315" /> 
<circle cx="22000" cy="17000" r="180.315" /> 
<circle cx="22000" cy="18000" r="180.315" /> 
<circle cx="22000" cy="19000" r="180.315" /> 
<circle cx="22000" cy="20000" r="180.315" /> 
<circle cx="22000" cy="21000" r="180.315" /> 
<circle cx="22000" cy="22000" r="180.315" /> 
<circle cx="31000" cy="12000" r="180.315" /> 
<circle cx="31000" cy="13000" r="180.315" /> 
<circle cx="22000" cy="25000" r="180.315" /> 
<circle cx="22000" cy="26000" r="180.315" /> 
<circle cx="22000" cy="27000" r="180.315" /> 
<circle cx="22000" cy="28000" r="180.315" /> 
<circle cx="31000" cy="28000" r="180.315" /> 
<circle cx="31000" cy="27000" r="180.315" /> 
<circle cx="31000" cy="26000" r="180.315" /> 
<circle cx="31000" cy="25000" r="180.315" /> 
<circle cx="31000" cy="24000" r="180.315" /> 
<circle cx="31000" cy="23000" r="180.315" /> 
<circle cx="31000" cy="22000" r="180.315" /> 
<circle cx="31000" cy="21000" r="180.315" /> 
<circle cx="31000" cy="20000" r="180.315" /> 
<circle cx="31000" cy="19000" r="180.315" /> 
<circle cx="31000" cy="18000" r="180.315" /> 
<circle cx="31000" cy="17000" r="180.315" /> 
<circle cx="31000" cy="16000" r="180.315" /> 
<circle cx="31000" cy="15000" r="180.315" /> 
<circle cx="27500" cy="11015.7" r="137.795" /> 
<circle cx="27500" cy="12000" r="137.795" /> 
<circle cx="24000" cy="11984.3" r="137.795" /> 
<circle cx="24000" cy="11000" r="137.795" /> 
<circle cx="19500" cy="28000" r="140.315" /> 
<circle cx="18500" cy="28000" r="140.315" /> 
<circle cx="17500" cy="27500" r="177.315" /> 
<circle cx="17500" cy="23500" r="177.315" /> 
<circle cx="20500" cy="19000" r="177.315" /> 
<circle cx="20500" cy="15000" r="177.315" /> 
<circle cx="15500" cy="12000" r="580.315" /> 
<circle cx="22000" cy="13000" r="205.315" /> 
<circle cx="22000" cy="12000" r="205.315" /> 
<circle cx="22000" cy="11000" r="205.315" /> 
<circle cx="31000" cy="10696.9" r="570.866" /> 
<circle cx="14000" cy="28500" r="570.866" /> 
</g> 
</svg>
