<?xml version="1.0" standalone="no"?>
 <!DOCTYPE svg PUBLIC "-//W3C//DTD SVG 1.1//EN" 
 "http://www.w3.org/Graphics/SVG/1.1/DTD/svg11.dtd"> 
<svg xmlns="http://www.w3.org/2000/svg" version="1.1" 
    width="29.7002cm" height="21.0007cm" viewBox="0 0 116930 82680 ">
<title>SVG Picture created as cseduinop-F_SilkS.svg date 2015/04/28 14:57:48 </title>
  <desc>Picture generated by PCBNEW </desc>
<g style="fill:#000000; fill-opacity:1;stroke:#000000; stroke-opacity:1;
stroke-linecap:round; stroke-linejoin:round; "
 transform="translate(0 0) scale(1 1)">
</g>
<g style="fill:#000000; fill-opacity:0.0; 
stroke:#000000; stroke-width:98.4252; stroke-opacity:1; 
stroke-linecap:round; stroke-linejoin:round;">
<path d="M16633 16908
L16611 16931
L16543 16953
L16498 16953
L16431 16931
L16386 16886
L16363 16841
L16341 16751
L16341 16683
L16363 16593
L16386 16548
L16431 16503
L16498 16481
L16543 16481
L16611 16503
L16633 16526
" />
<path d="M16813 16931
L16881 16953
L16993 16953
L17038 16931
L17061 16908
L17083 16863
L17083 16818
L17061 16773
L17038 16751
L16993 16728
L16903 16706
L16858 16683
L16836 16661
L16813 16616
L16813 16571
L16836 16526
L16858 16503
L16903 16481
L17016 16481
L17083 16503
" />
<path d="M17286 16706
L17443 16706
" />
<path d="M17511 16953
L17286 16953
L17286 16481
L17511 16481
" />
<path d="M17916 16953
L17916 16481
" />
<path d="M17916 16931
L17871 16953
L17781 16953
L17736 16931
L17713 16908
L17691 16863
L17691 16728
L17713 16683
L17736 16661
L17781 16638
L17871 16638
L17916 16661
" />
<path d="M18343 16638
L18343 16953
" />
<path d="M18141 16638
L18141 16886
L18163 16931
L18208 16953
L18276 16953
L18321 16931
L18343 16908
" />
<path d="M18568 16953
L18568 16638
" />
<path d="M18568 16481
L18546 16503
L18568 16526
L18591 16503
L18568 16481
L18568 16526
" />
<path d="M18793 16638
L18793 16953
" />
<path d="M18793 16683
L18816 16661
L18861 16638
L18928 16638
L18973 16661
L18996 16706
L18996 16953
" />
<path d="M19288 16953
L19243 16931
L19221 16908
L19198 16863
L19198 16728
L19221 16683
L19243 16661
L19288 16638
L19356 16638
L19401 16661
L19423 16683
L19446 16728
L19446 16863
L19423 16908
L19401 16931
L19356 16953
L19288 16953
" />
<path d="M16903 17713
L16633 17713
" />
<path d="M16768 17713
L16768 17241
L16723 17308
L16678 17353
L16633 17376
" />
<path d="M17331 17241
L17106 17241
L17083 17466
L17106 17443
L17151 17421
L17263 17421
L17308 17443
L17331 17466
L17353 17511
L17353 17623
L17331 17668
L17308 17691
L17263 17713
L17151 17713
L17106 17691
L17083 17668
" />
<path d="M17646 17241
L17691 17241
L17736 17263
L17758 17286
L17781 17331
L17803 17421
L17803 17533
L17781 17623
L17758 17668
L17736 17691
L17691 17713
L17646 17713
L17601 17691
L17578 17668
L17556 17623
L17533 17533
L17533 17421
L17556 17331
L17578 17286
L17601 17263
L17646 17241
" />
<path d="M18208 17398
L18208 17713
" />
<path d="M18096 17218
L17983 17556
L18276 17556
" />
<path d="M18433 17286
L18456 17263
L18501 17241
L18613 17241
L18658 17263
L18681 17286
L18703 17331
L18703 17376
L18681 17443
L18411 17713
L18703 17713
" />
<path d="M18861 17241
L19176 17241
L18973 17713
" />
<path d="M15958 18158
L15958 18563
L15936 18608
L15891 18631
L15868 18631
" />
<path d="M15958 18001
L15936 18023
L15958 18046
L15981 18023
L15958 18001
L15958 18046
" />
<path d="M16183 18158
L16183 18631
" />
<path d="M16183 18181
L16228 18158
L16318 18158
L16363 18181
L16386 18203
L16408 18248
L16408 18383
L16386 18428
L16363 18451
L16318 18473
L16228 18473
L16183 18451
" />
<path d="M16611 18473
L16611 18158
" />
<path d="M16611 18248
L16633 18203
L16656 18181
L16701 18158
L16746 18158
" />
<path d="M17106 18473
L17106 18226
L17083 18181
L17038 18158
L16948 18158
L16903 18181
" />
<path d="M17106 18451
L17061 18473
L16948 18473
L16903 18451
L16881 18406
L16881 18361
L16903 18316
L16948 18293
L17061 18293
L17106 18271
" />
<path d="M17398 18473
L17353 18451
L17331 18406
L17331 18001
" />
<path d="M17533 18158
L17646 18473
L17758 18158
" />
<path d="M18118 18451
L18073 18473
L17983 18473
L17938 18451
L17916 18406
L17916 18226
L17938 18181
L17983 18158
L18073 18158
L18118 18181
L18141 18226
L18141 18271
L17916 18316
" />
<path d="M18321 18451
L18366 18473
L18456 18473
L18501 18451
L18523 18406
L18523 18383
L18501 18338
L18456 18316
L18388 18316
L18343 18293
L18321 18248
L18321 18226
L18343 18181
L18388 18158
L18456 18158
L18501 18181
" />
<path d="M18726 18428
L18748 18451
L18726 18473
L18703 18451
L18726 18428
L18726 18473
" />
<path d="M18951 18158
L18951 18473
" />
<path d="M18951 18203
L18973 18181
L19018 18158
L19086 18158
L19131 18181
L19153 18226
L19153 18473
" />
<path d="M19558 18451
L19513 18473
L19423 18473
L19378 18451
L19356 18406
L19356 18226
L19378 18181
L19423 18158
L19513 18158
L19558 18181
L19580 18226
L19580 18271
L19356 18316
" />
<path d="M19715 18158
L19895 18158
" />
<path d="M19783 18001
L19783 18406
L19805 18451
L19850 18473
L19895 18473
" />
</g>
<g style="fill:#000000; fill-opacity:0.0; 
stroke:#000000; stroke-width:59.0551; stroke-opacity:1; 
stroke-linecap:round; stroke-linejoin:round;">
<path d="M29411 11784
L29542 12178
L29673 11784
" />
<path d="M29805 12178
L29805 11784
" />
<path d="M29992 12178
L29992 11784
L30217 12178
L30217 11784
" />
<path d="M29542 12803
L29505 12784
L29448 12784
L29392 12803
L29355 12840
L29336 12878
L29317 12953
L29317 13009
L29336 13084
L29355 13121
L29392 13159
L29448 13178
L29486 13178
L29542 13159
L29561 13140
L29561 13009
L29486 13009
" />
<path d="M29730 13178
L29730 12784
L29955 13178
L29955 12784
" />
<path d="M30142 13178
L30142 12784
L30236 12784
L30292 12803
L30329 12840
L30348 12878
L30367 12953
L30367 13009
L30348 13084
L30329 13121
L30292 13159
L30236 13178
L30142 13178
" />
<path d="M15803 29024
L15784 29061
L15784 29118
L15803 29174
L15840 29211
L15878 29230
L15953 29249
L16009 29249
L16084 29230
L16121 29211
L16159 29174
L16178 29118
L16178 29080
L16159 29024
L16140 29005
L16009 29005
L16009 29080
" />
<path d="M16178 28836
L15784 28836
L16178 28611
L15784 28611
" />
<path d="M16178 28424
L15784 28424
L15784 28330
L15803 28274
L15840 28236
L15878 28218
L15953 28199
L16009 28199
L16084 28218
L16121 28236
L16159 28274
L16178 28330
L16178 28424
" />
<path d="M14784 29249
L15178 29118
L14784 28986
" />
<path d="M15140 28630
L15159 28649
L15178 28705
L15178 28743
L15159 28799
L15121 28836
L15084 28855
L15009 28874
L14953 28874
L14878 28855
L14840 28836
L14803 28799
L14784 28743
L14784 28705
L14803 28649
L14821 28630
" />
<path d="M15140 28236
L15159 28255
L15178 28311
L15178 28349
L15159 28405
L15121 28443
L15084 28461
L15009 28480
L14953 28480
L14878 28461
L14840 28443
L14803 28405
L14784 28349
L14784 28311
L14803 28255
L14821 28236
" />
<path d="M13479 19803
L13442 19784
L13385 19784
L13329 19803
L13292 19840
L13273 19878
L13254 19953
L13254 20009
L13273 20084
L13292 20121
L13329 20159
L13385 20178
L13423 20178
L13479 20159
L13498 20140
L13498 20009
L13423 20009
" />
<path d="M13667 20178
L13667 19784
L13892 20178
L13892 19784
" />
<path d="M14079 20178
L14079 19784
L14173 19784
L14229 19803
L14266 19840
L14285 19878
L14304 19953
L14304 20009
L14285 20084
L14266 20121
L14229 20159
L14173 20178
L14079 20178
" />
<path d="M13254 17784
L13385 18178
L13517 17784
" />
<path d="M13873 18140
L13854 18159
L13798 18178
L13760 18178
L13704 18159
L13667 18121
L13648 18084
L13629 18009
L13629 17953
L13648 17878
L13667 17840
L13704 17803
L13760 17784
L13798 17784
L13854 17803
L13873 17821
" />
<path d="M14266 18140
L14248 18159
L14191 18178
L14154 18178
L14098 18159
L14060 18121
L14041 18084
L14023 18009
L14023 17953
L14041 17878
L14060 17840
L14098 17803
L14154 17784
L14191 17784
L14248 17803
L14266 17821
" />
<path d="M13517 17178
L13385 16990
" />
<path d="M13292 17178
L13292 16784
L13442 16784
L13479 16803
L13498 16821
L13517 16859
L13517 16915
L13498 16953
L13479 16971
L13442 16990
L13292 16990
" />
<path d="M13648 16784
L13910 17178
" />
<path d="M13910 16784
L13648 17178
" />
<path d="M14060 17178
L14060 16784
L14154 16784
L14210 16803
L14248 16840
L14266 16878
L14285 16953
L14285 17009
L14266 17084
L14248 17121
L14210 17159
L14154 17178
L14060 17178
" />
<path d="M13282 15784
L13507 15784
" />
<path d="M13395 16178
L13395 15784
" />
<path d="M13601 15784
L13863 16178
" />
<path d="M13863 15784
L13601 16178
" />
<path d="M14013 16178
L14013 15784
L14107 15784
L14163 15803
L14201 15840
L14220 15878
L14238 15953
L14238 16009
L14220 16084
L14201 16121
L14163 16159
L14107 16178
L14013 16178
" />
<path d="M13329 15178
L13329 14784
L13423 14784
L13479 14803
L13517 14840
L13535 14878
L13554 14953
L13554 15009
L13535 15084
L13517 15121
L13479 15159
L13423 15178
L13329 15178
" />
<path d="M13667 14784
L13892 14784
" />
<path d="M13779 15178
L13779 14784
" />
<path d="M14248 15178
L14116 14990
" />
<path d="M14023 15178
L14023 14784
L14173 14784
L14210 14803
L14229 14821
L14248 14859
L14248 14915
L14229 14953
L14210 14971
L14173 14990
L14023 14990
" />
<path d="M23275 27953
L23237 27934
L23218 27915
L23200 27878
L23200 27859
L23218 27821
L23237 27803
L23275 27784
L23350 27784
L23387 27803
L23406 27821
L23425 27859
L23425 27878
L23406 27915
L23387 27934
L23350 27953
L23275 27953
L23237 27971
L23218 27990
L23200 28028
L23200 28103
L23218 28140
L23237 28159
L23275 28178
L23350 28178
L23387 28159
L23406 28140
L23425 28103
L23425 28028
L23406 27990
L23387 27971
L23350 27953
" />
<path d="M23181 26784
L23443 26784
L23275 27178
" />
<path d="M22853 26028
L22874 26009
L22914 25990
L22984 26028
L23024 26009
L23045 25990
" />
<path d="M23389 25784
L23314 25784
L23275 25803
L23253 25821
L23209 25878
L23181 25953
L23162 26103
L23176 26140
L23193 26159
L23228 26178
L23303 26178
L23342 26159
L23364 26140
L23387 26103
L23399 26009
L23385 25971
L23368 25953
L23333 25934
L23258 25934
L23218 25953
L23197 25971
L23174 26009
" />
<path d="M22853 25028
L22874 25009
L22914 24990
L22984 25028
L23024 25009
L23045 24990
" />
<path d="M23408 24784
L23221 24784
L23178 24971
L23200 24953
L23239 24934
L23333 24934
L23368 24953
L23385 24971
L23399 25009
L23387 25103
L23364 25140
L23342 25159
L23303 25178
L23209 25178
L23174 25159
L23157 25140
" />
</g>
<g style="fill:#000000; fill-opacity:0.0; 
stroke:#000000; stroke-width:98.4252; stroke-opacity:1; 
stroke-linecap:round; stroke-linejoin:round;">
<path d="M23140 21763
L23095 21741
L23027 21741
L22960 21763
L22915 21808
L22892 21853
L22870 21943
L22870 22011
L22892 22101
L22915 22146
L22960 22191
L23027 22213
L23072 22213
L23140 22191
L23162 22168
L23162 22011
L23072 22011
" />
<path d="M23365 22213
L23365 21741
L23634 22213
L23634 21741
" />
<path d="M23859 22213
L23859 21741
L23972 21741
L24039 21763
L24084 21808
L24107 21853
L24129 21943
L24129 22011
L24107 22101
L24084 22146
L24039 22191
L23972 22213
L23859 22213
" />
<path d="M22870 20741
L23027 21213
L23185 20741
" />
<path d="M23612 21168
L23589 21191
L23522 21213
L23477 21213
L23410 21191
L23365 21146
L23342 21101
L23320 21011
L23320 20943
L23342 20853
L23365 20808
L23410 20763
L23477 20741
L23522 20741
L23589 20763
L23612 20786
" />
<path d="M24084 21168
L24062 21191
L23994 21213
L23949 21213
L23882 21191
L23837 21146
L23814 21101
L23792 21011
L23792 20943
L23814 20853
L23837 20808
L23882 20763
L23949 20741
L23994 20741
L24062 20763
L24084 20786
" />
</g>
<g style="fill:#000000; fill-opacity:0.0; 
stroke:#000000; stroke-width:59.0551; stroke-opacity:1; 
stroke-linecap:round; stroke-linejoin:round;">
<path d="M23387 19915
L23387 20178
" />
<path d="M23293 19765
L23200 20046
L23443 20046
" />
<path d="M22853 19028
L22874 19009
L22914 18990
L22984 19028
L23024 19009
L23045 18990
" />
<path d="M23183 18784
L23427 18784
L23277 18934
L23333 18934
L23368 18953
L23385 18971
L23399 19009
L23387 19103
L23364 19140
L23342 19159
L23303 19178
L23190 19178
L23155 19159
L23139 19140
" />
<path d="M23200 17821
L23218 17803
L23256 17784
L23350 17784
L23387 17803
L23406 17821
L23425 17859
L23425 17896
L23406 17953
L23181 18178
L23425 18178
" />
<path d="M23425 17178
L23200 17178
" />
<path d="M23312 17178
L23312 16784
L23275 16840
L23237 16878
L23200 16896
" />
<path d="M23293 15784
L23331 15784
L23368 15803
L23387 15821
L23406 15859
L23425 15934
L23425 16028
L23406 16103
L23387 16140
L23368 16159
L23331 16178
L23293 16178
L23256 16159
L23237 16140
L23218 16103
L23200 16028
L23200 15934
L23218 15859
L23237 15821
L23256 15803
L23293 15784
" />
<path d="M23250 15178
L23118 14990
" />
<path d="M23025 15178
L23025 14784
L23175 14784
L23212 14803
L23231 14821
L23250 14859
L23250 14915
L23231 14953
L23212 14971
L23175 14990
L23025 14990
" />
<path d="M23400 15159
L23456 15178
L23550 15178
L23587 15159
L23606 15140
L23625 15103
L23625 15065
L23606 15028
L23587 15009
L23550 14990
L23475 14971
L23437 14953
L23418 14934
L23400 14896
L23400 14859
L23418 14821
L23437 14803
L23475 14784
L23568 14784
L23625 14803
" />
<path d="M23737 14784
L23962 14784
" />
<path d="M23850 15178
L23850 14784
" />
<path d="M29353 28028
L29374 28009
L29414 27990
L29484 28028
L29524 28009
L29545 27990
" />
<path d="M29690 28178
L29765 28178
L29805 28159
L29826 28140
L29871 28084
L29899 28009
L29917 27859
L29903 27821
L29887 27803
L29852 27784
L29777 27784
L29737 27803
L29716 27821
L29693 27859
L29681 27953
L29695 27990
L29711 28009
L29746 28028
L29821 28028
L29861 28009
L29882 27990
L29906 27953
" />
<path d="M28978 27028
L28999 27009
L29039 26990
L29109 27028
L29149 27009
L29170 26990
" />
<path d="M29503 27178
L29278 27178
" />
<path d="M29390 27178
L29439 26784
L29395 26840
L29353 26878
L29313 26896
" />
<path d="M29796 26784
L29833 26784
L29868 26803
L29885 26821
L29899 26859
L29908 26934
L29896 27028
L29868 27103
L29845 27140
L29824 27159
L29784 27178
L29746 27178
L29711 27159
L29695 27140
L29681 27103
L29671 27028
L29683 26934
L29711 26859
L29735 26821
L29756 26803
L29796 26784
" />
<path d="M28978 26028
L28999 26009
L29039 25990
L29109 26028
L29149 26009
L29170 25990
" />
<path d="M29503 26178
L29278 26178
" />
<path d="M29390 26178
L29439 25784
L29395 25840
L29353 25878
L29313 25896
" />
<path d="M29878 26178
L29653 26178
" />
<path d="M29765 26178
L29814 25784
L29770 25840
L29728 25878
L29688 25896
" />
<path d="M29550 25178
L29325 25178
" />
<path d="M29437 25178
L29437 24784
L29400 24840
L29362 24878
L29325 24896
" />
<path d="M29700 24821
L29718 24803
L29756 24784
L29850 24784
L29887 24803
L29906 24821
L29925 24859
L29925 24896
L29906 24953
L29681 25178
L29925 25178
" />
<path d="M29550 24178
L29325 24178
" />
<path d="M29437 24178
L29437 23784
L29400 23840
L29362 23878
L29325 23896
" />
<path d="M29681 23784
L29925 23784
L29793 23934
L29850 23934
L29887 23953
L29906 23971
L29925 24009
L29925 24103
L29906 24140
L29887 24159
L29850 24178
L29737 24178
L29700 24159
L29681 24140
" />
</g>
<g style="fill:#000000; fill-opacity:0.0; 
stroke:#000000; stroke-width:98.4252; stroke-opacity:1; 
stroke-linecap:round; stroke-linejoin:round;">
<path d="M28870 22741
L29027 23213
L29185 22741
" />
<path d="M29612 23168
L29589 23191
L29522 23213
L29477 23213
L29410 23191
L29365 23146
L29342 23101
L29320 23011
L29320 22943
L29342 22853
L29365 22808
L29410 22763
L29477 22741
L29522 22741
L29589 22763
L29612 22786
" />
<path d="M30084 23168
L30062 23191
L29994 23213
L29949 23213
L29882 23191
L29837 23146
L29814 23101
L29792 23011
L29792 22943
L29814 22853
L29837 22808
L29882 22763
L29949 22741
L29994 22741
L30062 22763
L30084 22786
" />
</g>
<g style="fill:#000000; fill-opacity:0.0; 
stroke:#000000; stroke-width:59.0551; stroke-opacity:1; 
stroke-linecap:round; stroke-linejoin:round;">
<path d="M28862 22065
L29050 22065
" />
<path d="M28825 22178
L28956 21784
L29087 22178
" />
<path d="M29443 22178
L29312 21990
" />
<path d="M29218 22178
L29218 21784
L29368 21784
L29406 21803
L29425 21821
L29443 21859
L29443 21915
L29425 21953
L29406 21971
L29368 21990
L29218 21990
" />
<path d="M29612 21971
L29743 21971
" />
<path d="M29799 22178
L29612 22178
L29612 21784
L29799 21784
" />
<path d="M30099 21971
L29968 21971
" />
<path d="M29968 22178
L29968 21784
L30156 21784
" />
</g>
<g style="fill:#000000; fill-opacity:0.0; 
stroke:#000000; stroke-width:98.4252; stroke-opacity:1; 
stroke-linecap:round; stroke-linejoin:round;">
<path d="M29140 20763
L29095 20741
L29027 20741
L28960 20763
L28915 20808
L28892 20853
L28870 20943
L28870 21011
L28892 21101
L28915 21146
L28960 21191
L29027 21213
L29072 21213
L29140 21191
L29162 21168
L29162 21011
L29072 21011
" />
<path d="M29365 21213
L29365 20741
L29634 21213
L29634 20741
" />
<path d="M29859 21213
L29859 20741
L29972 20741
L30039 20763
L30084 20808
L30107 20853
L30129 20943
L30129 21011
L30107 21101
L30084 21146
L30039 21191
L29972 21213
L29859 21213
" />
</g>
<g style="fill:#000000; fill-opacity:0.0; 
stroke:#000000; stroke-width:59.0551; stroke-opacity:1; 
stroke-linecap:round; stroke-linejoin:round;">
<path d="M29362 20065
L29550 20065
" />
<path d="M29325 20178
L29456 19784
L29587 20178
" />
<path d="M29793 19784
L29831 19784
L29868 19803
L29887 19821
L29906 19859
L29925 19934
L29925 20028
L29906 20103
L29887 20140
L29868 20159
L29831 20178
L29793 20178
L29756 20159
L29737 20140
L29718 20103
L29700 20028
L29700 19934
L29718 19859
L29737 19821
L29756 19803
L29793 19784
" />
<path d="M29362 19065
L29550 19065
" />
<path d="M29325 19178
L29456 18784
L29587 19178
" />
<path d="M29925 19178
L29700 19178
" />
<path d="M29812 19178
L29812 18784
L29775 18840
L29737 18878
L29700 18896
" />
<path d="M29362 18065
L29550 18065
" />
<path d="M29325 18178
L29456 17784
L29587 18178
" />
<path d="M29700 17821
L29718 17803
L29756 17784
L29850 17784
L29887 17803
L29906 17821
L29925 17859
L29925 17896
L29906 17953
L29681 18178
L29925 18178
" />
<path d="M29362 17065
L29550 17065
" />
<path d="M29325 17178
L29456 16784
L29587 17178
" />
<path d="M29681 16784
L29925 16784
L29793 16934
L29850 16934
L29887 16953
L29906 16971
L29925 17009
L29925 17103
L29906 17140
L29887 17159
L29850 17178
L29737 17178
L29700 17159
L29681 17140
" />
<path d="M29362 16065
L29550 16065
" />
<path d="M29325 16178
L29456 15784
L29587 16178
" />
<path d="M29887 15915
L29887 16178
" />
<path d="M29793 15765
L29700 16046
L29943 16046
" />
<path d="M29362 15065
L29550 15065
" />
<path d="M29325 15178
L29456 14784
L29587 15178
" />
<path d="M29906 14784
L29718 14784
L29700 14971
L29718 14953
L29756 14934
L29850 14934
L29887 14953
L29906 14971
L29925 15009
L29925 15103
L29906 15140
L29887 15159
L29850 15178
L29756 15178
L29718 15159
L29700 15140
" />
<path d="M27500 14000
L27500 29000
" />
<path d="M27500 29000
L25500 29000
" />
<path d="M25500 29000
L25500 14000
" />
<path d="M25500 14000
L27500 14000
" />
<path d="M27000 14000
L27000 14500
" />
<path d="M27000 14500
L26000 14500
" />
<path d="M26000 14500
L26000 14000
" />
<path d="M20000 24480
L20000 22500
" />
<path d="M20000 22500
L21000 22500
" />
<path d="M21000 22500
L21000 24500
" />
<path d="M21000 24500
L20000 24500
" />
<path d="M20250 24500
L20000 24250
" />
<path d="M21000 25520
L21000 27500
" />
<path d="M21000 27500
L20000 27500
" />
<path d="M20000 27500
L20000 25500
" />
<path d="M20000 25500
L21000 25500
" />
<path d="M20750 25500
L21000 25750
" />
<path d="M18900 15400
L16100 15400
" />
<path d="M16100 15400
L16100 14600
" />
<path d="M16100 14600
L18900 14600
" />
<path d="M18900 14600
L18900 15400
" />
<path d="M18900 15200
L18700 15400
" />
<path d="M27500 13500
L27900 13500
" />
<path d="M25600 13500
L25100 13500
" />
<path d="M25700 14000
L25700 13000
" />
<path d="M25800 14000
L25800 13000
" />
<path d="M25900 14000
L25900 13000
" />
<path d="M25600 14000
L25600 13000
" />
<path d="M26000 14000
L25500 13000
" />
<path d="M25500 14000
L26000 13000
" />
<path d="M26000 14000
L26000 13000
" />
<path d="M25750 14000
L25750 13000
" />
<path d="M25500 13000
L25500 14000
" />
<path d="M25500 14000
L27500 14000
" />
<path d="M27500 14000
L27500 13000
" />
<path d="M27500 13000
L25500 13000
" />
<circle cx="18000" cy="20500" r="1000" /> 
<path d="M16500 19000
L19500 19000
" />
<path d="M19500 19000
L19500 22000
" />
<path d="M19500 22000
L16500 22000
" />
<path d="M16500 19000
L16500 22000
" />
<path d="M18606 22650
L18764 22571
" />
<path d="M18764 22571
L19000 22531
" />
<path d="M19000 22531
L19197 22571
" />
<path d="M19197 22571
L19472 22728
" />
<path d="M19472 22728
L19630 22965
" />
<path d="M19630 22965
L19709 23201
" />
<path d="M19709 23201
L19709 25799
" />
<path d="M19709 25799
L19630 26075
" />
<path d="M19630 26075
L19512 26232
" />
<path d="M19512 26232
L19315 26390
" />
<path d="M19315 26390
L19079 26469
" />
<path d="M19079 26469
L18882 26469
" />
<path d="M18882 26469
L18685 26390
" />
<path d="M18685 26390
L18449 26193
" />
<path d="M18449 26193
L18331 25996
" />
<path d="M18331 25996
L18291 25799
" />
<path d="M18291 25760
L18291 23161
" />
<path d="M18291 23161
L18331 23004
" />
<path d="M18331 23004
L18449 22807
" />
<path d="M18449 22807
L18646 22610
" />
<path d="M18083 25756
L18102 25937
" />
<path d="M18102 25937
L18146 26094
" />
<path d="M18146 26094
L18232 26264
" />
<path d="M18232 26264
L18323 26378
" />
<path d="M18323 26378
L18461 26508
" />
<path d="M18461 26508
L18673 26622
" />
<path d="M18673 26622
L18909 26673
" />
<path d="M18909 26673
L19110 26673
" />
<path d="M19110 26673
L19386 26606
" />
<path d="M19386 26606
L19618 26449
" />
<path d="M19618 26449
L19764 26268
" />
<path d="M19764 26268
L19846 26102
" />
<path d="M19846 26102
L19909 25925
" />
<path d="M19909 25925
L19921 25752
" />
<path d="M19835 22862
L19748 22713
" />
<path d="M19748 22713
L19638 22587
" />
<path d="M19638 22587
L19508 22488
" />
<path d="M19508 22488
L19291 22370
" />
<path d="M19291 22370
L19106 22327
" />
<path d="M19106 22327
L18925 22319
" />
<path d="M18925 22319
L18744 22354
" />
<path d="M18744 22354
L18567 22429
" />
<path d="M18567 22429
L18382 22571
" />
<path d="M18382 22571
L18256 22709
" />
<path d="M18256 22709
L18165 22862
" />
<path d="M18165 22862
L18110 23031
" />
<path d="M18110 23031
L18083 23205
" />
<path d="M19917 25760
L19917 23220
" />
<path d="M19917 23220
L19902 23055
" />
<path d="M19902 23055
L19835 22862
" />
<path d="M18083 25760
L18083 23220
" />
<path d="M16500 23000
L16500 28000
" />
<path d="M16500 28000
L15500 28000
" />
<path d="M15500 28000
L15500 23000
" />
<path d="M16500 23000
L15500 23000
" />
<path d="M15500 23000
L15500 28000
" />
<path d="M15500 28000
L14500 28000
" />
<path d="M14500 28000
L14500 23000
" />
<path d="M15500 23000
L14500 23000
" />
<path d="M15500 14500
L15500 20500
" />
<path d="M15500 20500
L14500 20500
" />
<path d="M14500 20500
L14500 14500
" />
<path d="M15500 14500
L14500 14500
" />
<path d="M22500 14500
L22500 22500
" />
<path d="M22500 22500
L21500 22500
" />
<path d="M21500 22500
L21500 14500
" />
<path d="M22500 14500
L21500 14500
" />
<path d="M31500 11500
L31500 13500
" />
<path d="M31500 11500
L30500 11500
" />
<path d="M30500 11500
L30500 13500
" />
<path d="M30500 13500
L31500 13500
" />
<path d="M21500 24500
L21500 28500
" />
<path d="M22500 24500
L22500 28500
" />
<path d="M21500 28500
L22500 28500
" />
<path d="M21500 24500
L22500 24500
" />
<path d="M31500 28500
L31500 14500
" />
<path d="M31500 14500
L30500 14500
" />
<path d="M30500 14500
L30500 28500
" />
<path d="M31500 28500
L30500 28500
" />
<path d="M26260 11478
L28739 11478
" />
<path d="M26262 11423
L28737 11423
" />
<path d="M26267 11368
L27324 11368
" />
<path d="M27675 11368
L28732 11368
" />
<path d="M26275 11312
L27241 11312
" />
<path d="M27758 11312
L28724 11312
" />
<path d="M26285 11257
L27189 11257
" />
<path d="M27810 11257
L28714 11257
" />
<path d="M26298 11202
L27153 11202
" />
<path d="M27846 11202
L28701 11202
" />
<path d="M26313 11147
L27129 11147
" />
<path d="M27870 11147
L28686 11147
" />
<path d="M26331 11092
L27113 11092
" />
<path d="M27886 11092
L28668 11092
" />
<path d="M26352 11037
L27107 11037
" />
<path d="M27892 11037
L28647 11037
" />
<path d="M26376 10982
L27107 10982
" />
<path d="M27892 10982
L28623 10982
" />
<path d="M26404 10927
L27116 10927
" />
<path d="M27883 10927
L28595 10927
" />
<path d="M26435 10872
L27133 10872
" />
<path d="M27866 10872
L28564 10872
" />
<path d="M26470 10816
L27160 10816
" />
<path d="M27839 10816
L28529 10816
" />
<path d="M26509 10761
L27199 10761
" />
<path d="M27800 10761
L28490 10761
" />
<path d="M26553 10706
L27256 10706
" />
<path d="M27743 10706
L28446 10706
" />
<path d="M26602 10651
L27350 10651
" />
<path d="M27649 10651
L28397 10651
" />
<path d="M26659 10596
L28340 10596
" />
<path d="M26722 10541
L28277 10541
" />
<path d="M26796 10486
L28203 10486
" />
<path d="M26884 10431
L28115 10431
" />
<path d="M26993 10375
L28006 10375
" />
<path d="M27140 10320
L27859 10320
" />
<circle cx="27500" cy="11015.7" r="393.701" /> 
<circle cx="27500" cy="11507.9" r="1254.92" /> 
<path d="M25239 11521
L22760 11521
" />
<path d="M25237 11576
L22762 11576
" />
<path d="M25232 11631
L24175 11631
" />
<path d="M23824 11631
L22767 11631
" />
<path d="M25224 11687
L24258 11687
" />
<path d="M23741 11687
L22775 11687
" />
<path d="M25214 11742
L24310 11742
" />
<path d="M23689 11742
L22785 11742
" />
<path d="M25201 11797
L24346 11797
" />
<path d="M23653 11797
L22798 11797
" />
<path d="M25186 11852
L24370 11852
" />
<path d="M23629 11852
L22813 11852
" />
<path d="M25168 11907
L24386 11907
" />
<path d="M23613 11907
L22831 11907
" />
<path d="M25147 11962
L24392 11962
" />
<path d="M23607 11962
L22852 11962
" />
<path d="M25123 12017
L24392 12017
" />
<path d="M23607 12017
L22876 12017
" />
<path d="M25095 12072
L24383 12072
" />
<path d="M23616 12072
L22904 12072
" />
<path d="M25064 12127
L24366 12127
" />
<path d="M23633 12127
L22935 12127
" />
<path d="M25029 12183
L24339 12183
" />
<path d="M23660 12183
L22970 12183
" />
<path d="M24990 12238
L24300 12238
" />
<path d="M23699 12238
L23009 12238
" />
<path d="M24946 12293
L24243 12293
" />
<path d="M23756 12293
L23053 12293
" />
<path d="M24897 12348
L24149 12348
" />
<path d="M23850 12348
L23102 12348
" />
<path d="M24840 12403
L23159 12403
" />
<path d="M24777 12458
L23222 12458
" />
<path d="M24703 12513
L23296 12513
" />
<path d="M24615 12568
L23384 12568
" />
<path d="M24506 12624
L23493 12624
" />
<path d="M24359 12679
L23640 12679
" />
<circle cx="24000" cy="11984.3" r="393.701" /> 
<circle cx="24000" cy="11492.1" r="1254.92" /> 
<path d="M18280 27500
L18280 28500
" />
<path d="M19361 28384.1 A600 600 0.0 0 0 19500 28000 " />
<path d="M19499.3 27999.8 A599.256 599.256 0.0 0 0 19348 27602 " />
<path d="M18300.7 28000 A599.27 599.27 0.0 0 0 18445 28390 " />
<path d="M18439 27615.9 A600 600 0.0 0 0 18300 28000 " />
<path d="M18412.1 28349.3 A600 600 0.0 0 0 18900 28600 " />
<path d="M18900.3 28600 A600 600 0.0 0 0 19380 28360 " />
<path d="M18899.8 27400.7 A599.294 599.294 0.0 0 0 18427 27632 " />
<path d="M19373.5 27631.4 A600 600 0.0 0 0 18900 27400 " />
<path d="M18900 28250 A250 250 0.0 0 0 19150 28000 " />
<path d="M18900 28400 A400 400 0.0 0 0 19300 28000 " />
<path d="M18900 27750 A250 250 0.0 0 0 18650 28000 " />
<path d="M18900 27600 A400 400 0.0 0 0 18500 28000 " />
<path d="M18286.3 28513.2 A800 800 0.0 0 0 18900 28800 " />
<path d="M18900.4 28799 A799 799 0.0 0 0 19605 28376 " />
<path d="M18899 27201 A798.972 798.972 0.0 0 0 18290 27484 " />
<path d="M19594.2 27602.4 A800 800 0.0 0 0 18900 27200 " />
<path d="M19604.4 28379.3 A800 800 0.0 0 0 19700 28000 " />
<path d="M19699.6 28000 A799.576 799.576 0.0 0 0 19581 27581 " />
<path d="M17000 26500
L17000 24500
" />
<path d="M17000 24500
L18000 24500
" />
<path d="M18000 24500
L18000 26500
" />
<path d="M18000 26500
L17000 26500
" />
<path d="M17500 26500
L17500 27000
" />
<path d="M17500 24500
L17500 24000
" />
<path d="M20000 18000
L20000 16000
" />
<path d="M20000 16000
L21000 16000
" />
<path d="M21000 16000
L21000 18000
" />
<path d="M21000 18000
L20000 18000
" />
<path d="M20500 18000
L20500 18500
" />
<path d="M20500 16000
L20500 15500
" />
<path d="M22000 13000
L20000 13000
" />
<path d="M22000 12000
L20000 12000
" />
<path d="M22000 11000
L20000 11000
" />
<path d="M20000 13500
L20000 10000
" />
<path d="M20000 10000
L14000 10000
" />
<path d="M14000 10000
L14000 14000
" />
<path d="M20000 13500
L20000 14000
" />
<path d="M17000 10500
L17000 14000
" />
<path d="M17000 10500
L17000 10000
" />
<path d="M20000 14000
L14000 14000
" />
<path d="M26565 23515
L26565 23327
" />
<path d="M26678 23552
L26284 23421
L26678 23290
" />
<path d="M26284 23215
L26284 22990
" />
<path d="M26678 23102
L26284 23102
" />
<path d="M26678 22859
L26284 22859
L26565 22727
L26284 22596
L26678 22596
" />
<path d="M26471 22409
L26471 22278
" />
<path d="M26678 22221
L26678 22409
L26284 22409
L26284 22221
" />
<path d="M26303 21846
L26284 21884
L26284 21940
L26303 21996
L26340 22034
L26378 22053
L26453 22071
L26509 22071
L26584 22053
L26621 22034
L26659 21996
L26678 21940
L26678 21903
L26659 21846
L26640 21828
L26509 21828
L26509 21903
" />
<path d="M26565 21678
L26565 21490
" />
<path d="M26678 21715
L26284 21584
L26678 21453
" />
<path d="M26284 21359
L26284 21115
L26434 21246
L26434 21190
L26453 21153
L26471 21134
L26509 21115
L26603 21115
L26640 21134
L26659 21153
L26678 21190
L26678 21303
L26659 21340
L26640 21359
" />
<path d="M26321 20965
L26303 20946
L26284 20909
L26284 20815
L26303 20778
L26321 20759
L26359 20740
L26396 20740
L26453 20759
L26678 20984
L26678 20740
" />
<path d="M26453 20515
L26434 20553
L26415 20571
L26378 20590
L26359 20590
L26321 20571
L26303 20553
L26284 20515
L26284 20440
L26303 20403
L26321 20384
L26359 20365
L26378 20365
L26415 20384
L26434 20403
L26453 20440
L26453 20515
L26471 20553
L26490 20571
L26528 20590
L26603 20590
L26640 20571
L26659 20553
L26678 20515
L26678 20440
L26659 20403
L26640 20384
L26603 20365
L26528 20365
L26490 20384
L26471 20403
L26453 20440
" />
<path d="M26528 20197
L26528 19897
" />
<path d="M26678 19709
L26284 19709
L26284 19559
L26303 19522
L26321 19503
L26359 19484
L26415 19484
L26453 19503
L26471 19522
L26490 19559
L26490 19709
" />
<path d="M20321 23799
L20303 23781
L20284 23743
L20284 23649
L20303 23612
L20321 23593
L20359 23574
L20396 23574
L20453 23593
L20678 23818
L20678 23574
" />
<path d="M20321 23425
L20303 23406
L20284 23368
L20284 23275
L20303 23237
L20321 23218
L20359 23200
L20396 23200
L20453 23218
L20678 23443
L20678 23200
" />
<path d="M20321 26799
L20303 26781
L20284 26743
L20284 26649
L20303 26612
L20321 26593
L20359 26574
L20396 26574
L20453 26593
L20678 26818
L20678 26574
" />
<path d="M20321 26425
L20303 26406
L20284 26368
L20284 26275
L20303 26237
L20321 26218
L20359 26200
L20396 26200
L20453 26218
L20678 26443
L20678 26200
" />
<path d="M17237 15178
L17012 15178
" />
<path d="M17125 15178
L17125 14784
L17087 14840
L17050 14878
L17012 14896
" />
<path d="M17481 14784
L17518 14784
L17556 14803
L17574 14821
L17593 14859
L17612 14934
L17612 15028
L17593 15103
L17574 15140
L17556 15159
L17518 15178
L17481 15178
L17443 15159
L17425 15140
L17406 15103
L17387 15028
L17387 14934
L17406 14859
L17425 14821
L17443 14803
L17481 14784
" />
<path d="M17949 14915
L17949 15178
" />
<path d="M17856 14765
L17762 15046
L18006 15046
" />
<path d="M25656 13678
L25431 13678
" />
<path d="M25543 13678
L25543 13284
L25506 13340
L25468 13378
L25431 13396
" />
<path d="M25825 13678
L25825 13284
L26050 13678
L26050 13284
" />
<path d="M26406 13415
L26406 13678
" />
<path d="M26312 13265
L26218 13546
L26462 13546
" />
<path d="M26687 13284
L26724 13284
L26762 13303
L26781 13321
L26799 13359
L26818 13434
L26818 13528
L26799 13603
L26781 13640
L26762 13659
L26724 13678
L26687 13678
L26649 13659
L26631 13640
L26612 13603
L26593 13528
L26593 13434
L26612 13359
L26631 13321
L26649 13303
L26687 13284
" />
<path d="M27062 13284
L27099 13284
L27137 13303
L27156 13321
L27174 13359
L27193 13434
L27193 13528
L27174 13603
L27156 13640
L27137 13659
L27099 13678
L27062 13678
L27024 13659
L27006 13640
L26987 13603
L26968 13528
L26968 13434
L26987 13359
L27006 13321
L27024 13303
L27062 13284
" />
<path d="M27568 13678
L27343 13678
" />
<path d="M27456 13678
L27456 13284
L27418 13340
L27381 13378
L27343 13396
" />
<path d="M17353 20659
L17409 20678
L17503 20678
L17540 20659
L17559 20640
L17578 20603
L17578 20565
L17559 20528
L17540 20509
L17503 20490
L17428 20471
L17390 20453
L17371 20434
L17353 20396
L17353 20359
L17371 20321
L17390 20303
L17428 20284
L17521 20284
L17578 20303
" />
<path d="M17746 20678
L17746 20284
L17896 20284
L17934 20303
L17953 20321
L17971 20359
L17971 20415
L17953 20453
L17934 20471
L17896 20490
L17746 20490
" />
<path d="M18121 20659
L18178 20678
L18271 20678
L18309 20659
L18328 20640
L18346 20603
L18346 20565
L18328 20528
L18309 20509
L18271 20490
L18196 20471
L18159 20453
L18140 20434
L18121 20396
L18121 20359
L18140 20321
L18159 20303
L18196 20284
L18290 20284
L18346 20303
" />
<path d="M18459 20284
L18684 20284
" />
<path d="M18571 20678
L18571 20284
" />
<path d="M19178 24799
L19178 25024
" />
<path d="M19178 24912
L18784 24912
L18840 24949
L18878 24987
L18896 25024
" />
<path d="M18784 24462
L18784 24537
L18803 24574
L18821 24593
L18878 24631
L18953 24649
L19103 24649
L19140 24631
L19159 24612
L19178 24574
L19178 24499
L19159 24462
L19140 24443
L19103 24425
L19009 24425
L18971 24443
L18953 24462
L18934 24499
L18934 24574
L18953 24612
L18971 24631
L19009 24649
" />
<path d="M19178 24256
L18784 24256
L19065 24125
L18784 23993
L19178 23993
" />
<path d="M15803 22540
L15784 22577
L15784 22633
L15803 22690
L15840 22727
L15878 22746
L15953 22765
L16009 22765
L16084 22746
L16121 22727
L16159 22690
L16178 22633
L16178 22596
L16159 22540
L16140 22521
L16009 22521
L16009 22596
" />
<path d="M16178 22352
L15784 22352
L16178 22127
L15784 22127
" />
<path d="M16178 21940
L15784 21940
L15784 21846
L15803 21790
L15840 21752
L15878 21733
L15953 21715
L16009 21715
L16084 21733
L16121 21752
L16159 21790
L16178 21846
L16178 21940
" />
<path d="M14784 22765
L15178 22633
L14784 22502
" />
<path d="M15140 22146
L15159 22165
L15178 22221
L15178 22258
L15159 22315
L15121 22352
L15084 22371
L15009 22390
L14953 22390
L14878 22371
L14840 22352
L14803 22315
L14784 22258
L14784 22221
L14803 22165
L14821 22146
" />
<path d="M15140 21752
L15159 21771
L15178 21827
L15178 21865
L15159 21921
L15121 21958
L15084 21977
L15009 21996
L14953 21996
L14878 21977
L14840 21958
L14803 21921
L14784 21865
L14784 21827
L14803 21771
L14821 21752
" />
<path d="M18746 27178
L18559 27178
L18559 26784
" />
<path d="M18878 26971
L19009 26971
" />
<path d="M19065 27178
L18878 27178
L18878 26784
L19065 26784
" />
<path d="M19234 27178
L19234 26784
L19328 26784
L19384 26803
L19421 26840
L19440 26878
L19459 26953
L19459 27009
L19440 27084
L19421 27121
L19384 27159
L19328 27178
L19234 27178
" />
<path d="M17415 25799
L17678 25799
" />
<path d="M17265 25893
L17546 25987
L17546 25743
" />
<path d="M17284 25631
L17284 25368
L17678 25537
" />
<path d="M17284 25143
L17284 25106
L17303 25068
L17321 25050
L17359 25031
L17434 25012
L17528 25012
L17603 25031
L17640 25050
L17659 25068
L17678 25106
L17678 25143
L17659 25181
L17640 25200
L17603 25218
L17528 25237
L17434 25237
L17359 25218
L17321 25200
L17303 25181
L17284 25143
" />
<path d="M20678 17271
L20678 17496
" />
<path d="M20678 17384
L20284 17384
L20340 17421
L20378 17459
L20396 17496
" />
<path d="M20284 17028
L20284 16990
L20303 16953
L20321 16934
L20359 16915
L20434 16896
L20528 16896
L20603 16915
L20640 16934
L20659 16953
L20678 16990
L20678 17028
L20659 17065
L20640 17084
L20603 17103
L20528 17121
L20434 17121
L20359 17103
L20321 17084
L20303 17065
L20284 17028
" />
<path d="M20678 16728
L20284 16728
" />
<path d="M20678 16503
L20453 16671
" />
<path d="M20284 16503
L20509 16728
" />
<path d="M17584 12643
L17584 12381
L17978 12549
" />
<path d="M17753 12174
L17734 12212
L17715 12231
L17678 12249
L17659 12249
L17621 12231
L17603 12212
L17584 12174
L17584 12099
L17603 12062
L17621 12043
L17659 12024
L17678 12024
L17715 12043
L17734 12062
L17753 12099
L17753 12174
L17771 12212
L17790 12231
L17828 12249
L17903 12249
L17940 12231
L17959 12212
L17978 12174
L17978 12099
L17959 12062
L17940 12043
L17903 12024
L17828 12024
L17790 12043
L17771 12062
L17753 12099
" />
<path d="M17584 11781
L17584 11743
L17603 11706
L17621 11687
L17659 11668
L17734 11650
L17828 11650
L17903 11668
L17940 11687
L17959 11706
L17978 11743
L17978 11781
L17959 11818
L17940 11837
L17903 11856
L17828 11875
L17734 11875
L17659 11856
L17621 11837
L17603 11818
L17584 11781
" />
<path d="M17584 11293
L17584 11481
L17771 11500
L17753 11481
L17734 11443
L17734 11350
L17753 11312
L17771 11293
L17809 11275
L17903 11275
L17940 11293
L17959 11312
L17978 11350
L17978 11443
L17959 11481
L17940 11500
" />
</g> 
</svg>
