<?xml version="1.0" standalone="no"?>
 <!DOCTYPE svg PUBLIC "-//W3C//DTD SVG 1.1//EN" 
 "http://www.w3.org/Graphics/SVG/1.1/DTD/svg11.dtd"> 
<svg xmlns="http://www.w3.org/2000/svg" version="1.1" 
    width="29.7002cm" height="21.0007cm" viewBox="0 0 116930 82680 ">
<title>SVG Picture created as cseduinop-F_SilkS.svg date 2015/04/17 10:44:25 </title>
  <desc>Picture generated by PCBNEW </desc>
<g style="fill:#000000; fill-opacity:1;stroke:#000000; stroke-opacity:1;
stroke-linecap:round; stroke-linejoin:round; "
 transform="translate(0 0) scale(1 1)">
</g>
<g style="fill:#000000; fill-opacity:0.0; 
stroke:#000000; stroke-width:59.0551; stroke-opacity:1; 
stroke-linecap:round; stroke-linejoin:round;">
<path d="M30568 9981
L30700 10374
L30831 9981
" />
<path d="M30962 10374
L30962 9981
" />
<path d="M31149 10374
L31149 9981
L31374 10374
L31374 9981
" />
<path d="M30700 12637
L30662 12619
L30606 12619
L30550 12637
L30512 12675
L30493 12712
L30475 12787
L30475 12844
L30493 12919
L30512 12956
L30550 12994
L30606 13012
L30643 13012
L30700 12994
L30718 12975
L30718 12844
L30643 12844
" />
<path d="M30887 13012
L30887 12619
L31112 13012
L31112 12619
" />
<path d="M31299 13012
L31299 12619
L31393 12619
L31449 12637
L31487 12675
L31506 12712
L31524 12787
L31524 12844
L31506 12919
L31487 12956
L31449 12994
L31393 13012
L31299 13012
" />
<path d="M15803 30024
L15784 30061
L15784 30118
L15803 30174
L15840 30211
L15878 30230
L15953 30249
L16009 30249
L16084 30230
L16121 30211
L16159 30174
L16178 30118
L16178 30080
L16159 30024
L16140 30005
L16009 30005
L16009 30080
" />
<path d="M16178 29836
L15784 29836
L16178 29611
L15784 29611
" />
<path d="M16178 29424
L15784 29424
L15784 29330
L15803 29274
L15840 29236
L15878 29218
L15953 29199
L16009 29199
L16084 29218
L16121 29236
L16159 29274
L16178 29330
L16178 29424
" />
<path d="M14784 30249
L15178 30118
L14784 29986
" />
<path d="M15140 29630
L15159 29649
L15178 29705
L15178 29743
L15159 29799
L15121 29836
L15084 29855
L15009 29874
L14953 29874
L14878 29855
L14840 29836
L14803 29799
L14784 29743
L14784 29705
L14803 29649
L14821 29630
" />
<path d="M15140 29236
L15159 29255
L15178 29311
L15178 29349
L15159 29405
L15121 29443
L15084 29461
L15009 29480
L14953 29480
L14878 29461
L14840 29443
L14803 29405
L14784 29349
L14784 29311
L14803 29255
L14821 29236
" />
<path d="M13479 20803
L13442 20784
L13385 20784
L13329 20803
L13292 20840
L13273 20878
L13254 20953
L13254 21009
L13273 21084
L13292 21121
L13329 21159
L13385 21178
L13423 21178
L13479 21159
L13498 21140
L13498 21009
L13423 21009
" />
<path d="M13667 21178
L13667 20784
L13892 21178
L13892 20784
" />
<path d="M14079 21178
L14079 20784
L14173 20784
L14229 20803
L14266 20840
L14285 20878
L14304 20953
L14304 21009
L14285 21084
L14266 21121
L14229 21159
L14173 21178
L14079 21178
" />
<path d="M13254 18784
L13385 19178
L13517 18784
" />
<path d="M13873 19140
L13854 19159
L13798 19178
L13760 19178
L13704 19159
L13667 19121
L13648 19084
L13629 19009
L13629 18953
L13648 18878
L13667 18840
L13704 18803
L13760 18784
L13798 18784
L13854 18803
L13873 18821
" />
<path d="M14266 19140
L14248 19159
L14191 19178
L14154 19178
L14098 19159
L14060 19121
L14041 19084
L14023 19009
L14023 18953
L14041 18878
L14060 18840
L14098 18803
L14154 18784
L14191 18784
L14248 18803
L14266 18821
" />
<path d="M13517 18178
L13385 17990
" />
<path d="M13292 18178
L13292 17784
L13442 17784
L13479 17803
L13498 17821
L13517 17859
L13517 17915
L13498 17953
L13479 17971
L13442 17990
L13292 17990
" />
<path d="M13648 17784
L13910 18178
" />
<path d="M13910 17784
L13648 18178
" />
<path d="M14060 18178
L14060 17784
L14154 17784
L14210 17803
L14248 17840
L14266 17878
L14285 17953
L14285 18009
L14266 18084
L14248 18121
L14210 18159
L14154 18178
L14060 18178
" />
<path d="M13282 16784
L13507 16784
" />
<path d="M13395 17178
L13395 16784
" />
<path d="M13601 16784
L13863 17178
" />
<path d="M13863 16784
L13601 17178
" />
<path d="M14013 17178
L14013 16784
L14107 16784
L14163 16803
L14201 16840
L14220 16878
L14238 16953
L14238 17009
L14220 17084
L14201 17121
L14163 17159
L14107 17178
L14013 17178
" />
<path d="M13329 16178
L13329 15784
L13423 15784
L13479 15803
L13517 15840
L13535 15878
L13554 15953
L13554 16009
L13535 16084
L13517 16121
L13479 16159
L13423 16178
L13329 16178
" />
<path d="M13667 15784
L13892 15784
" />
<path d="M13779 16178
L13779 15784
" />
<path d="M14248 16178
L14116 15990
" />
<path d="M14023 16178
L14023 15784
L14173 15784
L14210 15803
L14229 15821
L14248 15859
L14248 15915
L14229 15953
L14210 15971
L14173 15990
L14023 15990
" />
</g>
<g style="fill:#000000; fill-opacity:0.0; 
stroke:#000000; stroke-width:118.11; stroke-opacity:1; 
stroke-linecap:round; stroke-linejoin:round;">
<path d="M23064 29267
L23064 28676
L23204 28676
L23289 28704
L23345 28760
L23373 28817
L23401 28929
L23401 29014
L23373 29126
L23345 29182
L23289 29239
L23204 29267
L23064 29267
" />
<path d="M23739 28929
L23682 28901
L23654 28873
L23626 28817
L23626 28789
L23654 28732
L23682 28704
L23739 28676
L23851 28676
L23907 28704
L23935 28732
L23964 28789
L23964 28817
L23935 28873
L23907 28901
L23851 28929
L23739 28929
L23682 28957
L23654 28985
L23626 29042
L23626 29154
L23654 29210
L23682 29239
L23739 29267
L23851 29267
L23907 29239
L23935 29210
L23964 29154
L23964 29042
L23935 28985
L23907 28957
L23851 28929
" />
<path d="M23064 28267
L23064 27676
L23204 27676
L23289 27704
L23345 27760
L23373 27817
L23401 27929
L23401 28014
L23373 28126
L23345 28182
L23289 28239
L23204 28267
L23064 28267
" />
<path d="M23598 27676
L23992 27676
L23739 28267
" />
<path d="M23030 27267
L23104 26676
L23245 26676
L23325 26704
L23375 26760
L23396 26817
L23410 26929
L23399 27014
L23357 27126
L23322 27182
L23259 27239
L23171 27267
L23030 27267
" />
<path d="M23948 26676
L23835 26676
L23775 26704
L23744 26732
L23677 26817
L23635 26929
L23607 27154
L23628 27210
L23652 27239
L23705 27267
L23818 27267
L23877 27239
L23909 27210
L23944 27154
L23962 27014
L23941 26957
L23916 26929
L23863 26901
L23751 26901
L23691 26929
L23659 26957
L23624 27014
" />
<path d="M23030 26267
L23104 25676
L23245 25676
L23325 25704
L23375 25760
L23396 25817
L23410 25929
L23399 26014
L23357 26126
L23322 26182
L23259 26239
L23171 26267
L23030 26267
" />
<path d="M23976 25676
L23695 25676
L23631 25957
L23663 25929
L23723 25901
L23863 25901
L23916 25929
L23941 25957
L23962 26014
L23944 26154
L23909 26210
L23877 26239
L23818 26267
L23677 26267
L23624 26239
L23600 26210
" />
<path d="M23050 22704
L22993 22676
L22909 22676
L22825 22704
L22768 22760
L22740 22817
L22712 22929
L22712 23014
L22740 23126
L22768 23182
L22825 23239
L22909 23267
L22965 23267
L23050 23239
L23078 23210
L23078 23014
L22965 23014
" />
<path d="M23331 23267
L23331 22676
L23668 23267
L23668 22676
" />
<path d="M23949 23267
L23949 22676
L24090 22676
L24174 22704
L24231 22760
L24259 22817
L24287 22929
L24287 23014
L24259 23126
L24231 23182
L24174 23239
L24090 23267
L23949 23267
" />
<path d="M22712 21676
L22909 22267
L23106 21676
" />
<path d="M23640 22210
L23612 22239
L23528 22267
L23471 22267
L23387 22239
L23331 22182
L23303 22126
L23275 22014
L23275 21929
L23303 21817
L23331 21760
L23387 21704
L23471 21676
L23528 21676
L23612 21704
L23640 21732
" />
<path d="M24231 22210
L24203 22239
L24118 22267
L24062 22267
L23978 22239
L23921 22182
L23893 22126
L23865 22014
L23865 21929
L23893 21817
L23921 21760
L23978 21704
L24062 21676
L24118 21676
L24203 21704
L24231 21732
" />
<path d="M23064 21267
L23064 20676
L23204 20676
L23289 20704
L23345 20760
L23373 20817
L23401 20929
L23401 21014
L23373 21126
L23345 21182
L23289 21239
L23204 21267
L23064 21267
" />
<path d="M23907 20873
L23907 21267
" />
<path d="M23767 20648
L23626 21070
L23992 21070
" />
<path d="M23030 20267
L23104 19676
L23245 19676
L23325 19704
L23375 19760
L23396 19817
L23410 19929
L23399 20014
L23357 20126
L23322 20182
L23259 20239
L23171 20267
L23030 20267
" />
<path d="M23638 19676
L24004 19676
L23779 19901
L23863 19901
L23916 19929
L23941 19957
L23962 20014
L23944 20154
L23909 20210
L23877 20239
L23818 20267
L23649 20267
L23596 20239
L23572 20210
" />
<path d="M23064 19267
L23064 18676
L23204 18676
L23289 18704
L23345 18760
L23373 18817
L23401 18929
L23401 19014
L23373 19126
L23345 19182
L23289 19239
L23204 19267
L23064 19267
" />
<path d="M23626 18732
L23654 18704
L23710 18676
L23851 18676
L23907 18704
L23935 18732
L23964 18789
L23964 18845
L23935 18929
L23598 19267
L23964 19267
" />
<path d="M22754 17676
L23092 17676
" />
<path d="M22923 18267
L22923 17676
" />
<path d="M23232 17676
L23626 18267
" />
<path d="M23626 17676
L23232 18267
" />
<path d="M23851 18267
L23851 17676
L23992 17676
L24076 17704
L24132 17760
L24160 17817
L24188 17929
L24188 18014
L24160 18126
L24132 18182
L24076 18239
L23992 18267
L23851 18267
" />
<path d="M23106 17267
L22909 16985
" />
<path d="M22768 17267
L22768 16676
L22993 16676
L23050 16704
L23078 16732
L23106 16789
L23106 16873
L23078 16929
L23050 16957
L22993 16985
L22768 16985
" />
<path d="M23303 16676
L23696 17267
" />
<path d="M23696 16676
L23303 17267
" />
<path d="M23921 17267
L23921 16676
L24062 16676
L24146 16704
L24203 16760
L24231 16817
L24259 16929
L24259 17014
L24231 17126
L24203 17182
L24146 17239
L24062 17267
L23921 17267
" />
<path d="M23176 16267
L22979 15985
" />
<path d="M22839 16267
L22839 15676
L23064 15676
L23120 15704
L23148 15732
L23176 15789
L23176 15873
L23148 15929
L23120 15957
L23064 15985
L22839 15985
" />
<path d="M23401 16239
L23485 16267
L23626 16267
L23682 16239
L23710 16210
L23739 16154
L23739 16098
L23710 16042
L23682 16014
L23626 15985
L23514 15957
L23457 15929
L23429 15901
L23401 15845
L23401 15789
L23429 15732
L23457 15704
L23514 15676
L23654 15676
L23739 15704
" />
<path d="M23907 15676
L24245 15676
" />
<path d="M24076 16267
L24076 15676
" />
<path d="M29030 29267
L29104 28676
L29245 28676
L29325 28704
L29375 28760
L29396 28817
L29410 28929
L29399 29014
L29357 29126
L29322 29182
L29259 29239
L29171 29267
L29030 29267
" />
<path d="M29649 29267
L29761 29267
L29821 29239
L29853 29210
L29920 29126
L29962 29014
L29990 28789
L29969 28732
L29944 28704
L29891 28676
L29779 28676
L29719 28704
L29688 28732
L29652 28789
L29635 28929
L29656 28985
L29681 29014
L29733 29042
L29846 29042
L29906 29014
L29937 28985
L29972 28929
" />
<path d="M28749 28267
L28823 27676
L28963 27676
L29044 27704
L29093 27760
L29115 27817
L29129 27929
L29118 28014
L29076 28126
L29041 28182
L28977 28239
L28890 28267
L28749 28267
" />
<path d="M29649 28267
L29311 28267
" />
<path d="M29480 28267
L29554 27676
L29487 27760
L29424 27817
L29364 27845
" />
<path d="M30088 27676
L30145 27676
L30197 27704
L30222 27732
L30243 27789
L30257 27901
L30239 28042
L30197 28154
L30162 28210
L30130 28239
L30071 28267
L30014 28267
L29962 28239
L29937 28210
L29916 28154
L29902 28042
L29920 27901
L29962 27789
L29997 27732
L30029 27704
L30088 27676
" />
<path d="M28749 27267
L28823 26676
L28963 26676
L29044 26704
L29093 26760
L29115 26817
L29129 26929
L29118 27014
L29076 27126
L29041 27182
L28977 27239
L28890 27267
L28749 27267
" />
<path d="M29649 27267
L29311 27267
" />
<path d="M29480 27267
L29554 26676
L29487 26760
L29424 26817
L29364 26845
" />
<path d="M30211 27267
L29874 27267
" />
<path d="M30043 27267
L30116 26676
L30050 26760
L29986 26817
L29927 26845
" />
<path d="M28782 26267
L28782 25676
L28923 25676
L29007 25704
L29064 25760
L29092 25817
L29120 25929
L29120 26014
L29092 26126
L29064 26182
L29007 26239
L28923 26267
L28782 26267
" />
<path d="M29682 26267
L29345 26267
" />
<path d="M29514 26267
L29514 25676
L29457 25760
L29401 25817
L29345 25845
" />
<path d="M29907 25732
L29935 25704
L29992 25676
L30132 25676
L30188 25704
L30217 25732
L30245 25789
L30245 25845
L30217 25929
L29879 26267
L30245 26267
" />
<path d="M28782 25267
L28782 24676
L28923 24676
L29007 24704
L29064 24760
L29092 24817
L29120 24929
L29120 25014
L29092 25126
L29064 25182
L29007 25239
L28923 25267
L28782 25267
" />
<path d="M29682 25267
L29345 25267
" />
<path d="M29514 25267
L29514 24676
L29457 24760
L29401 24817
L29345 24845
" />
<path d="M29879 24676
L30245 24676
L30048 24901
L30132 24901
L30188 24929
L30217 24957
L30245 25014
L30245 25154
L30217 25210
L30188 25239
L30132 25267
L29964 25267
L29907 25239
L29879 25210
" />
<path d="M28712 23676
L28909 24267
L29106 23676
" />
<path d="M29640 24210
L29612 24239
L29528 24267
L29471 24267
L29387 24239
L29331 24182
L29303 24126
L29275 24014
L29275 23929
L29303 23817
L29331 23760
L29387 23704
L29471 23676
L29528 23676
L29612 23704
L29640 23732
" />
<path d="M30231 24210
L30203 24239
L30118 24267
L30062 24267
L29978 24239
L29921 24182
L29893 24126
L29865 24014
L29865 23929
L29893 23817
L29921 23760
L29978 23704
L30062 23676
L30118 23676
L30203 23704
L30231 23732
" />
<path d="M28543 23098
L28825 23098
" />
<path d="M28487 23267
L28684 22676
L28881 23267
" />
<path d="M29415 23267
L29218 22985
" />
<path d="M29078 23267
L29078 22676
L29303 22676
L29359 22704
L29387 22732
L29415 22789
L29415 22873
L29387 22929
L29359 22957
L29303 22985
L29078 22985
" />
<path d="M29668 22957
L29865 22957
" />
<path d="M29949 23267
L29668 23267
L29668 22676
L29949 22676
" />
<path d="M30399 22957
L30203 22957
" />
<path d="M30203 23267
L30203 22676
L30484 22676
" />
<path d="M29050 21704
L28993 21676
L28909 21676
L28825 21704
L28768 21760
L28740 21817
L28712 21929
L28712 22014
L28740 22126
L28768 22182
L28825 22239
L28909 22267
L28965 22267
L29050 22239
L29078 22210
L29078 22014
L28965 22014
" />
<path d="M29331 22267
L29331 21676
L29668 22267
L29668 21676
" />
<path d="M29949 22267
L29949 21676
L30090 21676
L30174 21704
L30231 21760
L30259 21817
L30287 21929
L30287 22014
L30259 22126
L30231 22182
L30174 22239
L30090 22267
L29949 22267
" />
<path d="M29078 21098
L29359 21098
" />
<path d="M29021 21267
L29218 20676
L29415 21267
" />
<path d="M29724 20676
L29781 20676
L29837 20704
L29865 20732
L29893 20789
L29921 20901
L29921 21042
L29893 21154
L29865 21210
L29837 21239
L29781 21267
L29724 21267
L29668 21239
L29640 21210
L29612 21154
L29584 21042
L29584 20901
L29612 20789
L29640 20732
L29668 20704
L29724 20676
" />
<path d="M29078 20098
L29359 20098
" />
<path d="M29021 20267
L29218 19676
L29415 20267
" />
<path d="M29921 20267
L29584 20267
" />
<path d="M29753 20267
L29753 19676
L29696 19760
L29640 19817
L29584 19845
" />
<path d="M29078 19098
L29359 19098
" />
<path d="M29021 19267
L29218 18676
L29415 19267
" />
<path d="M29584 18732
L29612 18704
L29668 18676
L29809 18676
L29865 18704
L29893 18732
L29921 18789
L29921 18845
L29893 18929
L29556 19267
L29921 19267
" />
<path d="M29078 18098
L29359 18098
" />
<path d="M29021 18267
L29218 17676
L29415 18267
" />
<path d="M29556 17676
L29921 17676
L29724 17901
L29809 17901
L29865 17929
L29893 17957
L29921 18014
L29921 18154
L29893 18210
L29865 18239
L29809 18267
L29640 18267
L29584 18239
L29556 18210
" />
<path d="M29078 17098
L29359 17098
" />
<path d="M29021 17267
L29218 16676
L29415 17267
" />
<path d="M29865 16873
L29865 17267
" />
<path d="M29724 16648
L29584 17070
L29949 17070
" />
<path d="M29078 16098
L29359 16098
" />
<path d="M29021 16267
L29218 15676
L29415 16267
" />
<path d="M29893 15676
L29612 15676
L29584 15957
L29612 15929
L29668 15901
L29809 15901
L29865 15929
L29893 15957
L29921 16014
L29921 16154
L29893 16210
L29865 16239
L29809 16267
L29668 16267
L29612 16239
L29584 16210
" />
</g>
<g style="fill:#000000; fill-opacity:0.0; 
stroke:#000000; stroke-width:59.0551; stroke-opacity:1; 
stroke-linecap:round; stroke-linejoin:round;">
<path d="M16500 24000
L16500 29000
" />
<path d="M16500 29000
L15500 29000
" />
<path d="M15500 29000
L15500 24000
" />
<path d="M16500 24000
L15500 24000
" />
<path d="M15500 24000
L15500 29000
" />
<path d="M15500 29000
L14500 29000
" />
<path d="M14500 29000
L14500 24000
" />
<path d="M15500 24000
L14500 24000
" />
<path d="M15500 15500
L15500 21500
" />
<path d="M15500 21500
L14500 21500
" />
<path d="M14500 21500
L14500 15500
" />
<path d="M15500 15500
L14500 15500
" />
<path d="M22500 15500
L22500 23500
" />
<path d="M22500 23500
L21500 23500
" />
<path d="M21500 23500
L21500 15500
" />
<path d="M22500 15500
L21500 15500
" />
<path d="M31500 10500
L31500 12500
" />
<path d="M31500 10500
L30500 10500
" />
<path d="M30500 10500
L30500 12500
" />
<path d="M30500 12500
L31500 12500
" />
<path d="M21500 25500
L21500 29500
" />
<path d="M22500 25500
L22500 29500
" />
<path d="M21500 29500
L22500 29500
" />
<path d="M21500 25500
L22500 25500
" />
<path d="M31500 29500
L31500 15500
" />
<path d="M31500 15500
L30500 15500
" />
<path d="M30500 15500
L30500 29500
" />
<path d="M31500 29500
L30500 29500
" />
<path d="M25760 12478
L28239 12478
" />
<path d="M25762 12423
L28237 12423
" />
<path d="M25767 12368
L26824 12368
" />
<path d="M27175 12368
L28232 12368
" />
<path d="M25775 12312
L26741 12312
" />
<path d="M27258 12312
L28224 12312
" />
<path d="M25785 12257
L26689 12257
" />
<path d="M27310 12257
L28214 12257
" />
<path d="M25798 12202
L26653 12202
" />
<path d="M27346 12202
L28201 12202
" />
<path d="M25813 12147
L26629 12147
" />
<path d="M27370 12147
L28186 12147
" />
<path d="M25831 12092
L26613 12092
" />
<path d="M27386 12092
L28168 12092
" />
<path d="M25852 12037
L26607 12037
" />
<path d="M27392 12037
L28147 12037
" />
<path d="M25876 11982
L26607 11982
" />
<path d="M27392 11982
L28123 11982
" />
<path d="M25904 11927
L26616 11927
" />
<path d="M27383 11927
L28095 11927
" />
<path d="M25935 11872
L26633 11872
" />
<path d="M27366 11872
L28064 11872
" />
<path d="M25970 11816
L26660 11816
" />
<path d="M27339 11816
L28029 11816
" />
<path d="M26009 11761
L26699 11761
" />
<path d="M27300 11761
L27990 11761
" />
<path d="M26053 11706
L26756 11706
" />
<path d="M27243 11706
L27946 11706
" />
<path d="M26102 11651
L26850 11651
" />
<path d="M27149 11651
L27897 11651
" />
<path d="M26159 11596
L27840 11596
" />
<path d="M26222 11541
L27777 11541
" />
<path d="M26296 11486
L27703 11486
" />
<path d="M26384 11431
L27615 11431
" />
<path d="M26493 11375
L27506 11375
" />
<path d="M26640 11320
L27359 11320
" />
<circle cx="27000" cy="12015.7" r="393.701" /> 
<circle cx="27000" cy="12507.9" r="1254.92" /> 
<path d="M25239 11521
L22760 11521
" />
<path d="M25237 11576
L22762 11576
" />
<path d="M25232 11631
L24175 11631
" />
<path d="M23824 11631
L22767 11631
" />
<path d="M25224 11687
L24258 11687
" />
<path d="M23741 11687
L22775 11687
" />
<path d="M25214 11742
L24310 11742
" />
<path d="M23689 11742
L22785 11742
" />
<path d="M25201 11797
L24346 11797
" />
<path d="M23653 11797
L22798 11797
" />
<path d="M25186 11852
L24370 11852
" />
<path d="M23629 11852
L22813 11852
" />
<path d="M25168 11907
L24386 11907
" />
<path d="M23613 11907
L22831 11907
" />
<path d="M25147 11962
L24392 11962
" />
<path d="M23607 11962
L22852 11962
" />
<path d="M25123 12017
L24392 12017
" />
<path d="M23607 12017
L22876 12017
" />
<path d="M25095 12072
L24383 12072
" />
<path d="M23616 12072
L22904 12072
" />
<path d="M25064 12127
L24366 12127
" />
<path d="M23633 12127
L22935 12127
" />
<path d="M25029 12183
L24339 12183
" />
<path d="M23660 12183
L22970 12183
" />
<path d="M24990 12238
L24300 12238
" />
<path d="M23699 12238
L23009 12238
" />
<path d="M24946 12293
L24243 12293
" />
<path d="M23756 12293
L23053 12293
" />
<path d="M24897 12348
L24149 12348
" />
<path d="M23850 12348
L23102 12348
" />
<path d="M24840 12403
L23159 12403
" />
<path d="M24777 12458
L23222 12458
" />
<path d="M24703 12513
L23296 12513
" />
<path d="M24615 12568
L23384 12568
" />
<path d="M24506 12624
L23493 12624
" />
<path d="M24359 12679
L23640 12679
" />
<circle cx="24000" cy="11984.3" r="393.701" /> 
<circle cx="24000" cy="11492.1" r="1254.92" /> 
<path d="M21000 26520
L21000 28500
" />
<path d="M21000 28500
L20000 28500
" />
<path d="M20000 28500
L20000 26500
" />
<path d="M20000 26500
L21000 26500
" />
<path d="M20750 26500
L21000 26750
" />
<path d="M20000 25480
L20000 23500
" />
<path d="M20000 23500
L21000 23500
" />
<path d="M21000 23500
L21000 25500
" />
<path d="M21000 25500
L20000 25500
" />
<path d="M20250 25500
L20000 25250
" />
<path d="M19500 28780
L18500 28780
" />
<path d="M18615.9 29861 A600 600 0.0 0 0 19000 30000 " />
<path d="M19000.2 29999.3 A599.256 599.256 0.0 0 0 19398 29848 " />
<path d="M19000 28800.7 A599.27 599.27 0.0 0 0 18610 28945 " />
<path d="M19384.1 28939 A600 600 0.0 0 0 19000 28800 " />
<path d="M18650.7 28912.1 A600 600 0.0 0 0 18400 29400 " />
<path d="M18400 29400.3 A600 600 0.0 0 0 18640 29880 " />
<path d="M19599.3 29399.8 A599.294 599.294 0.0 0 0 19368 28927 " />
<path d="M19368.6 29873.5 A600 600 0.0 0 0 19600 29400 " />
<path d="M18750 29400 A250 250 0.0 0 0 19000 29650 " />
<path d="M18600 29400 A400 400 0.0 0 0 19000 29800 " />
<path d="M19250 29400 A250 250 0.0 0 0 19000 29150 " />
<path d="M19400 29400 A400 400 0.0 0 0 19000 29000 " />
<path d="M18486.8 28786.3 A800 800 0.0 0 0 18200 29400 " />
<path d="M18201 29400.4 A799 799 0.0 0 0 18624 30105 " />
<path d="M19799 29399 A798.972 798.972 0.0 0 0 19516 28790 " />
<path d="M19397.6 30094.2 A800 800 0.0 0 0 19800 29400 " />
<path d="M18620.7 30104.4 A800 800 0.0 0 0 19000 30200 " />
<path d="M19000 30199.6 A799.576 799.576 0.0 0 0 19419 30081 " />
<path d="M27500 15000
L27500 30000
" />
<path d="M27500 30000
L25500 30000
" />
<path d="M25500 30000
L25500 15000
" />
<path d="M25500 15000
L27500 15000
" />
<path d="M27000 15000
L27000 15500
" />
<path d="M27000 15500
L26000 15500
" />
<path d="M26000 15500
L26000 15000
" />
<path d="M17000 27500
L17000 25500
" />
<path d="M17000 25500
L18000 25500
" />
<path d="M18000 25500
L18000 27500
" />
<path d="M18000 27500
L17000 27500
" />
<path d="M17500 27500
L17500 28000
" />
<path d="M17500 25500
L17500 25000
" />
<path d="M20000 19000
L20000 17000
" />
<path d="M20000 17000
L21000 17000
" />
<path d="M21000 17000
L21000 19000
" />
<path d="M21000 19000
L20000 19000
" />
<path d="M20500 19000
L20500 19500
" />
<path d="M20500 17000
L20500 16500
" />
<circle cx="18000" cy="21500" r="1000" /> 
<path d="M16500 20000
L19500 20000
" />
<path d="M19500 20000
L19500 23000
" />
<path d="M19500 23000
L16500 23000
" />
<path d="M16500 20000
L16500 23000
" />
<path d="M22000 13000
L20000 13000
" />
<path d="M22000 12000
L20000 12000
" />
<path d="M22000 11000
L20000 11000
" />
<path d="M20000 13500
L20000 10000
" />
<path d="M20000 10000
L14000 10000
" />
<path d="M14000 10000
L14000 14000
" />
<path d="M20000 13500
L20000 14000
" />
<path d="M17000 10500
L17000 14000
" />
<path d="M17000 10500
L17000 10000
" />
<path d="M20000 14000
L14000 14000
" />
<path d="M18606 24150
L18764 24071
" />
<path d="M18764 24071
L19000 24031
" />
<path d="M19000 24031
L19197 24071
" />
<path d="M19197 24071
L19472 24228
" />
<path d="M19472 24228
L19630 24465
" />
<path d="M19630 24465
L19709 24701
" />
<path d="M19709 24701
L19709 27299
" />
<path d="M19709 27299
L19630 27575
" />
<path d="M19630 27575
L19512 27732
" />
<path d="M19512 27732
L19315 27890
" />
<path d="M19315 27890
L19079 27969
" />
<path d="M19079 27969
L18882 27969
" />
<path d="M18882 27969
L18685 27890
" />
<path d="M18685 27890
L18449 27693
" />
<path d="M18449 27693
L18331 27496
" />
<path d="M18331 27496
L18291 27299
" />
<path d="M18291 27260
L18291 24661
" />
<path d="M18291 24661
L18331 24504
" />
<path d="M18331 24504
L18449 24307
" />
<path d="M18449 24307
L18646 24110
" />
<path d="M18083 27256
L18102 27437
" />
<path d="M18102 27437
L18146 27594
" />
<path d="M18146 27594
L18232 27764
" />
<path d="M18232 27764
L18323 27878
" />
<path d="M18323 27878
L18461 28008
" />
<path d="M18461 28008
L18673 28122
" />
<path d="M18673 28122
L18909 28173
" />
<path d="M18909 28173
L19110 28173
" />
<path d="M19110 28173
L19386 28106
" />
<path d="M19386 28106
L19618 27949
" />
<path d="M19618 27949
L19764 27768
" />
<path d="M19764 27768
L19846 27602
" />
<path d="M19846 27602
L19909 27425
" />
<path d="M19909 27425
L19921 27252
" />
<path d="M19835 24362
L19748 24213
" />
<path d="M19748 24213
L19638 24087
" />
<path d="M19638 24087
L19508 23988
" />
<path d="M19508 23988
L19291 23870
" />
<path d="M19291 23870
L19106 23827
" />
<path d="M19106 23827
L18925 23819
" />
<path d="M18925 23819
L18744 23854
" />
<path d="M18744 23854
L18567 23929
" />
<path d="M18567 23929
L18382 24071
" />
<path d="M18382 24071
L18256 24209
" />
<path d="M18256 24209
L18165 24362
" />
<path d="M18165 24362
L18110 24531
" />
<path d="M18110 24531
L18083 24705
" />
<path d="M19917 27260
L19917 24720
" />
<path d="M19917 24720
L19902 24555
" />
<path d="M19902 24555
L19835 24362
" />
<path d="M18083 27260
L18083 24720
" />
<path d="M18900 16400
L16100 16400
" />
<path d="M16100 16400
L16100 15600
" />
<path d="M16100 15600
L18900 15600
" />
<path d="M18900 15600
L18900 16400
" />
<path d="M18900 16200
L18700 16400
" />
<path d="M29500 12000
L29500 11600
" />
<path d="M29500 13900
L29500 14400
" />
<path d="M30000 13800
L29000 13800
" />
<path d="M30000 13700
L29000 13700
" />
<path d="M30000 13600
L29000 13600
" />
<path d="M30000 13900
L29000 13900
" />
<path d="M30000 13500
L29000 14000
" />
<path d="M30000 14000
L29000 13500
" />
<path d="M30000 13500
L29000 13500
" />
<path d="M30000 13750
L29000 13750
" />
<path d="M29000 14000
L30000 14000
" />
<path d="M30000 14000
L30000 12000
" />
<path d="M30000 12000
L29000 12000
" />
<path d="M29000 12000
L29000 14000
" />
<path d="M15803 23540
L15784 23577
L15784 23633
L15803 23690
L15840 23727
L15878 23746
L15953 23765
L16009 23765
L16084 23746
L16121 23727
L16159 23690
L16178 23633
L16178 23596
L16159 23540
L16140 23521
L16009 23521
L16009 23596
" />
<path d="M16178 23352
L15784 23352
L16178 23127
L15784 23127
" />
<path d="M16178 22940
L15784 22940
L15784 22846
L15803 22790
L15840 22752
L15878 22733
L15953 22715
L16009 22715
L16084 22733
L16121 22752
L16159 22790
L16178 22846
L16178 22940
" />
<path d="M14784 23765
L15178 23633
L14784 23502
" />
<path d="M15140 23146
L15159 23165
L15178 23221
L15178 23258
L15159 23315
L15121 23352
L15084 23371
L15009 23390
L14953 23390
L14878 23371
L14840 23352
L14803 23315
L14784 23258
L14784 23221
L14803 23165
L14821 23146
" />
<path d="M15140 22752
L15159 22771
L15178 22827
L15178 22865
L15159 22921
L15121 22958
L15084 22977
L15009 22996
L14953 22996
L14878 22977
L14840 22958
L14803 22921
L14784 22865
L14784 22827
L14803 22771
L14821 22752
" />
<path d="M26390 11012
L26165 11012
" />
<path d="M26278 11012
L26278 10619
L26240 10675
L26203 10712
L26165 10731
" />
<path d="M26634 10619
L26671 10619
L26709 10637
L26728 10656
L26746 10694
L26765 10769
L26765 10862
L26746 10937
L26728 10975
L26709 10994
L26671 11012
L26634 11012
L26596 10994
L26578 10975
L26559 10937
L26540 10862
L26540 10769
L26559 10694
L26578 10656
L26596 10637
L26634 10619
" />
<path d="M27009 10619
L27046 10619
L27084 10637
L27103 10656
L27121 10694
L27140 10769
L27140 10862
L27121 10937
L27103 10975
L27084 10994
L27046 11012
L27009 11012
L26971 10994
L26953 10975
L26934 10937
L26915 10862
L26915 10769
L26934 10694
L26953 10656
L26971 10637
L27009 10619
" />
<path d="M27478 10750
L27478 11012
" />
<path d="M27309 10750
L27309 10956
L27328 10994
L27365 11012
L27421 11012
L27459 10994
L27478 10975
" />
<path d="M27796 10806
L27665 10806
" />
<path d="M27665 11012
L27665 10619
L27853 10619
" />
<path d="M23390 13343
L23165 13343
" />
<path d="M23278 13343
L23278 12949
L23240 13005
L23203 13043
L23165 13062
" />
<path d="M23634 12949
L23671 12949
L23709 12968
L23728 12987
L23746 13024
L23765 13099
L23765 13193
L23746 13268
L23728 13305
L23709 13324
L23671 13343
L23634 13343
L23596 13324
L23578 13305
L23559 13268
L23540 13193
L23540 13099
L23559 13024
L23578 12987
L23596 12968
L23634 12949
" />
<path d="M24009 12949
L24046 12949
L24084 12968
L24103 12987
L24121 13024
L24140 13099
L24140 13193
L24121 13268
L24103 13305
L24084 13324
L24046 13343
L24009 13343
L23971 13324
L23953 13305
L23934 13268
L23915 13193
L23915 13099
L23934 13024
L23953 12987
L23971 12968
L24009 12949
" />
<path d="M24478 13080
L24478 13343
" />
<path d="M24309 13080
L24309 13287
L24328 13324
L24365 13343
L24421 13343
L24459 13324
L24478 13305
" />
<path d="M24796 13137
L24665 13137
" />
<path d="M24665 13343
L24665 12949
L24853 12949
" />
<path d="M20991 28146
L20972 28128
L20953 28090
L20953 27996
L20972 27959
L20991 27940
L21028 27921
L21066 27921
L21122 27940
L21347 28165
L21347 27921
" />
<path d="M20991 27771
L20972 27753
L20953 27715
L20953 27621
L20972 27584
L20991 27565
L21028 27546
L21066 27546
L21122 27565
L21347 27790
L21347 27546
" />
<path d="M21084 27378
L21478 27378
" />
<path d="M21103 27378
L21084 27340
L21084 27265
L21103 27228
L21122 27209
L21159 27190
L21272 27190
L21309 27209
L21328 27228
L21347 27265
L21347 27340
L21328 27378
" />
<path d="M21141 26890
L21141 27021
" />
<path d="M21347 27021
L20953 27021
L20953 26834
" />
<path d="M20991 25146
L20972 25128
L20953 25090
L20953 24996
L20972 24959
L20991 24940
L21028 24921
L21066 24921
L21122 24940
L21347 25165
L21347 24921
" />
<path d="M20991 24771
L20972 24753
L20953 24715
L20953 24621
L20972 24584
L20991 24565
L21028 24546
L21066 24546
L21122 24565
L21347 24790
L21347 24546
" />
<path d="M21084 24378
L21478 24378
" />
<path d="M21103 24378
L21084 24340
L21084 24265
L21103 24228
L21122 24209
L21159 24190
L21272 24190
L21309 24209
L21328 24228
L21347 24265
L21347 24340
L21328 24378
" />
<path d="M21141 23890
L21141 24021
" />
<path d="M21347 24021
L20953 24021
L20953 23834
" />
<path d="M20178 29753
L20178 29940
L19784 29940
" />
<path d="M19971 29621
L19971 29490
" />
<path d="M20178 29434
L20178 29621
L19784 29621
L19784 29434
" />
<path d="M20178 29265
L19784 29265
L19784 29171
L19803 29115
L19840 29078
L19878 29059
L19953 29040
L20009 29040
L20084 29059
L20121 29078
L20159 29115
L20178 29171
L20178 29265
" />
<path d="M26565 24515
L26565 24327
" />
<path d="M26678 24552
L26284 24421
L26678 24290
" />
<path d="M26284 24215
L26284 23990
" />
<path d="M26678 24102
L26284 24102
" />
<path d="M26678 23859
L26284 23859
L26565 23727
L26284 23596
L26678 23596
" />
<path d="M26471 23409
L26471 23278
" />
<path d="M26678 23221
L26678 23409
L26284 23409
L26284 23221
" />
<path d="M26303 22846
L26284 22884
L26284 22940
L26303 22996
L26340 23034
L26378 23053
L26453 23071
L26509 23071
L26584 23053
L26621 23034
L26659 22996
L26678 22940
L26678 22903
L26659 22846
L26640 22828
L26509 22828
L26509 22903
" />
<path d="M26565 22678
L26565 22490
" />
<path d="M26678 22715
L26284 22584
L26678 22453
" />
<path d="M26284 22359
L26284 22115
L26434 22246
L26434 22190
L26453 22153
L26471 22134
L26509 22115
L26603 22115
L26640 22134
L26659 22153
L26678 22190
L26678 22303
L26659 22340
L26640 22359
" />
<path d="M26321 21965
L26303 21946
L26284 21909
L26284 21815
L26303 21778
L26321 21759
L26359 21740
L26396 21740
L26453 21759
L26678 21984
L26678 21740
" />
<path d="M26453 21515
L26434 21553
L26415 21571
L26378 21590
L26359 21590
L26321 21571
L26303 21553
L26284 21515
L26284 21440
L26303 21403
L26321 21384
L26359 21365
L26378 21365
L26415 21384
L26434 21403
L26453 21440
L26453 21515
L26471 21553
L26490 21571
L26528 21590
L26603 21590
L26640 21571
L26659 21553
L26678 21515
L26678 21440
L26659 21403
L26640 21384
L26603 21365
L26528 21365
L26490 21384
L26471 21403
L26453 21440
" />
<path d="M26528 21197
L26528 20897
" />
<path d="M26678 20709
L26284 20709
L26284 20559
L26303 20522
L26321 20503
L26359 20484
L26415 20484
L26453 20503
L26471 20522
L26490 20559
L26490 20709
" />
<path d="M17415 26799
L17678 26799
" />
<path d="M17265 26893
L17546 26987
L17546 26743
" />
<path d="M17284 26631
L17284 26368
L17678 26537
" />
<path d="M17284 26143
L17284 26106
L17303 26068
L17321 26050
L17359 26031
L17434 26012
L17528 26012
L17603 26031
L17640 26050
L17659 26068
L17678 26106
L17678 26143
L17659 26181
L17640 26200
L17603 26218
L17528 26237
L17434 26237
L17359 26218
L17321 26200
L17303 26181
L17284 26143
" />
<path d="M20678 18271
L20678 18496
" />
<path d="M20678 18384
L20284 18384
L20340 18421
L20378 18459
L20396 18496
" />
<path d="M20284 18028
L20284 17990
L20303 17953
L20321 17934
L20359 17915
L20434 17896
L20528 17896
L20603 17915
L20640 17934
L20659 17953
L20678 17990
L20678 18028
L20659 18065
L20640 18084
L20603 18103
L20528 18121
L20434 18121
L20359 18103
L20321 18084
L20303 18065
L20284 18028
" />
<path d="M20678 17728
L20284 17728
" />
<path d="M20678 17503
L20453 17671
" />
<path d="M20284 17503
L20509 17728
" />
<path d="M17353 21659
L17409 21678
L17503 21678
L17540 21659
L17559 21640
L17578 21603
L17578 21565
L17559 21528
L17540 21509
L17503 21490
L17428 21471
L17390 21453
L17371 21434
L17353 21396
L17353 21359
L17371 21321
L17390 21303
L17428 21284
L17521 21284
L17578 21303
" />
<path d="M17746 21678
L17746 21284
L17896 21284
L17934 21303
L17953 21321
L17971 21359
L17971 21415
L17953 21453
L17934 21471
L17896 21490
L17746 21490
" />
<path d="M18121 21659
L18178 21678
L18271 21678
L18309 21659
L18328 21640
L18346 21603
L18346 21565
L18328 21528
L18309 21509
L18271 21490
L18196 21471
L18159 21453
L18140 21434
L18121 21396
L18121 21359
L18140 21321
L18159 21303
L18196 21284
L18290 21284
L18346 21303
" />
<path d="M18459 21284
L18684 21284
" />
<path d="M18571 21678
L18571 21284
" />
<path d="M17584 12643
L17584 12381
L17978 12549
" />
<path d="M17753 12174
L17734 12212
L17715 12231
L17678 12249
L17659 12249
L17621 12231
L17603 12212
L17584 12174
L17584 12099
L17603 12062
L17621 12043
L17659 12024
L17678 12024
L17715 12043
L17734 12062
L17753 12099
L17753 12174
L17771 12212
L17790 12231
L17828 12249
L17903 12249
L17940 12231
L17959 12212
L17978 12174
L17978 12099
L17959 12062
L17940 12043
L17903 12024
L17828 12024
L17790 12043
L17771 12062
L17753 12099
" />
<path d="M17584 11781
L17584 11743
L17603 11706
L17621 11687
L17659 11668
L17734 11650
L17828 11650
L17903 11668
L17940 11687
L17959 11706
L17978 11743
L17978 11781
L17959 11818
L17940 11837
L17903 11856
L17828 11875
L17734 11875
L17659 11856
L17621 11837
L17603 11818
L17584 11781
" />
<path d="M17584 11293
L17584 11481
L17771 11500
L17753 11481
L17734 11443
L17734 11350
L17753 11312
L17771 11293
L17809 11275
L17903 11275
L17940 11293
L17959 11312
L17978 11350
L17978 11443
L17959 11481
L17940 11500
" />
<path d="M16890 15508
L16665 15508
" />
<path d="M16778 15508
L16778 15115
L16740 15171
L16703 15208
L16665 15227
" />
<path d="M17134 15115
L17171 15115
L17209 15133
L17228 15152
L17246 15190
L17265 15265
L17265 15358
L17246 15433
L17228 15471
L17209 15490
L17171 15508
L17134 15508
L17096 15490
L17078 15471
L17059 15433
L17040 15358
L17040 15265
L17059 15190
L17078 15152
L17096 15133
L17134 15115
" />
<path d="M17509 15115
L17546 15115
L17584 15133
L17603 15152
L17621 15190
L17640 15265
L17640 15358
L17621 15433
L17603 15471
L17584 15490
L17546 15508
L17509 15508
L17471 15490
L17453 15471
L17434 15433
L17415 15358
L17415 15265
L17434 15190
L17453 15152
L17471 15133
L17509 15115
" />
<path d="M17809 15246
L17809 15508
" />
<path d="M17809 15283
L17828 15265
L17865 15246
L17921 15246
L17959 15265
L17978 15302
L17978 15508
" />
<path d="M18296 15302
L18165 15302
" />
<path d="M18165 15508
L18165 15115
L18353 15115
" />
<path d="M29678 13843
L29678 14068
" />
<path d="M29678 13956
L29284 13956
L29340 13993
L29378 14031
L29396 14068
" />
<path d="M29678 13674
L29284 13674
L29678 13449
L29284 13449
" />
<path d="M29415 13093
L29678 13093
" />
<path d="M29265 13187
L29546 13281
L29546 13037
" />
<path d="M29284 12812
L29284 12775
L29303 12737
L29321 12718
L29359 12700
L29434 12681
L29528 12681
L29603 12700
L29640 12718
L29659 12737
L29678 12775
L29678 12812
L29659 12850
L29640 12868
L29603 12887
L29528 12906
L29434 12906
L29359 12887
L29321 12868
L29303 12850
L29284 12812
" />
<path d="M29284 12437
L29284 12400
L29303 12362
L29321 12343
L29359 12325
L29434 12306
L29528 12306
L29603 12325
L29640 12343
L29659 12362
L29678 12400
L29678 12437
L29659 12475
L29640 12493
L29603 12512
L29528 12531
L29434 12531
L29359 12512
L29321 12493
L29303 12475
L29284 12437
" />
<path d="M29678 11931
L29678 12156
" />
<path d="M29678 12043
L29284 12043
L29340 12081
L29378 12118
L29396 12156
" />
<path d="M19528 19218
L19528 18918
" />
<path d="M19528 18731
L19528 18431
" />
<path d="M19528 18243
L19528 17943
" />
<path d="M19528 17756
L19528 17456
" />
<path d="M19528 17268
L19528 16968
" />
<path d="M19528 16781
L19528 16481
" />
</g> 
</svg>
