<?xml version="1.0" standalone="no"?>
 <!DOCTYPE svg PUBLIC "-//W3C//DTD SVG 1.1//EN" 
 "http://www.w3.org/Graphics/SVG/1.1/DTD/svg11.dtd"> 
<svg xmlns="http://www.w3.org/2000/svg" version="1.1" 
    width="29.7002cm" height="21.0007cm" viewBox="0 0 116930 82680 ">
<title>SVG Picture created as cseduinop-B_Cu.svg date 2015/04/17 10:44:25 </title>
  <desc>Picture generated by PCBNEW </desc>
<g style="fill:#000000; fill-opacity:1;stroke:#000000; stroke-opacity:1;
stroke-linecap:round; stroke-linejoin:round; "
 transform="translate(0 0) scale(1 1)">
</g>
<g style="fill:#000000; fill-opacity:0.0; 
stroke:#000000; stroke-width:98.4252; stroke-opacity:1; 
stroke-linecap:round; stroke-linejoin:round;">
<path d="M13859 29752
L13840 29771
L13821 29827
L13821 29865
L13840 29921
L13878 29958
L13915 29977
L13990 29996
L14046 29996
L14121 29977
L14159 29958
L14196 29921
L14215 29865
L14215 29827
L14196 29771
L14178 29752
" />
<path d="M13840 29602
L13821 29546
L13821 29452
L13840 29415
L13859 29396
L13896 29377
L13934 29377
L13971 29396
L13990 29415
L14009 29452
L14028 29527
L14046 29565
L14065 29583
L14103 29602
L14140 29602
L14178 29583
L14196 29565
L14215 29527
L14215 29434
L14196 29377
" />
<path d="M14028 29209
L14028 29077
" />
<path d="M13821 29021
L13821 29209
L14215 29209
L14215 29021
" />
<path d="M13821 28684
L14215 28684
" />
<path d="M13840 28684
L13821 28721
L13821 28796
L13840 28834
L13859 28852
L13896 28871
L14009 28871
L14046 28852
L14065 28834
L14084 28796
L14084 28721
L14065 28684
" />
<path d="M14084 28327
L13821 28327
" />
<path d="M14084 28496
L13878 28496
L13840 28477
L13821 28440
L13821 28384
L13840 28346
L13859 28327
" />
<path d="M13821 28140
L14084 28140
" />
<path d="M14215 28140
L14196 28159
L14178 28140
L14196 28121
L14215 28140
L14178 28140
" />
<path d="M14084 27952
L13821 27952
" />
<path d="M14046 27952
L14065 27934
L14084 27896
L14084 27840
L14065 27802
L14028 27784
L13821 27784
" />
<path d="M13821 27540
L13840 27577
L13859 27596
L13896 27615
L14009 27615
L14046 27596
L14065 27577
L14084 27540
L14084 27484
L14065 27446
L14046 27428
L14009 27409
L13896 27409
L13859 27428
L13840 27446
L13821 27484
L13821 27540
" />
<path d="M13821 27240
L14215 27240
L14215 27090
L14196 27053
L14178 27034
L14140 27015
L14084 27015
L14046 27034
L14028 27053
L14009 27090
L14009 27240
" />
<path d="M13859 26621
L13840 26640
L13821 26696
L13821 26734
L13840 26790
L13878 26828
L13915 26846
L13990 26865
L14046 26865
L14121 26846
L14159 26828
L14196 26790
L14215 26734
L14215 26696
L14196 26640
L14178 26621
" />
<path d="M14028 26321
L14009 26265
L13990 26246
L13953 26228
L13896 26228
L13859 26246
L13840 26265
L13821 26303
L13821 26453
L14215 26453
L14215 26321
L14196 26284
L14178 26265
L14140 26246
L14103 26246
L14065 26265
L14046 26284
L14028 26321
L14028 26453
" />
<path d="M13821 25853
L13821 26078
" />
<path d="M13821 25965
L14215 25965
L14159 26003
L14121 26040
L14103 26078
" />
<path d="M13859 25684
L13840 25665
L13821 25684
L13840 25703
L13859 25684
L13821 25684
" />
<path d="M14178 25515
L14196 25497
L14215 25459
L14215 25365
L14196 25328
L14178 25309
L14140 25290
L14103 25290
L14046 25309
L13821 25534
L13821 25290
" />
<path d="M14215 24709
L13934 24709
L13878 24728
L13840 24765
L13821 24822
L13821 24859
" />
<path d="M13859 24522
L13840 24503
L13821 24522
L13840 24540
L13859 24522
L13821 24522
" />
<path d="M13934 24353
L13934 24165
" />
<path d="M13821 24390
L14215 24259
L13821 24128
" />
<path d="M13821 23940
L13840 23978
L13878 23997
L14215 23997
" />
<path d="M14084 23828
L13821 23734
L14084 23640
" />
<path d="M13840 23341
L13821 23378
L13821 23453
L13840 23491
L13878 23509
L14028 23509
L14065 23491
L14084 23453
L14084 23378
L14065 23341
L14028 23322
L13990 23322
L13953 23509
" />
<path d="M13840 23172
L13821 23134
L13821 23059
L13840 23022
L13878 23003
L13896 23003
L13934 23022
L13953 23059
L13953 23116
L13971 23153
L14009 23172
L14028 23172
L14065 23153
L14084 23116
L14084 23059
L14065 23022
" />
</g>
<g style="fill:#000000; fill-opacity:0.0; 
stroke:#000000; stroke-width:680; stroke-opacity:1; 
stroke-linecap:round; stroke-linejoin:round;">
<path d="M15940 24500
L16060 24500
" />
<path d="M15940 25500
L16060 25500
" />
<path d="M15940 26500
L16060 26500
" />
<path d="M15940 27500
L16060 27500
" />
<path d="M15940 28500
L16060 28500
" />
<path d="M14940 24500
L15060 24500
" />
<path d="M14940 25500
L15060 25500
" />
<path d="M14940 26500
L15060 26500
" />
<path d="M14940 27500
L15060 27500
" />
<path d="M14940 28500
L15060 28500
" />
</g>
<g style="fill:#000000; fill-opacity:0.0; 
stroke:#000000; stroke-width:39.3701; stroke-opacity:1; 
stroke-linecap:round; stroke-linejoin:round;">
</g>
<g style="fill:#000000; fill-opacity:1.0; 
stroke:#000000; stroke-width:39.3701; stroke-opacity:1; 
stroke-linecap:round; stroke-linejoin:round;">
<polyline style="fill-rule:evenodd;"
points="14619,16320
14619,15679
15380,15679
15380,16320
14619,16320
" /> 
</g>
<g style="fill:#000000; fill-opacity:1.0; 
stroke:#000000; stroke-width:680; stroke-opacity:1; 
stroke-linecap:round; stroke-linejoin:round;">
</g>
<g style="fill:#000000; fill-opacity:0.0; 
stroke:#000000; stroke-width:680; stroke-opacity:1; 
stroke-linecap:round; stroke-linejoin:round;">
<path d="M14940 17000
L15060 17000
" />
<path d="M14940 18000
L15060 18000
" />
<path d="M14940 19000
L15060 19000
" />
<path d="M14940 20000
L15060 20000
" />
<path d="M14940 21000
L15060 21000
" />
</g>
<g style="fill:#000000; fill-opacity:0.0; 
stroke:#000000; stroke-width:39.3701; stroke-opacity:1; 
stroke-linecap:round; stroke-linejoin:round;">
</g>
<g style="fill:#000000; fill-opacity:1.0; 
stroke:#000000; stroke-width:39.3701; stroke-opacity:1; 
stroke-linecap:round; stroke-linejoin:round;">
<polyline style="fill-rule:evenodd;"
points="21619,16320
21619,15679
22380,15679
22380,16320
21619,16320
" /> 
</g>
<g style="fill:#000000; fill-opacity:1.0; 
stroke:#000000; stroke-width:680; stroke-opacity:1; 
stroke-linecap:round; stroke-linejoin:round;">
</g>
<g style="fill:#000000; fill-opacity:0.0; 
stroke:#000000; stroke-width:680; stroke-opacity:1; 
stroke-linecap:round; stroke-linejoin:round;">
<path d="M21940 17000
L22060 17000
" />
<path d="M21940 18000
L22060 18000
" />
<path d="M21940 19000
L22060 19000
" />
<path d="M21940 20000
L22060 20000
" />
<path d="M21940 21000
L22060 21000
" />
<path d="M21940 22000
L22060 22000
" />
<path d="M21940 23000
L22060 23000
" />
</g>
<g style="fill:#000000; fill-opacity:0.0; 
stroke:#000000; stroke-width:800; stroke-opacity:1; 
stroke-linecap:round; stroke-linejoin:round;">
<path d="M31000 11000
L31000 11000
" />
<path d="M31000 12000
L31000 12000
" />
</g>
<g style="fill:#000000; fill-opacity:0.0; 
stroke:#000000; stroke-width:680; stroke-opacity:1; 
stroke-linecap:round; stroke-linejoin:round;">
<path d="M21940 26000
L22060 26000
" />
<path d="M21940 27000
L22060 27000
" />
<path d="M21940 28000
L22060 28000
" />
<path d="M21940 29000
L22060 29000
" />
<path d="M31060 29000
L30940 29000
" />
<path d="M31060 28000
L30940 28000
" />
<path d="M31060 27000
L30940 27000
" />
<path d="M31060 26000
L30940 26000
" />
<path d="M31060 25000
L30940 25000
" />
<path d="M31060 24000
L30940 24000
" />
<path d="M31060 23000
L30940 23000
" />
<path d="M31060 22000
L30940 22000
" />
<path d="M31060 21000
L30940 21000
" />
<path d="M31060 20000
L30940 20000
" />
<path d="M31060 19000
L30940 19000
" />
<path d="M31060 18000
L30940 18000
" />
<path d="M31060 17000
L30940 17000
" />
<path d="M31060 16000
L30940 16000
" />
</g>
<g style="fill:#000000; fill-opacity:0.0; 
stroke:#000000; stroke-width:39.3701; stroke-opacity:1; 
stroke-linecap:round; stroke-linejoin:round;">
</g>
<g style="fill:#000000; fill-opacity:1.0; 
stroke:#000000; stroke-width:39.3701; stroke-opacity:1; 
stroke-linecap:round; stroke-linejoin:round;">
<circle cx="27000" cy="12015.7" r="236.22" /> 
<polyline style="fill-rule:evenodd;"
points="27236,13236
26763,13236
26763,12763
27236,12763
27236,13236
" /> 
<circle cx="24000" cy="11984.3" r="236.22" /> 
<polyline style="fill-rule:evenodd;"
points="23763,10763
24236,10763
24236,11236
23763,11236
23763,10763
" /> 
<circle cx="20500" cy="27000" r="255.315" /> 
<circle cx="20500" cy="28000" r="255.315" /> 
<circle cx="20500" cy="25000" r="255.315" /> 
<circle cx="20500" cy="24000" r="255.315" /> 
<circle cx="19000" cy="30000" r="310.315" /> 
<circle cx="19000" cy="29000" r="310.315" /> 
</g>
<g style="fill:#000000; fill-opacity:1.0; 
stroke:#000000; stroke-width:620; stroke-opacity:1; 
stroke-linecap:round; stroke-linejoin:round;">
</g>
<g style="fill:#000000; fill-opacity:0.0; 
stroke:#000000; stroke-width:620; stroke-opacity:1; 
stroke-linecap:round; stroke-linejoin:round;">
<path d="M25140 17000
L24860 17000
" />
<path d="M25140 18000
L24860 18000
" />
<path d="M25140 19000
L24860 19000
" />
<path d="M25140 20000
L24860 20000
" />
<path d="M25140 21000
L24860 21000
" />
<path d="M25140 22000
L24860 22000
" />
<path d="M25140 23000
L24860 23000
" />
<path d="M25140 24000
L24860 24000
" />
<path d="M25140 25000
L24860 25000
" />
<path d="M25140 26000
L24860 26000
" />
<path d="M25140 27000
L24860 27000
" />
<path d="M25140 28000
L24860 28000
" />
<path d="M25140 29000
L24860 29000
" />
</g>
<g style="fill:#000000; fill-opacity:0.0; 
stroke:#000000; stroke-width:39.3701; stroke-opacity:1; 
stroke-linecap:round; stroke-linejoin:round;">
</g>
<g style="fill:#000000; fill-opacity:1.0; 
stroke:#000000; stroke-width:39.3701; stroke-opacity:1; 
stroke-linecap:round; stroke-linejoin:round;">
<polyline style="fill-rule:evenodd;"
points="24569,15709
25430,15709
25430,16290
24569,16290
24569,15709
" /> 
</g>
<g style="fill:#000000; fill-opacity:1.0; 
stroke:#000000; stroke-width:620; stroke-opacity:1; 
stroke-linecap:round; stroke-linejoin:round;">
</g>
<g style="fill:#000000; fill-opacity:0.0; 
stroke:#000000; stroke-width:620; stroke-opacity:1; 
stroke-linecap:round; stroke-linejoin:round;">
<path d="M28140 29000
L27860 29000
" />
<path d="M28140 28000
L27860 28000
" />
<path d="M28140 27000
L27860 27000
" />
<path d="M28140 26000
L27860 26000
" />
<path d="M28140 25000
L27860 25000
" />
<path d="M28140 24000
L27860 24000
" />
<path d="M28140 23000
L27860 23000
" />
<path d="M28140 22000
L27860 22000
" />
<path d="M28140 21000
L27860 21000
" />
<path d="M28140 20000
L27860 20000
" />
<path d="M28140 19000
L27860 19000
" />
<path d="M28140 18000
L27860 18000
" />
<path d="M28140 17000
L27860 17000
" />
<path d="M28140 16000
L27860 16000
" />
</g>
<g style="fill:#000000; fill-opacity:0.0; 
stroke:#000000; stroke-width:39.3701; stroke-opacity:1; 
stroke-linecap:round; stroke-linejoin:round;">
</g>
<g style="fill:#000000; fill-opacity:1.0; 
stroke:#000000; stroke-width:39.3701; stroke-opacity:1; 
stroke-linecap:round; stroke-linejoin:round;">
<circle cx="17500" cy="28500" r="373.815" /> 
<circle cx="17500" cy="24500" r="373.815" /> 
<circle cx="20500" cy="20000" r="373.815" /> 
<circle cx="20500" cy="16000" r="373.815" /> 
<circle cx="19500" cy="20500" r="255.315" /> 
<circle cx="19500" cy="22500" r="255.315" /> 
<circle cx="16500" cy="20500" r="255.315" /> 
<circle cx="16500" cy="22500" r="255.315" /> 
<polyline style="fill-rule:evenodd;"
points="17230,10269
17230,13730
13769,13730
13769,10269
17230,10269
" /> 
<circle cx="22000" cy="13000" r="330.315" /> 
<polyline style="fill-rule:evenodd;"
points="22330,11669
22330,12330
21669,12330
21669,11669
22330,11669
" /> 
<circle cx="22000" cy="11000" r="330.315" /> 
</g>
<g style="fill:#000000; fill-opacity:1.0; 
stroke:#000000; stroke-width:787; stroke-opacity:1; 
stroke-linecap:round; stroke-linejoin:round;">
</g>
<g style="fill:#000000; fill-opacity:0.0; 
stroke:#000000; stroke-width:787; stroke-opacity:1; 
stroke-linecap:round; stroke-linejoin:round;">
<path d="M18901 26961
L19098 26961
" />
<path d="M18901 25039
L19098 25039
" />
</g>
<g style="fill:#000000; fill-opacity:0.0; 
stroke:#000000; stroke-width:39.3701; stroke-opacity:1; 
stroke-linecap:round; stroke-linejoin:round;">
</g>
<g style="fill:#000000; fill-opacity:1.0; 
stroke:#000000; stroke-width:39.3701; stroke-opacity:1; 
stroke-linecap:round; stroke-linejoin:round;">
<circle cx="18500" cy="16000" r="255.315" /> 
<circle cx="16500" cy="16000" r="255.315" /> 
<circle cx="29500" cy="11000" r="373.815" /> 
<polyline style="fill-rule:evenodd;"
points="29126,14626
29873,14626
29873,15373
29126,15373
29126,14626
" /> 
<circle cx="19500" cy="19500" r="373.815" /> 
<circle cx="19500" cy="16000" r="373.815" /> 
</g>
<g style="fill:#000000; fill-opacity:1.0; 
stroke:#000000; stroke-width:200; stroke-opacity:1; 
stroke-linecap:round; stroke-linejoin:round;">
</g>
<g style="fill:#000000; fill-opacity:0.0; 
stroke:#000000; stroke-width:200; stroke-opacity:1; 
stroke-linecap:round; stroke-linejoin:round;">
<path d="M17500 24500
L17500 27000
" />
<path d="M18500 28000
L20500 28000
" />
<path d="M17500 27000
L18500 28000
" />
<path d="M19500 22500
L19500 22500
" />
<path d="M21000 12500
L21000 13500
" />
<path d="M21000 13500
L21500 14000
" />
<path d="M16500 22500
L16500 23500
" />
<path d="M16500 23500
L16500 22500
" />
<path d="M17500 24500
L16500 23500
" />
<path d="M16000 24500
L17500 24500
" />
<path d="M16000 25500
L16000 24500
" />
<path d="M16000 26500
L16000 25500
" />
<path d="M16000 27500
L16000 26500
" />
<path d="M16000 28500
L16000 27500
" />
<path d="M20500 23500
L20500 24000
" />
<path d="M20000 23000
L20500 23500
" />
<path d="M22000 23000
L20000 23000
" />
<path d="M25000 23000
L22000 23000
" />
<path d="M19500 22500
L16500 22500
" />
<path d="M20000 23000
L19500 22500
" />
<path d="M15000 21000
L15000 20000
" />
<path d="M16500 22500
L15000 21000
" />
<path d="M26500 23000
L27500 22000
" />
<path d="M25000 23000
L26500 23000
" />
<path d="M27500 22000
L31000 22000
" />
<path d="M27000 21500
L27500 22000
" />
<path d="M27000 15000
L27000 21500
" />
<path d="M26000 14000
L27000 15000
" />
<path d="M21500 14000
L26000 14000
" />
<path d="M21000 13500
L21500 14000
" />
<path d="M21000 12500
L21000 13500
" />
<path d="M21500 12000
L21000 12500
" />
<path d="M21484 12015
L31000 12000
" />
<path d="M29000 15000
L29500 15000
" />
<path d="M27000 13000
L29000 15000
" />
<path d="M22000 13000
L27000 13000
" />
<path d="M15500 30000
L15000 29500
" />
<path d="M15000 29500
L15000 22500
" />
<path d="M25500 14500
L21000 14500
" />
<path d="M20500 11500
L20500 14000
" />
<path d="M21000 11000
L20500 11500
" />
<path d="M26500 21500
L26000 22000
" />
<path d="M26500 21500
L26500 15500
" />
<path d="M26500 15500
L25500 14500
" />
<path d="M21000 14500
L20500 14000
" />
<path d="M16000 19000
L16000 19000
" />
<path d="M20500 19000
L20500 20000
" />
<path d="M20000 18500
L20500 19000
" />
<path d="M16500 18500
L20000 18500
" />
<path d="M16000 19000
L16500 18500
" />
<path d="M14000 19000
L16000 19000
" />
<path d="M14000 21500
L14000 19000
" />
<path d="M15000 22500
L14000 21500
" />
<path d="M19000 30000
L15500 30000
" />
<path d="M27000 24000
L31000 24000
" />
<path d="M26500 24500
L27000 24000
" />
<path d="M26000 30000
L26500 29500
" />
<path d="M26500 29500
L26500 24500
" />
<path d="M19000 30000
L26000 30000
" />
<path d="M20500 20000
L20500 20500
" />
<path d="M20500 20500
L20500 21500
" />
<path d="M21000 22000
L22000 22000
" />
<path d="M20500 21500
L21000 22000
" />
<path d="M21000 11000
L24000 11000
" />
<path d="M22000 22000
L26000 22000
" />
<path d="M21500 25000
L25000 25000
" />
<path d="M20500 26000
L21500 25000
" />
<path d="M20500 27000
L20500 26000
" />
<path d="M19000 26961
L20461 26961
" />
<path d="M20461 25039
L20500 25000
" />
<path d="M20500 25000
L20500 25000
" />
<path d="M19039 25000
L19000 25039
" />
<path d="M20500 25000
L19039 25000
" />
<path d="M21500 24000
L20500 25000
" />
<path d="M25000 24000
L21500 24000
" />
<path d="M19500 20500
L19500 19500
" />
<path d="M16500 20500
L19500 20500
" />
<path d="M22000 16000
L25000 16000
" />
<path d="M20500 16000
L22000 16000
" />
<path d="M20500 16000
L18500 16000
" />
<path d="M15000 16000
L16500 16000
" />
<path d="M29500 11000
L31000 11000
" />
<path d="M17000 15000
L17500 15500
" />
<path d="M14000 15000
L17000 15000
" />
<path d="M22000 17000
L25000 17000
" />
<path d="M18000 17000
L22000 17000
" />
<path d="M17500 15500
L17500 16500
" />
<path d="M17500 16500
L18000 17000
" />
<path d="M14000 18000
L14000 15000
" />
<path d="M15000 18000
L14000 18000
" />
<path d="M16500 17000
L17500 18000
" />
<path d="M17500 18000
L22000 18000
" />
<path d="M15000 17000
L16500 17000
" />
<path d="M22000 18000
L25000 18000
" />
<path d="M22000 19000
L25000 19000
" />
<path d="M22000 20000
L25000 20000
" />
<path d="M22000 21000
L25000 21000
" />
<path d="M22000 26000
L25000 26000
" />
<path d="M22000 27000
L25000 27000
" />
<path d="M22000 28000
L25000 28000
" />
<path d="M22000 29000
L25000 29000
" />
<path d="M28000 29000
L31000 29000
" />
<path d="M28000 28000
L31000 28000
" />
<path d="M28000 27000
L31000 27000
" />
<path d="M28000 26000
L31000 26000
" />
<path d="M28000 25000
L31000 25000
" />
<path d="M28000 23000
L31000 23000
" />
<path d="M28000 21000
L31000 21000
" />
<path d="M28000 20000
L31000 20000
" />
<path d="M28000 19000
L31000 19000
" />
<path d="M28000 18000
L31000 18000
" />
<path d="M28000 17000
L31000 17000
" />
<path d="M28000 16000
L31000 16000
" />
<path d="M18000 29000
L17500 28500
" />
<path d="M19000 29000
L18000 29000
" />
</g>
<g style="fill:#000000; fill-opacity:1.0; 
stroke:#000000; stroke-width:100; stroke-opacity:1; 
stroke-linecap:round; stroke-linejoin:round;">
<polyline style="fill-rule:evenodd;"
points="31830,30830
31662,30830
31662,29000
31617,28774
31489,28582
31365,28500
31489,28417
31617,28225
31662,28000
31617,27774
31489,27582
31365,27500
31489,27417
31617,27225
31662,27000
31617,26774
31489,26582
31365,26500
31489,26417
31617,26225
31662,26000
31617,25774
31489,25582
31365,25500
31489,25417
31617,25225
31662,25000
31617,24774
31489,24582
31365,24500
31489,24417
31617,24225
31662,24000
31617,23774
31489,23582
31365,23500
31489,23417
31617,23225
31662,23000
31662,21000
31617,20774
31489,20582
31365,20500
31489,20417
31617,20225
31662,20000
31617,19774
31489,19582
31365,19500
31489,19417
31617,19225
31662,19000
31617,18774
31489,18582
31365,18500
31489,18417
31617,18225
31662,18000
31617,17774
31489,17582
31365,17500
31489,17417
31617,17225
31662,17000
31617,16774
31489,16582
31365,16500
31489,16417
31617,16225
31662,16000
31662,11000
31613,10751
31472,10540
31261,10399
31012,10350
30987,10350
30738,10399
30527,10540
30454,10650
30051,10650
30045,10635
29864,10454
29628,10356
29372,10356
29135,10454
28954,10635
28856,10871
28856,11127
28954,11364
29135,11545
29371,11643
29627,11643
29864,11545
30045,11364
30051,11350
30454,11350
30527,11459
30591,11502
30446,11659
30367,11849
30414,11950
30950,11950
30950,11942
31050,11942
31050,11950
31585,11950
31632,11849
31553,11659
31408,11502
31472,11459
31613,11248
31662,11000
31662,16000
31632,15846
31632,12150
31585,12050
31050,12050
31050,12585
31150,12632
31381,12526
31553,12340
31632,12150
31632,15846
31617,15774
31489,15582
31298,15454
31072,15410
30950,15410
30950,12585
30950,12050
30414,12050
30367,12150
30446,12340
30618,12526
30849,12632
30950,12585
30950,15410
30927,15410
30701,15454
30510,15582
30465,15650
30148,15650
30148,15393
30148,14606
30129,14511
30074,14427
29991,14371
29893,14351
29106,14351
29011,14370
28927,14425
28924,14429
27510,13015
27510,12086
27499,11886
27444,11754
27353,11732
27283,11803
27283,11661
27261,11571
27071,11504
26870,11516
26738,11571
26716,11661
27000,11945
27283,11661
27283,11803
27070,12015
27353,12298
27444,12277
27510,12086
27510,13015
27510,13015
27510,12744
27492,12648
27437,12564
27354,12508
27255,12489
27191,12489
27261,12460
27283,12369
27000,12086
26929,12157
26929,12015
26646,11732
26555,11754
26489,11944
26500,12145
26555,12277
26646,12298
26929,12015
26929,12157
26716,12369
26738,12460
26821,12489
26744,12489
26648,12507
26564,12562
26508,12645
26508,12650
24510,12650
24510,12055
24499,11854
24444,11722
24353,11701
24070,11984
24353,12267
24444,12245
24510,12055
24510,12650
24283,12650
24283,12338
24000,12054
23929,12125
23929,11984
23646,11701
23555,11722
23489,11913
23500,12113
23555,12245
23646,12267
23929,11984
23929,12125
23716,12338
23738,12428
23928,12495
24129,12483
24261,12428
24283,12338
24283,12650
22498,12650
22434,12585
22491,12561
22561,12491
22600,12399
22600,12300
22600,12112
22537,12050
22050,12050
22050,12057
21950,12057
21950,12050
21462,12050
21400,12112
21400,12300
21400,12399
21438,12491
21508,12561
21565,12585
21491,12659
21400,12880
21399,13118
21491,13339
21659,13508
21880,13599
22118,13600
22339,13508
22498,13350
26507,13350
26507,13351
26562,13435
26645,13491
26744,13510
27015,13510
28752,15247
28851,15313
28851,15393
28870,15488
28925,15572
29008,15628
29106,15648
29893,15648
29988,15629
30072,15574
30128,15491
30148,15393
30148,15650
28580,15650
28549,15604
28368,15482
28153,15440
27846,15440
27631,15482
27450,15604
27328,15785
27286,16000
27328,16214
27450,16395
27605,16500
27450,16604
27328,16785
27286,17000
27328,17214
27450,17395
27605,17500
27450,17604
27328,17785
27286,18000
27328,18214
27450,18395
27605,18500
27450,18604
27328,18785
27286,19000
27328,19214
27450,19395
27605,19500
27450,19604
27328,19785
27286,20000
27328,20214
27450,20395
27605,20500
27450,20604
27328,20785
27286,21000
27328,21214
27450,21395
27605,21499
27599,21501
27428,21639
27323,21831
27316,21863
27365,21950
27950,21950
27950,21942
28050,21942
28050,21950
28634,21950
28683,21863
28676,21831
28571,21639
28400,21501
28394,21499
28549,21395
28580,21350
30465,21350
30510,21417
30631,21498
30468,21644
30368,21852
30367,21858
30414,21950
30950,21950
30950,21942
31050,21942
31050,21950
31585,21950
31632,21858
31631,21852
31531,21644
31368,21498
31489,21417
31617,21225
31662,21000
31662,23000
31617,22774
31489,22582
31368,22501
31531,22355
31631,22147
31632,22141
31585,22050
31050,22050
31050,22057
30950,22057
30950,22050
30414,22050
30367,22141
30368,22147
30468,22355
30631,22501
30510,22582
30465,22650
28580,22650
28549,22604
28394,22500
28400,22498
28571,22360
28676,22168
28683,22136
28634,22050
28050,22050
28050,22057
27950,22057
27950,22050
27365,22050
27316,22136
27323,22168
27428,22360
27599,22498
27605,22500
27450,22604
27328,22785
27286,23000
27328,23214
27450,23395
27605,23500
27450,23604
27419,23650
27000,23650
26866,23676
26752,23752
26252,24252
26176,24366
26150,24500
26150,29355
25855,29650
25713,29650
25713,29000
25671,28785
25549,28604
25394,28500
25549,28395
25671,28214
25713,28000
25671,27785
25549,27604
25394,27500
25549,27395
25671,27214
25713,27000
25671,26785
25549,26604
25394,26500
25549,26395
25671,26214
25713,26000
25671,25785
25549,25604
25394,25500
25549,25395
25671,25214
25713,25000
25671,24785
25549,24604
25394,24500
25549,24395
25671,24214
25713,24000
25671,23785
25549,23604
25394,23500
25400,23498
25571,23360
25676,23168
25683,23136
25634,23050
25050,23050
25050,23057
24950,23057
24950,23050
24365,23050
24316,23136
24323,23168
24428,23360
24599,23498
24605,23500
24450,23604
24419,23650
22632,23650
22632,23141
22585,23050
22050,23050
22050,23527
22142,23584
22359,23508
22531,23355
22631,23147
22632,23141
22632,23650
21950,23650
21950,23527
21950,23050
21414,23050
21367,23141
21368,23147
21468,23355
21640,23508
21857,23584
21950,23527
21950,23650
21500,23650
21366,23676
21252,23752
21024,23980
21018,23867
20960,23727
20867,23702
20797,23773
20797,23632
20772,23539
20575,23470
20367,23481
20227,23539
20202,23632
20500,23929
20797,23632
20797,23773
20570,24000
20576,24005
20505,24076
20500,24070
20429,24141
20429,24000
20132,23702
20039,23727
20029,23754
20029,22575
20018,22367
19960,22227
19867,22202
19797,22273
19797,22132
19772,22039
19575,21970
19367,21981
19227,22039
19202,22132
19500,22429
19797,22132
19797,22273
19570,22500
19867,22797
19960,22772
20029,22575
20029,23754
19970,23924
19981,24132
20039,24272
20132,24297
20429,24000
20429,24141
20202,24367
20227,24460
20337,24499
20203,24554
20107,24650
19797,24650
19797,22867
19500,22570
19429,22641
19429,22500
19132,22202
19039,22227
18970,22424
18981,22632
19039,22772
19132,22797
19429,22500
19429,22641
19202,22867
19227,22960
19424,23029
19632,23018
19772,22960
19797,22867
19797,24650
19612,24650
19568,24583
19359,24444
19113,24395
18886,24395
18640,24444
18431,24583
18292,24792
18243,25039
18292,25285
18431,25494
18640,25633
18886,25682
19113,25682
19359,25633
19568,25494
19664,25350
20107,25350
20202,25444
20395,25524
20480,25524
20252,25752
20176,25866
20150,26000
20150,26607
20146,26611
19638,26611
19568,26505
19359,26366
19113,26317
18886,26317
18640,26366
18431,26505
18292,26714
18243,26961
18292,27207
18431,27416
18640,27555
18886,27604
19113,27604
19359,27555
19568,27416
19638,27311
20068,27311
20202,27444
20328,27497
20227,27539
20202,27632
20500,27929
20797,27632
20772,27539
20662,27500
20797,27445
20944,27297
21024,27104
21025,26896
20945,26703
20850,26607
20850,26144
21644,25350
24419,25350
24450,25395
24605,25500
24450,25604
24419,25650
22534,25650
22489,25582
22298,25454
22072,25410
21927,25410
21701,25454
21510,25582
21382,25774
21337,26000
21382,26225
21510,26417
21634,26500
21510,26582
21382,26774
21337,27000
21382,27225
21510,27417
21634,27500
21510,27582
21382,27774
21337,28000
21382,28225
21510,28417
21634,28500
21510,28582
21382,28774
21337,29000
21382,29225
21510,29417
21701,29545
21927,29590
22072,29590
22298,29545
22489,29417
22534,29350
24419,29350
24450,29395
24631,29517
24846,29560
25153,29560
25368,29517
25549,29395
25671,29214
25713,29000
25713,29650
21029,29650
21029,28075
21018,27867
20960,27727
20867,27702
20570,28000
20867,28297
20960,28272
21029,28075
21029,29650
20797,29650
20797,28367
20500,28070
20429,28141
20429,28000
20132,27702
20039,27727
19970,27924
19981,28132
20039,28272
20132,28297
20429,28000
20429,28141
20202,28367
20227,28460
20424,28529
20632,28518
20772,28460
20797,28367
20797,29650
19470,29650
19328,29508
19308,29500
19328,29491
19491,29328
19579,29115
19580,28885
19491,28671
19328,28508
19115,28420
18885,28419
18671,28508
18529,28650
18147,28650
18147,24604
18138,24348
18058,24155
17953,24117
17882,24187
17882,24046
17844,23941
17604,23852
17348,23861
17155,23941
17117,24046
17500,24429
17882,24046
17882,24187
17570,24500
17953,24882
18058,24844
18147,24604
18147,28650
18144,28650
18137,28642
18143,28628
18143,28372
18045,28135
17882,27972
17882,24953
17500,24570
17429,24641
17429,24500
17046,24117
17029,24123
17029,22575
17018,22367
16960,22227
16867,22202
16797,22273
16797,22132
16772,22039
16575,21970
16367,21981
16227,22039
16202,22132
16500,22429
16797,22132
16797,22273
16570,22500
16867,22797
16960,22772
17029,22575
17029,24123
16941,24155
16852,24395
16861,24651
16941,24844
17046,24882
17429,24500
17429,24641
17117,24953
17155,25058
17395,25147
17651,25138
17844,25058
17882,24953
17882,27972
17864,27954
17628,27856
17372,27856
17135,27954
16954,28135
16856,28371
16856,28627
16954,28864
17135,29045
17371,29143
17627,29143
17642,29137
17752,29247
17866,29323
17866,29323
18000,29350
18529,29350
18671,29491
18691,29499
18671,29508
18529,29650
16797,29650
16797,22867
16500,22570
16429,22641
16429,22500
16132,22202
16039,22227
15970,22424
15981,22632
16039,22772
16132,22797
16429,22500
16429,22641
16202,22867
16227,22960
16424,23029
16632,23018
16772,22960
16797,22867
16797,29650
15644,29650
15350,29355
15350,29010
15489,28917
15500,28902
15510,28917
15701,29045
15927,29090
16072,29090
16298,29045
16489,28917
16617,28725
16662,28500
16617,28274
16489,28082
16365,28000
16489,27917
16617,27725
16662,27500
16617,27274
16489,27082
16365,27000
16489,26917
16617,26725
16662,26500
16617,26274
16489,26082
16365,26000
16489,25917
16617,25725
16662,25500
16617,25274
16489,25082
16365,25000
16489,24917
16617,24725
16662,24500
16617,24274
16489,24082
16298,23954
16072,23910
15927,23910
15701,23954
15632,24000
15632,21141
15632,20858
15631,20852
15531,20644
15369,20500
15531,20355
15631,20147
15632,20141
15585,20050
15050,20050
15050,20472
15050,20527
15050,20950
15585,20950
15632,20858
15632,21141
15585,21050
15050,21050
15050,21527
15142,21584
15359,21508
15531,21355
15631,21147
15632,21141
15632,24000
15510,24082
15500,24097
15489,24082
15350,23989
15350,22500
15323,22366
15247,22252
14950,21955
14950,21527
14950,21050
14950,20950
14950,20527
14950,20472
14950,20050
14414,20050
14367,20141
14368,20147
14468,20355
14630,20500
14468,20644
14368,20852
14367,20858
14414,20950
14950,20950
14950,21050
14414,21050
14367,21141
14368,21147
14468,21355
14640,21508
14857,21584
14950,21527
14950,21955
14350,21355
14350,19350
14465,19350
14510,19417
14631,19498
14468,19644
14368,19852
14367,19858
14414,19950
14950,19950
14950,19942
15050,19942
15050,19950
15585,19950
15632,19858
15631,19852
15531,19644
15368,19498
15489,19417
15534,19350
16000,19350
16133,19323
16133,19323
16247,19247
16644,18850
19855,18850
20150,19144
20150,19448
20143,19451
20143,19372
20045,19135
19864,18954
19628,18856
19372,18856
19135,18954
18954,19135
18856,19371
18856,19627
18954,19864
19135,20045
19150,20051
19150,20107
19107,20150
16892,20150
16797,20055
16604,19975
16396,19974
16203,20054
16055,20202
15975,20395
15974,20603
16054,20797
16202,20944
16395,21024
16603,21025
16797,20945
16892,20850
19107,20850
19202,20944
19395,21024
19603,21025
19797,20945
19944,20797
20024,20604
20025,20435
20135,20545
20150,20551
20150,21500
20176,21633
20252,21747
20752,22247
20866,22323
20866,22323
21000,22350
21465,22350
21510,22417
21631,22498
21468,22644
21368,22852
21367,22858
21414,22950
21950,22950
21950,22942
22050,22942
22050,22950
22585,22950
22632,22858
22631,22852
22531,22644
22368,22498
22489,22417
22534,22350
24419,22350
24450,22395
24605,22499
24599,22501
24428,22639
24323,22831
24316,22863
24365,22950
24950,22950
24950,22942
25050,22942
25050,22950
25634,22950
25683,22863
25676,22831
25571,22639
25400,22501
25394,22499
25549,22395
25580,22350
26000,22350
26133,22323
26133,22323
26247,22247
26747,21747
26823,21633
26823,21633
26850,21500
26850,15500
26823,15366
26747,15252
25747,14252
25633,14176
25500,14150
21144,14150
20850,13855
20850,11644
21144,11350
21501,11350
21565,11414
21508,11438
21438,11508
21400,11600
21400,11699
21400,11887
21462,11950
21950,11950
21950,11942
22050,11942
22050,11950
22537,11950
22600,11887
22600,11699
22600,11600
22561,11508
22491,11438
22434,11414
22498,11350
23507,11350
23507,11351
23562,11435
23645,11491
23744,11510
23808,11510
23738,11539
23716,11630
24000,11913
24283,11630
24261,11539
24178,11510
24255,11510
24351,11492
24435,11437
24491,11354
24510,11255
24510,10744
24492,10648
24437,10564
24354,10508
24255,10489
23744,10489
23648,10507
23564,10562
23508,10645
23508,10650
22498,10650
22340,10491
22119,10400
21881,10399
21660,10491
21501,10650
21000,10650
20866,10676
20752,10752
20252,11252
20176,11366
20150,11500
20150,14000
20176,14133
20252,14247
20752,14747
20866,14823
20866,14823
21000,14850
25355,14850
26150,15644
26150,21355
25855,21650
25580,21650
25549,21604
25394,21500
25549,21395
25671,21214
25713,21000
25671,20785
25549,20604
25394,20500
25549,20395
25671,20214
25713,20000
25671,19785
25549,19604
25394,19500
25549,19395
25671,19214
25713,19000
25671,18785
25549,18604
25394,18500
25549,18395
25671,18214
25713,18000
25671,17785
25549,17604
25394,17500
25549,17395
25671,17214
25713,17000
25671,16785
25549,16604
25481,16558
25545,16546
25629,16491
25685,16408
25704,16310
25704,15690
25686,15594
25631,15510
25548,15454
25450,15435
24550,15435
24454,15453
24370,15508
24314,15591
24303,15650
22652,15650
22636,15564
22581,15480
22498,15424
22400,15405
21600,15405
21504,15423
21420,15478
21364,15561
21347,15650
21051,15650
21045,15635
20864,15454
20628,15356
20372,15356
20135,15454
19999,15589
19864,15454
19628,15356
19372,15356
19135,15454
18954,15635
18948,15650
18892,15650
18797,15555
18604,15475
18396,15474
18203,15554
18055,15702
17975,15895
17974,16103
18054,16297
18202,16444
18395,16524
18603,16525
18797,16445
18892,16350
18948,16350
18954,16364
19135,16545
19371,16643
19627,16643
19864,16545
20000,16410
20135,16545
20371,16643
20627,16643
20864,16545
21045,16364
21051,16350
21347,16350
21363,16435
21418,16519
21501,16575
21516,16578
21510,16582
21465,16650
18144,16650
17850,16355
17850,15500
17823,15366
17823,15366
17747,15252
17504,15009
17504,13750
17504,10250
17486,10154
17431,10070
17348,10014
17250,9995
13750,9995
13654,10013
13570,10068
13514,10151
13495,10250
13495,13750
13513,13845
13568,13929
13651,13985
13750,14004
17250,14004
17345,13986
17429,13931
17485,13848
17504,13750
17504,15009
17247,14752
17133,14676
17000,14650
14000,14650
13866,14676
13752,14752
13676,14866
13650,15000
13650,18000
13676,18133
13752,18247
13866,18323
14000,18350
14465,18350
14510,18417
14634,18500
14510,18582
14465,18650
14000,18650
13866,18676
13752,18752
13676,18866
13650,19000
13650,21500
13676,21633
13752,21747
14650,22644
14650,23989
14573,24040
14573,22729
13525,22729
13525,30270
14573,30270
14573,28959
14650,29010
14650,29500
14676,29633
14752,29747
15252,30247
15366,30323
15366,30323
15500,30350
18529,30350
18671,30491
18884,30579
19114,30580
19328,30491
19470,30350
26000,30350
26133,30323
26133,30323
26247,30247
26747,29747
26823,29633
26823,29633
26850,29500
26850,24644
27144,24350
27419,24350
27450,24395
27605,24500
27450,24604
27328,24785
27286,25000
27328,25214
27450,25395
27605,25500
27450,25604
27328,25785
27286,26000
27328,26214
27450,26395
27605,26500
27450,26604
27328,26785
27286,27000
27328,27214
27450,27395
27605,27500
27450,27604
27328,27785
27286,28000
27328,28214
27450,28395
27605,28500
27450,28604
27328,28785
27286,29000
27328,29214
27450,29395
27631,29517
27846,29560
28153,29560
28368,29517
28549,29395
28580,29350
30465,29350
30510,29417
30701,29545
30927,29590
31072,29590
31298,29545
31489,29417
31617,29225
31662,29000
31662,30830
13169,30830
13169,9669
31830,9669
31830,30830
" /> 
</g>
<g style="fill:#FFFFFF; fill-opacity:1.0; 
stroke:#FFFFFF; stroke-width:39.3701; stroke-opacity:1; 
stroke-linecap:round; stroke-linejoin:round;">
<circle cx="16000" cy="24500" r="180.315" /> 
<circle cx="16000" cy="25500" r="180.315" /> 
<circle cx="16000" cy="26500" r="180.315" /> 
<circle cx="16000" cy="27500" r="180.315" /> 
<circle cx="16000" cy="28500" r="180.315" /> 
<circle cx="15000" cy="24500" r="180.315" /> 
<circle cx="15000" cy="25500" r="180.315" /> 
<circle cx="15000" cy="26500" r="180.315" /> 
<circle cx="15000" cy="27500" r="180.315" /> 
<circle cx="15000" cy="28500" r="180.315" /> 
<circle cx="15000" cy="16000" r="180.315" /> 
<circle cx="15000" cy="17000" r="180.315" /> 
<circle cx="15000" cy="18000" r="180.315" /> 
<circle cx="15000" cy="19000" r="180.315" /> 
<circle cx="15000" cy="20000" r="180.315" /> 
<circle cx="15000" cy="21000" r="180.315" /> 
<circle cx="22000" cy="16000" r="180.315" /> 
<circle cx="22000" cy="17000" r="180.315" /> 
<circle cx="22000" cy="18000" r="180.315" /> 
<circle cx="22000" cy="19000" r="180.315" /> 
<circle cx="22000" cy="20000" r="180.315" /> 
<circle cx="22000" cy="21000" r="180.315" /> 
<circle cx="22000" cy="22000" r="180.315" /> 
<circle cx="22000" cy="23000" r="180.315" /> 
<circle cx="31000" cy="11000" r="180.315" /> 
<circle cx="31000" cy="12000" r="180.315" /> 
<circle cx="22000" cy="26000" r="180.315" /> 
<circle cx="22000" cy="27000" r="180.315" /> 
<circle cx="22000" cy="28000" r="180.315" /> 
<circle cx="22000" cy="29000" r="180.315" /> 
<circle cx="31000" cy="29000" r="180.315" /> 
<circle cx="31000" cy="28000" r="180.315" /> 
<circle cx="31000" cy="27000" r="180.315" /> 
<circle cx="31000" cy="26000" r="180.315" /> 
<circle cx="31000" cy="25000" r="180.315" /> 
<circle cx="31000" cy="24000" r="180.315" /> 
<circle cx="31000" cy="23000" r="180.315" /> 
<circle cx="31000" cy="22000" r="180.315" /> 
<circle cx="31000" cy="21000" r="180.315" /> 
<circle cx="31000" cy="20000" r="180.315" /> 
<circle cx="31000" cy="19000" r="180.315" /> 
<circle cx="31000" cy="18000" r="180.315" /> 
<circle cx="31000" cy="17000" r="180.315" /> 
<circle cx="31000" cy="16000" r="180.315" /> 
<circle cx="27000" cy="12015.7" r="137.795" /> 
<circle cx="27000" cy="13000" r="137.795" /> 
<circle cx="24000" cy="11984.3" r="137.795" /> 
<circle cx="24000" cy="11000" r="137.795" /> 
<circle cx="20500" cy="27000" r="140.315" /> 
<circle cx="20500" cy="28000" r="140.315" /> 
<circle cx="20500" cy="25000" r="140.315" /> 
<circle cx="20500" cy="24000" r="140.315" /> 
<circle cx="19000" cy="30000" r="140.315" /> 
<circle cx="19000" cy="29000" r="140.315" /> 
<circle cx="25000" cy="17000" r="140.315" /> 
<circle cx="25000" cy="18000" r="140.315" /> 
<circle cx="25000" cy="19000" r="140.315" /> 
<circle cx="25000" cy="20000" r="140.315" /> 
<circle cx="25000" cy="21000" r="140.315" /> 
<circle cx="25000" cy="22000" r="140.315" /> 
<circle cx="25000" cy="23000" r="140.315" /> 
<circle cx="25000" cy="24000" r="140.315" /> 
<circle cx="25000" cy="25000" r="140.315" /> 
<circle cx="25000" cy="26000" r="140.315" /> 
<circle cx="25000" cy="27000" r="140.315" /> 
<circle cx="25000" cy="28000" r="140.315" /> 
<circle cx="25000" cy="29000" r="140.315" /> 
<circle cx="25000" cy="16000" r="140.315" /> 
<circle cx="28000" cy="29000" r="140.315" /> 
<circle cx="28000" cy="28000" r="140.315" /> 
<circle cx="28000" cy="27000" r="140.315" /> 
<circle cx="28000" cy="26000" r="140.315" /> 
<circle cx="28000" cy="25000" r="140.315" /> 
<circle cx="28000" cy="24000" r="140.315" /> 
<circle cx="28000" cy="23000" r="140.315" /> 
<circle cx="28000" cy="22000" r="140.315" /> 
<circle cx="28000" cy="21000" r="140.315" /> 
<circle cx="28000" cy="20000" r="140.315" /> 
<circle cx="28000" cy="19000" r="140.315" /> 
<circle cx="28000" cy="18000" r="140.315" /> 
<circle cx="28000" cy="17000" r="140.315" /> 
<circle cx="28000" cy="16000" r="140.315" /> 
<circle cx="17500" cy="28500" r="177.315" /> 
<circle cx="17500" cy="24500" r="177.315" /> 
<circle cx="20500" cy="20000" r="177.315" /> 
<circle cx="20500" cy="16000" r="177.315" /> 
<circle cx="19500" cy="20500" r="140.315" /> 
<circle cx="19500" cy="22500" r="140.315" /> 
<circle cx="16500" cy="20500" r="140.315" /> 
<circle cx="16500" cy="22500" r="140.315" /> 
<circle cx="15500" cy="12000" r="580.315" /> 
<circle cx="22000" cy="13000" r="205.315" /> 
<circle cx="22000" cy="12000" r="205.315" /> 
<circle cx="22000" cy="11000" r="205.315" /> 
<circle cx="19000" cy="26961" r="216.315" /> 
<circle cx="19000" cy="25039" r="216.315" /> 
<circle cx="18500" cy="16000" r="140.315" /> 
<circle cx="16500" cy="16000" r="140.315" /> 
<circle cx="29500" cy="11000" r="230.315" /> 
<circle cx="29500" cy="15000" r="177.315" /> 
<circle cx="19500" cy="19500" r="137.815" /> 
<circle cx="19500" cy="16000" r="137.815" /> 
</g> 
</svg>
