M48
;DRILL file {kicad (2015-04-05 BZR 5577)-product} date 17-04-2015 10:44:02
;FORMAT={-:-/ absolute / inch / decimal}
FMAT,2
INCH,TZ
T1C0.031
T2C0.032
T3C0.032
T4C0.039
T5C0.040
T6C0.045
T7C0.047
T8C0.050
T9C0.120
%
G90
G05
M72
T1
X2.4Y-1.1
X2.4Y-1.1984
X2.7Y-1.2016
X2.7Y-1.3
T2
X1.95Y-1.6
X1.95Y-1.95
T3
X1.65Y-1.6
X1.65Y-2.05
X1.65Y-2.25
X1.85Y-1.6
X1.9Y-2.9
X1.9Y-3.
X1.95Y-2.05
X1.95Y-2.25
X2.05Y-2.4
X2.05Y-2.5
X2.05Y-2.7
X2.05Y-2.8
X2.5Y-1.6
X2.5Y-1.7
X2.5Y-1.8
X2.5Y-1.9
X2.5Y-2.
X2.5Y-2.1
X2.5Y-2.2
X2.5Y-2.3
X2.5Y-2.4
X2.5Y-2.5
X2.5Y-2.6
X2.5Y-2.7
X2.5Y-2.8
X2.5Y-2.9
X2.8Y-1.6
X2.8Y-1.7
X2.8Y-1.8
X2.8Y-1.9
X2.8Y-2.
X2.8Y-2.1
X2.8Y-2.2
X2.8Y-2.3
X2.8Y-2.4
X2.8Y-2.5
X2.8Y-2.6
X2.8Y-2.7
X2.8Y-2.8
X2.8Y-2.9
T4
X1.75Y-2.45
X1.75Y-2.85
X2.05Y-1.6
X2.05Y-2.
X2.95Y-1.5
T5
X1.5Y-1.6
X1.5Y-1.7
X1.5Y-1.8
X1.5Y-1.9
X1.5Y-2.
X1.5Y-2.1
X1.5Y-2.45
X1.5Y-2.55
X1.5Y-2.65
X1.5Y-2.75
X1.5Y-2.85
X1.6Y-2.45
X1.6Y-2.55
X1.6Y-2.65
X1.6Y-2.75
X1.6Y-2.85
X2.2Y-1.6
X2.2Y-1.7
X2.2Y-1.8
X2.2Y-1.9
X2.2Y-2.
X2.2Y-2.1
X2.2Y-2.2
X2.2Y-2.3
X2.2Y-2.6
X2.2Y-2.7
X2.2Y-2.8
X2.2Y-2.9
X3.1Y-1.1
X3.1Y-1.2
X3.1Y-1.6
X3.1Y-1.7
X3.1Y-1.8
X3.1Y-1.9
X3.1Y-2.
X3.1Y-2.1
X3.1Y-2.2
X3.1Y-2.3
X3.1Y-2.4
X3.1Y-2.5
X3.1Y-2.6
X3.1Y-2.7
X3.1Y-2.8
X3.1Y-2.9
T6
X2.2Y-1.1
X2.2Y-1.2
X2.2Y-1.3
T7
X1.9Y-2.5039
X1.9Y-2.6961
T8
X2.95Y-1.1
T9
X1.55Y-1.2
T0
M30
