<?xml version="1.0" standalone="no"?>
 <!DOCTYPE svg PUBLIC "-//W3C//DTD SVG 1.1//EN" 
 "http://www.w3.org/Graphics/SVG/1.1/DTD/svg11.dtd"> 
<svg xmlns="http://www.w3.org/2000/svg" version="1.1" 
    width="29.7002cm" height="21.0007cm" viewBox="0 0 116930 82680 ">
<title>SVG Picture created as cseduinop-F_Cu.svg date 2015/04/17 10:44:25 </title>
  <desc>Picture generated by PCBNEW </desc>
<g style="fill:#000000; fill-opacity:1;stroke:#000000; stroke-opacity:1;
stroke-linecap:round; stroke-linejoin:round; "
 transform="translate(0 0) scale(1 1)">
</g>
<g style="fill:#000000; fill-opacity:0.0; 
stroke:#000000; stroke-width:680; stroke-opacity:1; 
stroke-linecap:round; stroke-linejoin:round;">
<path d="M15940 24500
L16060 24500
" />
<path d="M15940 25500
L16060 25500
" />
<path d="M15940 26500
L16060 26500
" />
<path d="M15940 27500
L16060 27500
" />
<path d="M15940 28500
L16060 28500
" />
<path d="M14940 24500
L15060 24500
" />
<path d="M14940 25500
L15060 25500
" />
<path d="M14940 26500
L15060 26500
" />
<path d="M14940 27500
L15060 27500
" />
<path d="M14940 28500
L15060 28500
" />
</g>
<g style="fill:#000000; fill-opacity:0.0; 
stroke:#000000; stroke-width:39.3701; stroke-opacity:1; 
stroke-linecap:round; stroke-linejoin:round;">
</g>
<g style="fill:#000000; fill-opacity:1.0; 
stroke:#000000; stroke-width:39.3701; stroke-opacity:1; 
stroke-linecap:round; stroke-linejoin:round;">
<polyline style="fill-rule:evenodd;"
points="14619,16320
14619,15679
15380,15679
15380,16320
14619,16320
" /> 
</g>
<g style="fill:#000000; fill-opacity:1.0; 
stroke:#000000; stroke-width:680; stroke-opacity:1; 
stroke-linecap:round; stroke-linejoin:round;">
</g>
<g style="fill:#000000; fill-opacity:0.0; 
stroke:#000000; stroke-width:680; stroke-opacity:1; 
stroke-linecap:round; stroke-linejoin:round;">
<path d="M14940 17000
L15060 17000
" />
<path d="M14940 18000
L15060 18000
" />
<path d="M14940 19000
L15060 19000
" />
<path d="M14940 20000
L15060 20000
" />
<path d="M14940 21000
L15060 21000
" />
</g>
<g style="fill:#000000; fill-opacity:0.0; 
stroke:#000000; stroke-width:39.3701; stroke-opacity:1; 
stroke-linecap:round; stroke-linejoin:round;">
</g>
<g style="fill:#000000; fill-opacity:1.0; 
stroke:#000000; stroke-width:39.3701; stroke-opacity:1; 
stroke-linecap:round; stroke-linejoin:round;">
<polyline style="fill-rule:evenodd;"
points="21619,16320
21619,15679
22380,15679
22380,16320
21619,16320
" /> 
</g>
<g style="fill:#000000; fill-opacity:1.0; 
stroke:#000000; stroke-width:680; stroke-opacity:1; 
stroke-linecap:round; stroke-linejoin:round;">
</g>
<g style="fill:#000000; fill-opacity:0.0; 
stroke:#000000; stroke-width:680; stroke-opacity:1; 
stroke-linecap:round; stroke-linejoin:round;">
<path d="M21940 17000
L22060 17000
" />
<path d="M21940 18000
L22060 18000
" />
<path d="M21940 19000
L22060 19000
" />
<path d="M21940 20000
L22060 20000
" />
<path d="M21940 21000
L22060 21000
" />
<path d="M21940 22000
L22060 22000
" />
<path d="M21940 23000
L22060 23000
" />
</g>
<g style="fill:#000000; fill-opacity:0.0; 
stroke:#000000; stroke-width:800; stroke-opacity:1; 
stroke-linecap:round; stroke-linejoin:round;">
<path d="M31000 11000
L31000 11000
" />
<path d="M31000 12000
L31000 12000
" />
</g>
<g style="fill:#000000; fill-opacity:0.0; 
stroke:#000000; stroke-width:680; stroke-opacity:1; 
stroke-linecap:round; stroke-linejoin:round;">
<path d="M21940 26000
L22060 26000
" />
<path d="M21940 27000
L22060 27000
" />
<path d="M21940 28000
L22060 28000
" />
<path d="M21940 29000
L22060 29000
" />
<path d="M31060 29000
L30940 29000
" />
<path d="M31060 28000
L30940 28000
" />
<path d="M31060 27000
L30940 27000
" />
<path d="M31060 26000
L30940 26000
" />
<path d="M31060 25000
L30940 25000
" />
<path d="M31060 24000
L30940 24000
" />
<path d="M31060 23000
L30940 23000
" />
<path d="M31060 22000
L30940 22000
" />
<path d="M31060 21000
L30940 21000
" />
<path d="M31060 20000
L30940 20000
" />
<path d="M31060 19000
L30940 19000
" />
<path d="M31060 18000
L30940 18000
" />
<path d="M31060 17000
L30940 17000
" />
<path d="M31060 16000
L30940 16000
" />
</g>
<g style="fill:#000000; fill-opacity:0.0; 
stroke:#000000; stroke-width:39.3701; stroke-opacity:1; 
stroke-linecap:round; stroke-linejoin:round;">
</g>
<g style="fill:#000000; fill-opacity:1.0; 
stroke:#000000; stroke-width:39.3701; stroke-opacity:1; 
stroke-linecap:round; stroke-linejoin:round;">
<circle cx="27000" cy="12015.7" r="236.22" /> 
<polyline style="fill-rule:evenodd;"
points="27236,13236
26763,13236
26763,12763
27236,12763
27236,13236
" /> 
<circle cx="24000" cy="11984.3" r="236.22" /> 
<polyline style="fill-rule:evenodd;"
points="23763,10763
24236,10763
24236,11236
23763,11236
23763,10763
" /> 
<circle cx="20500" cy="27000" r="255.315" /> 
<circle cx="20500" cy="28000" r="255.315" /> 
<circle cx="20500" cy="25000" r="255.315" /> 
<circle cx="20500" cy="24000" r="255.315" /> 
<circle cx="19000" cy="30000" r="310.315" /> 
<circle cx="19000" cy="29000" r="310.315" /> 
</g>
<g style="fill:#000000; fill-opacity:1.0; 
stroke:#000000; stroke-width:620; stroke-opacity:1; 
stroke-linecap:round; stroke-linejoin:round;">
</g>
<g style="fill:#000000; fill-opacity:0.0; 
stroke:#000000; stroke-width:620; stroke-opacity:1; 
stroke-linecap:round; stroke-linejoin:round;">
<path d="M25140 17000
L24860 17000
" />
<path d="M25140 18000
L24860 18000
" />
<path d="M25140 19000
L24860 19000
" />
<path d="M25140 20000
L24860 20000
" />
<path d="M25140 21000
L24860 21000
" />
<path d="M25140 22000
L24860 22000
" />
<path d="M25140 23000
L24860 23000
" />
<path d="M25140 24000
L24860 24000
" />
<path d="M25140 25000
L24860 25000
" />
<path d="M25140 26000
L24860 26000
" />
<path d="M25140 27000
L24860 27000
" />
<path d="M25140 28000
L24860 28000
" />
<path d="M25140 29000
L24860 29000
" />
</g>
<g style="fill:#000000; fill-opacity:0.0; 
stroke:#000000; stroke-width:39.3701; stroke-opacity:1; 
stroke-linecap:round; stroke-linejoin:round;">
</g>
<g style="fill:#000000; fill-opacity:1.0; 
stroke:#000000; stroke-width:39.3701; stroke-opacity:1; 
stroke-linecap:round; stroke-linejoin:round;">
<polyline style="fill-rule:evenodd;"
points="24569,15709
25430,15709
25430,16290
24569,16290
24569,15709
" /> 
</g>
<g style="fill:#000000; fill-opacity:1.0; 
stroke:#000000; stroke-width:620; stroke-opacity:1; 
stroke-linecap:round; stroke-linejoin:round;">
</g>
<g style="fill:#000000; fill-opacity:0.0; 
stroke:#000000; stroke-width:620; stroke-opacity:1; 
stroke-linecap:round; stroke-linejoin:round;">
<path d="M28140 29000
L27860 29000
" />
<path d="M28140 28000
L27860 28000
" />
<path d="M28140 27000
L27860 27000
" />
<path d="M28140 26000
L27860 26000
" />
<path d="M28140 25000
L27860 25000
" />
<path d="M28140 24000
L27860 24000
" />
<path d="M28140 23000
L27860 23000
" />
<path d="M28140 22000
L27860 22000
" />
<path d="M28140 21000
L27860 21000
" />
<path d="M28140 20000
L27860 20000
" />
<path d="M28140 19000
L27860 19000
" />
<path d="M28140 18000
L27860 18000
" />
<path d="M28140 17000
L27860 17000
" />
<path d="M28140 16000
L27860 16000
" />
</g>
<g style="fill:#000000; fill-opacity:0.0; 
stroke:#000000; stroke-width:39.3701; stroke-opacity:1; 
stroke-linecap:round; stroke-linejoin:round;">
</g>
<g style="fill:#000000; fill-opacity:1.0; 
stroke:#000000; stroke-width:39.3701; stroke-opacity:1; 
stroke-linecap:round; stroke-linejoin:round;">
<circle cx="17500" cy="28500" r="373.815" /> 
<circle cx="17500" cy="24500" r="373.815" /> 
<circle cx="20500" cy="20000" r="373.815" /> 
<circle cx="20500" cy="16000" r="373.815" /> 
<circle cx="19500" cy="20500" r="255.315" /> 
<circle cx="19500" cy="22500" r="255.315" /> 
<circle cx="16500" cy="20500" r="255.315" /> 
<circle cx="16500" cy="22500" r="255.315" /> 
<polyline style="fill-rule:evenodd;"
points="17230,10269
17230,13730
13769,13730
13769,10269
17230,10269
" /> 
<circle cx="22000" cy="13000" r="330.315" /> 
<polyline style="fill-rule:evenodd;"
points="22330,11669
22330,12330
21669,12330
21669,11669
22330,11669
" /> 
<circle cx="22000" cy="11000" r="330.315" /> 
</g>
<g style="fill:#000000; fill-opacity:1.0; 
stroke:#000000; stroke-width:787; stroke-opacity:1; 
stroke-linecap:round; stroke-linejoin:round;">
</g>
<g style="fill:#000000; fill-opacity:0.0; 
stroke:#000000; stroke-width:787; stroke-opacity:1; 
stroke-linecap:round; stroke-linejoin:round;">
<path d="M18901 26961
L19098 26961
" />
<path d="M18901 25039
L19098 25039
" />
</g>
<g style="fill:#000000; fill-opacity:0.0; 
stroke:#000000; stroke-width:39.3701; stroke-opacity:1; 
stroke-linecap:round; stroke-linejoin:round;">
</g>
<g style="fill:#000000; fill-opacity:1.0; 
stroke:#000000; stroke-width:39.3701; stroke-opacity:1; 
stroke-linecap:round; stroke-linejoin:round;">
<circle cx="18500" cy="16000" r="255.315" /> 
<circle cx="16500" cy="16000" r="255.315" /> 
<circle cx="29500" cy="11000" r="373.815" /> 
<polyline style="fill-rule:evenodd;"
points="29126,14626
29873,14626
29873,15373
29126,15373
29126,14626
" /> 
<circle cx="19500" cy="19500" r="373.815" /> 
<circle cx="19500" cy="16000" r="373.815" /> 
</g>
<g style="fill:#FFFFFF; fill-opacity:1.0; 
stroke:#FFFFFF; stroke-width:39.3701; stroke-opacity:1; 
stroke-linecap:round; stroke-linejoin:round;">
<circle cx="16000" cy="24500" r="180.315" /> 
<circle cx="16000" cy="25500" r="180.315" /> 
<circle cx="16000" cy="26500" r="180.315" /> 
<circle cx="16000" cy="27500" r="180.315" /> 
<circle cx="16000" cy="28500" r="180.315" /> 
<circle cx="15000" cy="24500" r="180.315" /> 
<circle cx="15000" cy="25500" r="180.315" /> 
<circle cx="15000" cy="26500" r="180.315" /> 
<circle cx="15000" cy="27500" r="180.315" /> 
<circle cx="15000" cy="28500" r="180.315" /> 
<circle cx="15000" cy="16000" r="180.315" /> 
<circle cx="15000" cy="17000" r="180.315" /> 
<circle cx="15000" cy="18000" r="180.315" /> 
<circle cx="15000" cy="19000" r="180.315" /> 
<circle cx="15000" cy="20000" r="180.315" /> 
<circle cx="15000" cy="21000" r="180.315" /> 
<circle cx="22000" cy="16000" r="180.315" /> 
<circle cx="22000" cy="17000" r="180.315" /> 
<circle cx="22000" cy="18000" r="180.315" /> 
<circle cx="22000" cy="19000" r="180.315" /> 
<circle cx="22000" cy="20000" r="180.315" /> 
<circle cx="22000" cy="21000" r="180.315" /> 
<circle cx="22000" cy="22000" r="180.315" /> 
<circle cx="22000" cy="23000" r="180.315" /> 
<circle cx="31000" cy="11000" r="180.315" /> 
<circle cx="31000" cy="12000" r="180.315" /> 
<circle cx="22000" cy="26000" r="180.315" /> 
<circle cx="22000" cy="27000" r="180.315" /> 
<circle cx="22000" cy="28000" r="180.315" /> 
<circle cx="22000" cy="29000" r="180.315" /> 
<circle cx="31000" cy="29000" r="180.315" /> 
<circle cx="31000" cy="28000" r="180.315" /> 
<circle cx="31000" cy="27000" r="180.315" /> 
<circle cx="31000" cy="26000" r="180.315" /> 
<circle cx="31000" cy="25000" r="180.315" /> 
<circle cx="31000" cy="24000" r="180.315" /> 
<circle cx="31000" cy="23000" r="180.315" /> 
<circle cx="31000" cy="22000" r="180.315" /> 
<circle cx="31000" cy="21000" r="180.315" /> 
<circle cx="31000" cy="20000" r="180.315" /> 
<circle cx="31000" cy="19000" r="180.315" /> 
<circle cx="31000" cy="18000" r="180.315" /> 
<circle cx="31000" cy="17000" r="180.315" /> 
<circle cx="31000" cy="16000" r="180.315" /> 
<circle cx="27000" cy="12015.7" r="137.795" /> 
<circle cx="27000" cy="13000" r="137.795" /> 
<circle cx="24000" cy="11984.3" r="137.795" /> 
<circle cx="24000" cy="11000" r="137.795" /> 
<circle cx="20500" cy="27000" r="140.315" /> 
<circle cx="20500" cy="28000" r="140.315" /> 
<circle cx="20500" cy="25000" r="140.315" /> 
<circle cx="20500" cy="24000" r="140.315" /> 
<circle cx="19000" cy="30000" r="140.315" /> 
<circle cx="19000" cy="29000" r="140.315" /> 
<circle cx="25000" cy="17000" r="140.315" /> 
<circle cx="25000" cy="18000" r="140.315" /> 
<circle cx="25000" cy="19000" r="140.315" /> 
<circle cx="25000" cy="20000" r="140.315" /> 
<circle cx="25000" cy="21000" r="140.315" /> 
<circle cx="25000" cy="22000" r="140.315" /> 
<circle cx="25000" cy="23000" r="140.315" /> 
<circle cx="25000" cy="24000" r="140.315" /> 
<circle cx="25000" cy="25000" r="140.315" /> 
<circle cx="25000" cy="26000" r="140.315" /> 
<circle cx="25000" cy="27000" r="140.315" /> 
<circle cx="25000" cy="28000" r="140.315" /> 
<circle cx="25000" cy="29000" r="140.315" /> 
<circle cx="25000" cy="16000" r="140.315" /> 
<circle cx="28000" cy="29000" r="140.315" /> 
<circle cx="28000" cy="28000" r="140.315" /> 
<circle cx="28000" cy="27000" r="140.315" /> 
<circle cx="28000" cy="26000" r="140.315" /> 
<circle cx="28000" cy="25000" r="140.315" /> 
<circle cx="28000" cy="24000" r="140.315" /> 
<circle cx="28000" cy="23000" r="140.315" /> 
<circle cx="28000" cy="22000" r="140.315" /> 
<circle cx="28000" cy="21000" r="140.315" /> 
<circle cx="28000" cy="20000" r="140.315" /> 
<circle cx="28000" cy="19000" r="140.315" /> 
<circle cx="28000" cy="18000" r="140.315" /> 
<circle cx="28000" cy="17000" r="140.315" /> 
<circle cx="28000" cy="16000" r="140.315" /> 
<circle cx="17500" cy="28500" r="177.315" /> 
<circle cx="17500" cy="24500" r="177.315" /> 
<circle cx="20500" cy="20000" r="177.315" /> 
<circle cx="20500" cy="16000" r="177.315" /> 
<circle cx="19500" cy="20500" r="140.315" /> 
<circle cx="19500" cy="22500" r="140.315" /> 
<circle cx="16500" cy="20500" r="140.315" /> 
<circle cx="16500" cy="22500" r="140.315" /> 
<circle cx="15500" cy="12000" r="580.315" /> 
<circle cx="22000" cy="13000" r="205.315" /> 
<circle cx="22000" cy="12000" r="205.315" /> 
<circle cx="22000" cy="11000" r="205.315" /> 
<circle cx="19000" cy="26961" r="216.315" /> 
<circle cx="19000" cy="25039" r="216.315" /> 
<circle cx="18500" cy="16000" r="140.315" /> 
<circle cx="16500" cy="16000" r="140.315" /> 
<circle cx="29500" cy="11000" r="230.315" /> 
<circle cx="29500" cy="15000" r="177.315" /> 
<circle cx="19500" cy="19500" r="137.815" /> 
<circle cx="19500" cy="16000" r="137.815" /> 
</g> 
</svg>
