G04 #@! TF.FileFunction,Copper,L2,Bot,Signal*
%FSLAX46Y46*%
G04 Gerber Fmt 4.6, Leading zero omitted, Abs format (unit mm)*
G04 Created by KiCad (PCBNEW (2015-04-05 BZR 5577)-product) date 17-04-2015 10:44:10*
%MOMM*%
G01*
G04 APERTURE LIST*
%ADD10C,0.100000*%
%ADD11C,0.250000*%
%ADD12O,2.032000X1.727200*%
%ADD13R,2.032000X1.727200*%
%ADD14O,2.032000X2.032000*%
%ADD15C,1.300000*%
%ADD16R,1.300000X1.300000*%
%ADD17C,1.397000*%
%ADD18C,1.676400*%
%ADD19O,2.286000X1.574800*%
%ADD20R,2.286000X1.574800*%
%ADD21C,1.998980*%
%ADD22R,8.890000X8.890000*%
%ADD23C,1.778000*%
%ADD24R,1.778000X1.778000*%
%ADD25O,2.499360X1.998980*%
%ADD26R,1.998980X1.998980*%
%ADD27C,0.508000*%
%ADD28C,0.254000*%
G04 APERTURE END LIST*
D10*
D11*
X35202857Y-75571905D02*
X35155238Y-75619524D01*
X35107619Y-75762381D01*
X35107619Y-75857619D01*
X35155238Y-76000477D01*
X35250476Y-76095715D01*
X35345714Y-76143334D01*
X35536190Y-76190953D01*
X35679048Y-76190953D01*
X35869524Y-76143334D01*
X35964762Y-76095715D01*
X36060000Y-76000477D01*
X36107619Y-75857619D01*
X36107619Y-75762381D01*
X36060000Y-75619524D01*
X36012381Y-75571905D01*
X35155238Y-75190953D02*
X35107619Y-75048096D01*
X35107619Y-74810000D01*
X35155238Y-74714762D01*
X35202857Y-74667143D01*
X35298095Y-74619524D01*
X35393333Y-74619524D01*
X35488571Y-74667143D01*
X35536190Y-74714762D01*
X35583810Y-74810000D01*
X35631429Y-75000477D01*
X35679048Y-75095715D01*
X35726667Y-75143334D01*
X35821905Y-75190953D01*
X35917143Y-75190953D01*
X36012381Y-75143334D01*
X36060000Y-75095715D01*
X36107619Y-75000477D01*
X36107619Y-74762381D01*
X36060000Y-74619524D01*
X35631429Y-74190953D02*
X35631429Y-73857619D01*
X35107619Y-73714762D02*
X35107619Y-74190953D01*
X36107619Y-74190953D01*
X36107619Y-73714762D01*
X35107619Y-72857619D02*
X36107619Y-72857619D01*
X35155238Y-72857619D02*
X35107619Y-72952857D01*
X35107619Y-73143334D01*
X35155238Y-73238572D01*
X35202857Y-73286191D01*
X35298095Y-73333810D01*
X35583810Y-73333810D01*
X35679048Y-73286191D01*
X35726667Y-73238572D01*
X35774286Y-73143334D01*
X35774286Y-72952857D01*
X35726667Y-72857619D01*
X35774286Y-71952857D02*
X35107619Y-71952857D01*
X35774286Y-72381429D02*
X35250476Y-72381429D01*
X35155238Y-72333810D01*
X35107619Y-72238572D01*
X35107619Y-72095714D01*
X35155238Y-72000476D01*
X35202857Y-71952857D01*
X35107619Y-71476667D02*
X35774286Y-71476667D01*
X36107619Y-71476667D02*
X36060000Y-71524286D01*
X36012381Y-71476667D01*
X36060000Y-71429048D01*
X36107619Y-71476667D01*
X36012381Y-71476667D01*
X35774286Y-71000477D02*
X35107619Y-71000477D01*
X35679048Y-71000477D02*
X35726667Y-70952858D01*
X35774286Y-70857620D01*
X35774286Y-70714762D01*
X35726667Y-70619524D01*
X35631429Y-70571905D01*
X35107619Y-70571905D01*
X35107619Y-69952858D02*
X35155238Y-70048096D01*
X35202857Y-70095715D01*
X35298095Y-70143334D01*
X35583810Y-70143334D01*
X35679048Y-70095715D01*
X35726667Y-70048096D01*
X35774286Y-69952858D01*
X35774286Y-69810000D01*
X35726667Y-69714762D01*
X35679048Y-69667143D01*
X35583810Y-69619524D01*
X35298095Y-69619524D01*
X35202857Y-69667143D01*
X35155238Y-69714762D01*
X35107619Y-69810000D01*
X35107619Y-69952858D01*
X35107619Y-69190953D02*
X36107619Y-69190953D01*
X36107619Y-68810000D01*
X36060000Y-68714762D01*
X36012381Y-68667143D01*
X35917143Y-68619524D01*
X35774286Y-68619524D01*
X35679048Y-68667143D01*
X35631429Y-68714762D01*
X35583810Y-68810000D01*
X35583810Y-69190953D01*
X35202857Y-67619524D02*
X35155238Y-67667143D01*
X35107619Y-67810000D01*
X35107619Y-67905238D01*
X35155238Y-68048096D01*
X35250476Y-68143334D01*
X35345714Y-68190953D01*
X35536190Y-68238572D01*
X35679048Y-68238572D01*
X35869524Y-68190953D01*
X35964762Y-68143334D01*
X36060000Y-68048096D01*
X36107619Y-67905238D01*
X36107619Y-67810000D01*
X36060000Y-67667143D01*
X36012381Y-67619524D01*
X35631429Y-66857619D02*
X35583810Y-66714762D01*
X35536190Y-66667143D01*
X35440952Y-66619524D01*
X35298095Y-66619524D01*
X35202857Y-66667143D01*
X35155238Y-66714762D01*
X35107619Y-66810000D01*
X35107619Y-67190953D01*
X36107619Y-67190953D01*
X36107619Y-66857619D01*
X36060000Y-66762381D01*
X36012381Y-66714762D01*
X35917143Y-66667143D01*
X35821905Y-66667143D01*
X35726667Y-66714762D01*
X35679048Y-66762381D01*
X35631429Y-66857619D01*
X35631429Y-67190953D01*
X35107619Y-65667143D02*
X35107619Y-66238572D01*
X35107619Y-65952858D02*
X36107619Y-65952858D01*
X35964762Y-66048096D01*
X35869524Y-66143334D01*
X35821905Y-66238572D01*
X35202857Y-65238572D02*
X35155238Y-65190953D01*
X35107619Y-65238572D01*
X35155238Y-65286191D01*
X35202857Y-65238572D01*
X35107619Y-65238572D01*
X36012381Y-64810001D02*
X36060000Y-64762382D01*
X36107619Y-64667144D01*
X36107619Y-64429048D01*
X36060000Y-64333810D01*
X36012381Y-64286191D01*
X35917143Y-64238572D01*
X35821905Y-64238572D01*
X35679048Y-64286191D01*
X35107619Y-64857620D01*
X35107619Y-64238572D01*
X36107619Y-62762381D02*
X35393333Y-62762381D01*
X35250476Y-62810001D01*
X35155238Y-62905239D01*
X35107619Y-63048096D01*
X35107619Y-63143334D01*
X35202857Y-62286191D02*
X35155238Y-62238572D01*
X35107619Y-62286191D01*
X35155238Y-62333810D01*
X35202857Y-62286191D01*
X35107619Y-62286191D01*
X35393333Y-61857620D02*
X35393333Y-61381429D01*
X35107619Y-61952858D02*
X36107619Y-61619525D01*
X35107619Y-61286191D01*
X35107619Y-60810001D02*
X35155238Y-60905239D01*
X35250476Y-60952858D01*
X36107619Y-60952858D01*
X35774286Y-60524286D02*
X35107619Y-60286191D01*
X35774286Y-60048095D01*
X35155238Y-59286190D02*
X35107619Y-59381428D01*
X35107619Y-59571905D01*
X35155238Y-59667143D01*
X35250476Y-59714762D01*
X35631429Y-59714762D01*
X35726667Y-59667143D01*
X35774286Y-59571905D01*
X35774286Y-59381428D01*
X35726667Y-59286190D01*
X35631429Y-59238571D01*
X35536190Y-59238571D01*
X35440952Y-59714762D01*
X35155238Y-58857619D02*
X35107619Y-58762381D01*
X35107619Y-58571905D01*
X35155238Y-58476666D01*
X35250476Y-58429047D01*
X35298095Y-58429047D01*
X35393333Y-58476666D01*
X35440952Y-58571905D01*
X35440952Y-58714762D01*
X35488571Y-58810000D01*
X35583810Y-58857619D01*
X35631429Y-58857619D01*
X35726667Y-58810000D01*
X35774286Y-58714762D01*
X35774286Y-58571905D01*
X35726667Y-58476666D01*
D12*
X40640000Y-62230000D03*
X40640000Y-64770000D03*
X40640000Y-67310000D03*
X40640000Y-69850000D03*
X40640000Y-72390000D03*
X38100000Y-62230000D03*
X38100000Y-64770000D03*
X38100000Y-67310000D03*
X38100000Y-69850000D03*
X38100000Y-72390000D03*
D13*
X38100000Y-40640000D03*
D12*
X38100000Y-43180000D03*
X38100000Y-45720000D03*
X38100000Y-48260000D03*
X38100000Y-50800000D03*
X38100000Y-53340000D03*
D13*
X55880000Y-40640000D03*
D12*
X55880000Y-43180000D03*
X55880000Y-45720000D03*
X55880000Y-48260000D03*
X55880000Y-50800000D03*
X55880000Y-53340000D03*
X55880000Y-55880000D03*
X55880000Y-58420000D03*
D14*
X78740000Y-27940000D03*
X78740000Y-30480000D03*
D12*
X55880000Y-66040000D03*
X55880000Y-68580000D03*
X55880000Y-71120000D03*
X55880000Y-73660000D03*
X78740000Y-73660000D03*
X78740000Y-71120000D03*
X78740000Y-68580000D03*
X78740000Y-66040000D03*
X78740000Y-63500000D03*
X78740000Y-60960000D03*
X78740000Y-58420000D03*
X78740000Y-55880000D03*
X78740000Y-53340000D03*
X78740000Y-50800000D03*
X78740000Y-48260000D03*
X78740000Y-45720000D03*
X78740000Y-43180000D03*
X78740000Y-40640000D03*
D15*
X68580000Y-30520000D03*
D16*
X68580000Y-33020000D03*
D15*
X60960000Y-30440000D03*
D16*
X60960000Y-27940000D03*
D17*
X52070000Y-68580000D03*
X52070000Y-71120000D03*
X52070000Y-63500000D03*
X52070000Y-60960000D03*
D18*
X48260000Y-76200000D03*
X48260000Y-73660000D03*
D19*
X63500000Y-43180000D03*
X63500000Y-45720000D03*
X63500000Y-48260000D03*
X63500000Y-50800000D03*
X63500000Y-53340000D03*
X63500000Y-55880000D03*
X63500000Y-58420000D03*
X63500000Y-60960000D03*
X63500000Y-63500000D03*
X63500000Y-66040000D03*
X63500000Y-68580000D03*
X63500000Y-71120000D03*
X63500000Y-73660000D03*
D20*
X63500000Y-40640000D03*
D19*
X71120000Y-73660000D03*
X71120000Y-71120000D03*
X71120000Y-68580000D03*
X71120000Y-66040000D03*
X71120000Y-63500000D03*
X71120000Y-60960000D03*
X71120000Y-58420000D03*
X71120000Y-55880000D03*
X71120000Y-53340000D03*
X71120000Y-50800000D03*
X71120000Y-48260000D03*
X71120000Y-45720000D03*
X71120000Y-43180000D03*
X71120000Y-40640000D03*
D21*
X44450000Y-72390000D03*
X44450000Y-62230000D03*
X52070000Y-50800000D03*
X52070000Y-40640000D03*
D17*
X49530000Y-52070000D03*
X49530000Y-57150000D03*
X41910000Y-52070000D03*
X41910000Y-57150000D03*
D22*
X39370000Y-30480000D03*
D23*
X55880000Y-33020000D03*
D24*
X55880000Y-30480000D03*
D23*
X55880000Y-27940000D03*
D25*
X48260000Y-68480940D03*
X48260000Y-63599060D03*
D17*
X46990000Y-40640000D03*
X41910000Y-40640000D03*
D21*
X74930000Y-27940000D03*
D26*
X74930000Y-38100000D03*
D21*
X49530000Y-49530000D03*
X49530000Y-40640000D03*
D27*
X44450000Y-62230000D02*
X44450000Y-68580000D01*
X46990000Y-71120000D02*
X52070000Y-71120000D01*
X44450000Y-68580000D02*
X46990000Y-71120000D01*
X49530000Y-57150000D02*
X49530000Y-57150000D01*
X53340000Y-31750000D02*
X53340000Y-34290000D01*
X53340000Y-34290000D02*
X54610000Y-35560000D01*
X41910000Y-57150000D02*
X41910000Y-59690000D01*
X41910000Y-59690000D02*
X41910000Y-57150000D01*
X44450000Y-62230000D02*
X41910000Y-59690000D01*
X40640000Y-62230000D02*
X44450000Y-62230000D01*
X40640000Y-64770000D02*
X40640000Y-62230000D01*
X40640000Y-67310000D02*
X40640000Y-64770000D01*
X40640000Y-69850000D02*
X40640000Y-67310000D01*
X40640000Y-72390000D02*
X40640000Y-69850000D01*
X52070000Y-59690000D02*
X52070000Y-60960000D01*
X50800000Y-58420000D02*
X52070000Y-59690000D01*
X55880000Y-58420000D02*
X50800000Y-58420000D01*
X63500000Y-58420000D02*
X55880000Y-58420000D01*
X49530000Y-57150000D02*
X41910000Y-57150000D01*
X50800000Y-58420000D02*
X49530000Y-57150000D01*
X38100000Y-53340000D02*
X38100000Y-50800000D01*
X41910000Y-57150000D02*
X38100000Y-53340000D01*
X67310000Y-58420000D02*
X69850000Y-55880000D01*
X63500000Y-58420000D02*
X67310000Y-58420000D01*
X69850000Y-55880000D02*
X78740000Y-55880000D01*
X68580000Y-54610000D02*
X69850000Y-55880000D01*
X68580000Y-38100000D02*
X68580000Y-54610000D01*
X66040000Y-35560000D02*
X68580000Y-38100000D01*
X54610000Y-35560000D02*
X66040000Y-35560000D01*
X53340000Y-34290000D02*
X54610000Y-35560000D01*
X53340000Y-31750000D02*
X53340000Y-34290000D01*
X54610000Y-30480000D02*
X53340000Y-31750000D01*
X54570000Y-30520000D02*
X78740000Y-30480000D01*
X73660000Y-38100000D02*
X74930000Y-38100000D01*
X68580000Y-33020000D02*
X73660000Y-38100000D01*
X55880000Y-33020000D02*
X68580000Y-33020000D01*
X39370000Y-76200000D02*
X38100000Y-74930000D01*
X38100000Y-74930000D02*
X38100000Y-57150000D01*
X64770000Y-36830000D02*
X53340000Y-36830000D01*
X52070000Y-29210000D02*
X52070000Y-35560000D01*
X53340000Y-27940000D02*
X52070000Y-29210000D01*
X67310000Y-54610000D02*
X66040000Y-55880000D01*
X67310000Y-54610000D02*
X67310000Y-39370000D01*
X67310000Y-39370000D02*
X64770000Y-36830000D01*
X53340000Y-36830000D02*
X52070000Y-35560000D01*
X40640000Y-48260000D02*
X40640000Y-48260000D01*
X52070000Y-48260000D02*
X52070000Y-50800000D01*
X50800000Y-46990000D02*
X52070000Y-48260000D01*
X41910000Y-46990000D02*
X50800000Y-46990000D01*
X40640000Y-48260000D02*
X41910000Y-46990000D01*
X35560000Y-48260000D02*
X40640000Y-48260000D01*
X35560000Y-54610000D02*
X35560000Y-48260000D01*
X38100000Y-57150000D02*
X35560000Y-54610000D01*
X48260000Y-76200000D02*
X39370000Y-76200000D01*
X68580000Y-60960000D02*
X78740000Y-60960000D01*
X67310000Y-62230000D02*
X68580000Y-60960000D01*
X66040000Y-76200000D02*
X67310000Y-74930000D01*
X67310000Y-74930000D02*
X67310000Y-62230000D01*
X48260000Y-76200000D02*
X66040000Y-76200000D01*
X52070000Y-50800000D02*
X52070000Y-52070000D01*
X52070000Y-52070000D02*
X52070000Y-54610000D01*
X53340000Y-55880000D02*
X55880000Y-55880000D01*
X52070000Y-54610000D02*
X53340000Y-55880000D01*
X53340000Y-27940000D02*
X60960000Y-27940000D01*
X55880000Y-55880000D02*
X66040000Y-55880000D01*
X54610000Y-63500000D02*
X63500000Y-63500000D01*
X52070000Y-66040000D02*
X54610000Y-63500000D01*
X52070000Y-68580000D02*
X52070000Y-66040000D01*
X48260000Y-68480940D02*
X51970940Y-68480940D01*
X51970940Y-63599060D02*
X52070000Y-63500000D01*
X52070000Y-63500000D02*
X52070000Y-63500000D01*
X48359060Y-63500000D02*
X48260000Y-63599060D01*
X52070000Y-63500000D02*
X48359060Y-63500000D01*
X54610000Y-60960000D02*
X52070000Y-63500000D01*
X63500000Y-60960000D02*
X54610000Y-60960000D01*
X49530000Y-52070000D02*
X49530000Y-49530000D01*
X41910000Y-52070000D02*
X49530000Y-52070000D01*
X55880000Y-40640000D02*
X63500000Y-40640000D01*
X52070000Y-40640000D02*
X55880000Y-40640000D01*
X52070000Y-40640000D02*
X46990000Y-40640000D01*
X38100000Y-40640000D02*
X41910000Y-40640000D01*
X74930000Y-27940000D02*
X78740000Y-27940000D01*
X43180000Y-38100000D02*
X44450000Y-39370000D01*
X35560000Y-38100000D02*
X43180000Y-38100000D01*
X55880000Y-43180000D02*
X63500000Y-43180000D01*
X45720000Y-43180000D02*
X55880000Y-43180000D01*
X44450000Y-39370000D02*
X44450000Y-41910000D01*
X44450000Y-41910000D02*
X45720000Y-43180000D01*
X35560000Y-45720000D02*
X35560000Y-38100000D01*
X38100000Y-45720000D02*
X35560000Y-45720000D01*
X41910000Y-43180000D02*
X44450000Y-45720000D01*
X44450000Y-45720000D02*
X55880000Y-45720000D01*
X38100000Y-43180000D02*
X41910000Y-43180000D01*
X55880000Y-45720000D02*
X63500000Y-45720000D01*
X55880000Y-48260000D02*
X63500000Y-48260000D01*
X55880000Y-50800000D02*
X63500000Y-50800000D01*
X55880000Y-53340000D02*
X63500000Y-53340000D01*
X55880000Y-66040000D02*
X63500000Y-66040000D01*
X55880000Y-68580000D02*
X63500000Y-68580000D01*
X55880000Y-71120000D02*
X63500000Y-71120000D01*
X55880000Y-73660000D02*
X63500000Y-73660000D01*
X71120000Y-73660000D02*
X78740000Y-73660000D01*
X71120000Y-71120000D02*
X78740000Y-71120000D01*
X71120000Y-68580000D02*
X78740000Y-68580000D01*
X71120000Y-66040000D02*
X78740000Y-66040000D01*
X71120000Y-63500000D02*
X78740000Y-63500000D01*
X71120000Y-58420000D02*
X78740000Y-58420000D01*
X71120000Y-53340000D02*
X78740000Y-53340000D01*
X71120000Y-50800000D02*
X78740000Y-50800000D01*
X71120000Y-48260000D02*
X78740000Y-48260000D01*
X71120000Y-45720000D02*
X78740000Y-45720000D01*
X71120000Y-43180000D02*
X78740000Y-43180000D01*
X71120000Y-40640000D02*
X78740000Y-40640000D01*
X45720000Y-73660000D02*
X44450000Y-72390000D01*
X48260000Y-73660000D02*
X45720000Y-73660000D01*
D28*
G36*
X80849000Y-78309000D02*
X80423345Y-78309000D01*
X80423345Y-73660000D01*
X80309271Y-73086511D01*
X79984415Y-72600330D01*
X79669634Y-72390000D01*
X79984415Y-72179670D01*
X80309271Y-71693489D01*
X80423345Y-71120000D01*
X80309271Y-70546511D01*
X79984415Y-70060330D01*
X79669634Y-69850000D01*
X79984415Y-69639670D01*
X80309271Y-69153489D01*
X80423345Y-68580000D01*
X80309271Y-68006511D01*
X79984415Y-67520330D01*
X79669634Y-67310000D01*
X79984415Y-67099670D01*
X80309271Y-66613489D01*
X80423345Y-66040000D01*
X80309271Y-65466511D01*
X79984415Y-64980330D01*
X79669634Y-64770000D01*
X79984415Y-64559670D01*
X80309271Y-64073489D01*
X80423345Y-63500000D01*
X80309271Y-62926511D01*
X79984415Y-62440330D01*
X79669634Y-62230000D01*
X79984415Y-62019670D01*
X80309271Y-61533489D01*
X80423345Y-60960000D01*
X80309271Y-60386511D01*
X79984415Y-59900330D01*
X79669634Y-59690000D01*
X79984415Y-59479670D01*
X80309271Y-58993489D01*
X80423345Y-58420000D01*
X80423345Y-53340000D01*
X80309271Y-52766511D01*
X79984415Y-52280330D01*
X79669634Y-52070000D01*
X79984415Y-51859670D01*
X80309271Y-51373489D01*
X80423345Y-50800000D01*
X80309271Y-50226511D01*
X79984415Y-49740330D01*
X79669634Y-49530000D01*
X79984415Y-49319670D01*
X80309271Y-48833489D01*
X80423345Y-48260000D01*
X80309271Y-47686511D01*
X79984415Y-47200330D01*
X79669634Y-46990000D01*
X79984415Y-46779670D01*
X80309271Y-46293489D01*
X80423345Y-45720000D01*
X80309271Y-45146511D01*
X79984415Y-44660330D01*
X79669634Y-44450000D01*
X79984415Y-44239670D01*
X80309271Y-43753489D01*
X80423345Y-43180000D01*
X80309271Y-42606511D01*
X79984415Y-42120330D01*
X79669634Y-41910000D01*
X79984415Y-41699670D01*
X80309271Y-41213489D01*
X80423345Y-40640000D01*
X80423345Y-27940000D01*
X80297670Y-27308190D01*
X79939778Y-26772567D01*
X79404155Y-26414675D01*
X78772345Y-26289000D01*
X78707655Y-26289000D01*
X78075845Y-26414675D01*
X77540222Y-26772567D01*
X77354178Y-27051000D01*
X76331194Y-27051000D01*
X76316462Y-27015345D01*
X75857073Y-26555154D01*
X75256547Y-26305794D01*
X74606306Y-26305226D01*
X74005345Y-26553538D01*
X73545154Y-27012927D01*
X73295794Y-27613453D01*
X73295226Y-28263694D01*
X73543538Y-28864655D01*
X74002927Y-29324846D01*
X74603453Y-29574206D01*
X75253694Y-29574774D01*
X75854655Y-29326462D01*
X76314846Y-28867073D01*
X76330655Y-28829000D01*
X77354178Y-28829000D01*
X77540222Y-29107433D01*
X77703354Y-29216434D01*
X77333615Y-29615182D01*
X77134025Y-30097056D01*
X77253164Y-30353000D01*
X78613000Y-30353000D01*
X78613000Y-30333000D01*
X78867000Y-30333000D01*
X78867000Y-30353000D01*
X80226836Y-30353000D01*
X80345975Y-30097056D01*
X80146385Y-29615182D01*
X79776645Y-29216434D01*
X79939778Y-29107433D01*
X80297670Y-28571810D01*
X80423345Y-27940000D01*
X80423345Y-40640000D01*
X80345975Y-40251034D01*
X80345975Y-30862944D01*
X80226836Y-30607000D01*
X78867000Y-30607000D01*
X78867000Y-31967367D01*
X79122946Y-32085983D01*
X79708379Y-31817188D01*
X80146385Y-31344818D01*
X80345975Y-30862944D01*
X80345975Y-40251034D01*
X80309271Y-40066511D01*
X79984415Y-39580330D01*
X79498234Y-39255474D01*
X78924745Y-39141400D01*
X78613000Y-39141400D01*
X78613000Y-31967367D01*
X78613000Y-30607000D01*
X77253164Y-30607000D01*
X77134025Y-30862944D01*
X77333615Y-31344818D01*
X77771621Y-31817188D01*
X78357054Y-32085983D01*
X78613000Y-31967367D01*
X78613000Y-39141400D01*
X78555255Y-39141400D01*
X77981766Y-39255474D01*
X77495585Y-39580330D01*
X77381546Y-39751000D01*
X76576930Y-39751000D01*
X76576930Y-39099490D01*
X76576930Y-37100510D01*
X76529953Y-36858387D01*
X76390163Y-36645583D01*
X76179130Y-36503133D01*
X75929490Y-36453070D01*
X73930510Y-36453070D01*
X73688387Y-36500047D01*
X73475583Y-36639837D01*
X73468123Y-36650887D01*
X69877622Y-33060386D01*
X69877622Y-30700922D01*
X69848083Y-30190572D01*
X69709611Y-29856271D01*
X69479016Y-29800590D01*
X69299410Y-29980195D01*
X69299410Y-29620984D01*
X69243729Y-29390389D01*
X68760922Y-29222378D01*
X68250572Y-29251917D01*
X67916271Y-29390389D01*
X67860590Y-29620984D01*
X68580000Y-30340395D01*
X69299410Y-29620984D01*
X69299410Y-29980195D01*
X68759605Y-30520000D01*
X69479016Y-31239410D01*
X69709611Y-31183729D01*
X69877622Y-30700922D01*
X69877622Y-33060386D01*
X69877440Y-33060204D01*
X69877440Y-32370000D01*
X69830463Y-32127877D01*
X69690673Y-31915073D01*
X69479640Y-31772623D01*
X69230000Y-31722560D01*
X69067614Y-31722560D01*
X69243729Y-31649611D01*
X69299410Y-31419016D01*
X68580000Y-30699605D01*
X68400395Y-30879210D01*
X68400395Y-30520000D01*
X67680984Y-29800590D01*
X67450389Y-29856271D01*
X67282378Y-30339078D01*
X67311917Y-30849428D01*
X67450389Y-31183729D01*
X67680984Y-31239410D01*
X68400395Y-30520000D01*
X68400395Y-30879210D01*
X67860590Y-31419016D01*
X67916271Y-31649611D01*
X68125901Y-31722560D01*
X67930000Y-31722560D01*
X67687877Y-31769537D01*
X67475073Y-31909327D01*
X67332623Y-32120360D01*
X67330489Y-32131000D01*
X62257622Y-32131000D01*
X62257622Y-30620922D01*
X62228083Y-30110572D01*
X62089611Y-29776271D01*
X61859016Y-29720590D01*
X61139605Y-30440000D01*
X61859016Y-31159410D01*
X62089611Y-31103729D01*
X62257622Y-30620922D01*
X62257622Y-32131000D01*
X61679410Y-32131000D01*
X61679410Y-31339016D01*
X60960000Y-30619605D01*
X60780395Y-30799210D01*
X60780395Y-30440000D01*
X60060984Y-29720590D01*
X59830389Y-29776271D01*
X59662378Y-30259078D01*
X59691917Y-30769428D01*
X59830389Y-31103729D01*
X60060984Y-31159410D01*
X60780395Y-30440000D01*
X60780395Y-30799210D01*
X60240590Y-31339016D01*
X60296271Y-31569611D01*
X60779078Y-31737622D01*
X61289428Y-31708083D01*
X61623729Y-31569611D01*
X61679410Y-31339016D01*
X61679410Y-32131000D01*
X57145933Y-32131000D01*
X56982926Y-31967707D01*
X57128698Y-31907327D01*
X57307327Y-31728699D01*
X57404000Y-31495310D01*
X57404000Y-31242691D01*
X57404000Y-30765750D01*
X57245250Y-30607000D01*
X56007000Y-30607000D01*
X56007000Y-30627000D01*
X55753000Y-30627000D01*
X55753000Y-30607000D01*
X54514750Y-30607000D01*
X54356000Y-30765750D01*
X54356000Y-31242691D01*
X54356000Y-31495310D01*
X54452673Y-31728699D01*
X54631302Y-31907327D01*
X54777011Y-31967681D01*
X54588769Y-32155596D01*
X54356265Y-32715528D01*
X54355736Y-33321812D01*
X54587262Y-33882149D01*
X55015596Y-34311231D01*
X55575528Y-34543735D01*
X56181812Y-34544264D01*
X56742149Y-34312738D01*
X57146592Y-33909000D01*
X67328931Y-33909000D01*
X67329537Y-33912123D01*
X67469327Y-34124927D01*
X67680360Y-34267377D01*
X67930000Y-34317440D01*
X68620204Y-34317440D01*
X73031382Y-38728618D01*
X73283070Y-38896790D01*
X73283070Y-39099490D01*
X73330047Y-39341613D01*
X73469837Y-39554417D01*
X73680870Y-39696867D01*
X73930510Y-39746930D01*
X75929490Y-39746930D01*
X76171613Y-39699953D01*
X76384417Y-39560163D01*
X76526867Y-39349130D01*
X76576930Y-39099490D01*
X76576930Y-39751000D01*
X72594257Y-39751000D01*
X72516222Y-39634211D01*
X72054762Y-39325874D01*
X71510433Y-39217600D01*
X70729567Y-39217600D01*
X70185238Y-39325874D01*
X69723778Y-39634211D01*
X69415441Y-40095671D01*
X69307167Y-40640000D01*
X69415441Y-41184329D01*
X69723778Y-41645789D01*
X70119198Y-41910000D01*
X69723778Y-42174211D01*
X69415441Y-42635671D01*
X69307167Y-43180000D01*
X69415441Y-43724329D01*
X69723778Y-44185789D01*
X70119198Y-44450000D01*
X69723778Y-44714211D01*
X69415441Y-45175671D01*
X69307167Y-45720000D01*
X69415441Y-46264329D01*
X69723778Y-46725789D01*
X70119198Y-46990000D01*
X69723778Y-47254211D01*
X69415441Y-47715671D01*
X69307167Y-48260000D01*
X69415441Y-48804329D01*
X69723778Y-49265789D01*
X70119198Y-49530000D01*
X69723778Y-49794211D01*
X69415441Y-50255671D01*
X69307167Y-50800000D01*
X69415441Y-51344329D01*
X69723778Y-51805789D01*
X70119198Y-52070000D01*
X69723778Y-52334211D01*
X69415441Y-52795671D01*
X69307167Y-53340000D01*
X69415441Y-53884329D01*
X69723778Y-54345789D01*
X70118829Y-54609753D01*
X70102738Y-54614475D01*
X69668809Y-54964014D01*
X69401673Y-55453004D01*
X69384990Y-55532940D01*
X69507148Y-55753000D01*
X70993000Y-55753000D01*
X70993000Y-55733000D01*
X71247000Y-55733000D01*
X71247000Y-55753000D01*
X72732852Y-55753000D01*
X72855010Y-55532940D01*
X72838327Y-55453004D01*
X72571191Y-54964014D01*
X72137262Y-54614475D01*
X72121170Y-54609753D01*
X72516222Y-54345789D01*
X72594257Y-54229000D01*
X77381546Y-54229000D01*
X77495585Y-54399670D01*
X77805069Y-54606460D01*
X77389268Y-54977964D01*
X77135291Y-55505209D01*
X77132642Y-55520974D01*
X77253783Y-55753000D01*
X78613000Y-55753000D01*
X78613000Y-55733000D01*
X78867000Y-55733000D01*
X78867000Y-55753000D01*
X80226217Y-55753000D01*
X80347358Y-55520974D01*
X80344709Y-55505209D01*
X80090732Y-54977964D01*
X79674930Y-54606460D01*
X79984415Y-54399670D01*
X80309271Y-53913489D01*
X80423345Y-53340000D01*
X80423345Y-58420000D01*
X80309271Y-57846511D01*
X79984415Y-57360330D01*
X79674930Y-57153539D01*
X80090732Y-56782036D01*
X80344709Y-56254791D01*
X80347358Y-56239026D01*
X80226217Y-56007000D01*
X78867000Y-56007000D01*
X78867000Y-56027000D01*
X78613000Y-56027000D01*
X78613000Y-56007000D01*
X77253783Y-56007000D01*
X77132642Y-56239026D01*
X77135291Y-56254791D01*
X77389268Y-56782036D01*
X77805069Y-57153539D01*
X77495585Y-57360330D01*
X77381546Y-57531000D01*
X72594257Y-57531000D01*
X72516222Y-57414211D01*
X72121170Y-57150246D01*
X72137262Y-57145525D01*
X72571191Y-56795986D01*
X72838327Y-56306996D01*
X72855010Y-56227060D01*
X72732852Y-56007000D01*
X71247000Y-56007000D01*
X71247000Y-56027000D01*
X70993000Y-56027000D01*
X70993000Y-56007000D01*
X69507148Y-56007000D01*
X69384990Y-56227060D01*
X69401673Y-56306996D01*
X69668809Y-56795986D01*
X70102738Y-57145525D01*
X70118829Y-57150246D01*
X69723778Y-57414211D01*
X69415441Y-57875671D01*
X69307167Y-58420000D01*
X69415441Y-58964329D01*
X69723778Y-59425789D01*
X70119198Y-59690000D01*
X69723778Y-59954211D01*
X69645742Y-60071000D01*
X68580000Y-60071000D01*
X68239794Y-60138671D01*
X67951382Y-60331382D01*
X66681382Y-61601382D01*
X66488671Y-61889794D01*
X66421000Y-62230000D01*
X66421000Y-74561764D01*
X65671764Y-75311000D01*
X65312833Y-75311000D01*
X65312833Y-73660000D01*
X65204559Y-73115671D01*
X64896222Y-72654211D01*
X64500801Y-72390000D01*
X64896222Y-72125789D01*
X65204559Y-71664329D01*
X65312833Y-71120000D01*
X65204559Y-70575671D01*
X64896222Y-70114211D01*
X64500801Y-69850000D01*
X64896222Y-69585789D01*
X65204559Y-69124329D01*
X65312833Y-68580000D01*
X65204559Y-68035671D01*
X64896222Y-67574211D01*
X64500801Y-67310000D01*
X64896222Y-67045789D01*
X65204559Y-66584329D01*
X65312833Y-66040000D01*
X65204559Y-65495671D01*
X64896222Y-65034211D01*
X64500801Y-64770000D01*
X64896222Y-64505789D01*
X65204559Y-64044329D01*
X65312833Y-63500000D01*
X65204559Y-62955671D01*
X64896222Y-62494211D01*
X64500801Y-62230000D01*
X64896222Y-61965789D01*
X65204559Y-61504329D01*
X65312833Y-60960000D01*
X65204559Y-60415671D01*
X64896222Y-59954211D01*
X64501170Y-59690246D01*
X64517262Y-59685525D01*
X64951191Y-59335986D01*
X65218327Y-58846996D01*
X65235010Y-58767060D01*
X65112852Y-58547000D01*
X63627000Y-58547000D01*
X63627000Y-58567000D01*
X63373000Y-58567000D01*
X63373000Y-58547000D01*
X61887148Y-58547000D01*
X61764990Y-58767060D01*
X61781673Y-58846996D01*
X62048809Y-59335986D01*
X62482738Y-59685525D01*
X62498829Y-59690246D01*
X62103778Y-59954211D01*
X62025742Y-60071000D01*
X57487358Y-60071000D01*
X57487358Y-58779026D01*
X57366217Y-58547000D01*
X56007000Y-58547000D01*
X56007000Y-59760924D01*
X56241913Y-59905184D01*
X56794320Y-59711954D01*
X57230732Y-59322036D01*
X57484709Y-58794791D01*
X57487358Y-58779026D01*
X57487358Y-60071000D01*
X55753000Y-60071000D01*
X55753000Y-59760924D01*
X55753000Y-58547000D01*
X54393783Y-58547000D01*
X54272642Y-58779026D01*
X54275291Y-58794791D01*
X54529268Y-59322036D01*
X54965680Y-59711954D01*
X55518087Y-59905184D01*
X55753000Y-59760924D01*
X55753000Y-60071000D01*
X54610000Y-60071000D01*
X54269794Y-60138671D01*
X53981382Y-60331382D01*
X53402751Y-60910012D01*
X53387148Y-60622801D01*
X53239800Y-60267071D01*
X53004188Y-60205417D01*
X52824583Y-60385022D01*
X52824583Y-60025812D01*
X52762929Y-59790200D01*
X52262520Y-59614073D01*
X51732801Y-59642852D01*
X51377071Y-59790200D01*
X51315417Y-60025812D01*
X52070000Y-60780395D01*
X52824583Y-60025812D01*
X52824583Y-60385022D01*
X52249605Y-60960000D01*
X52263747Y-60974142D01*
X52084142Y-61153747D01*
X52070000Y-61139605D01*
X51890395Y-61319210D01*
X51890395Y-60960000D01*
X51135812Y-60205417D01*
X50900200Y-60267071D01*
X50875927Y-60336035D01*
X50875927Y-57342520D01*
X50847148Y-56812801D01*
X50699800Y-56457071D01*
X50464188Y-56395417D01*
X50284583Y-56575022D01*
X50284583Y-56215812D01*
X50222929Y-55980200D01*
X49722520Y-55804073D01*
X49192801Y-55832852D01*
X48837071Y-55980200D01*
X48775417Y-56215812D01*
X49530000Y-56970395D01*
X50284583Y-56215812D01*
X50284583Y-56575022D01*
X49709605Y-57150000D01*
X50464188Y-57904583D01*
X50699800Y-57842929D01*
X50875927Y-57342520D01*
X50875927Y-60336035D01*
X50724073Y-60767480D01*
X50752852Y-61297199D01*
X50900200Y-61652929D01*
X51135812Y-61714583D01*
X51890395Y-60960000D01*
X51890395Y-61319210D01*
X51315417Y-61894188D01*
X51377071Y-62129800D01*
X51656311Y-62228083D01*
X51315620Y-62368854D01*
X51073051Y-62611000D01*
X50284583Y-62611000D01*
X50284583Y-58084188D01*
X49530000Y-57329605D01*
X49350395Y-57509210D01*
X49350395Y-57150000D01*
X48595812Y-56395417D01*
X48360200Y-56457071D01*
X48184073Y-56957480D01*
X48212852Y-57487199D01*
X48360200Y-57842929D01*
X48595812Y-57904583D01*
X49350395Y-57150000D01*
X49350395Y-57509210D01*
X48775417Y-58084188D01*
X48837071Y-58319800D01*
X49337480Y-58495927D01*
X49867199Y-58467148D01*
X50222929Y-58319800D01*
X50284583Y-58084188D01*
X50284583Y-62611000D01*
X49814924Y-62611000D01*
X49702872Y-62443301D01*
X49172605Y-62088988D01*
X48547113Y-61964570D01*
X47972887Y-61964570D01*
X47347395Y-62088988D01*
X46817128Y-62443301D01*
X46462815Y-62973568D01*
X46338397Y-63599060D01*
X46462815Y-64224552D01*
X46817128Y-64754819D01*
X47347395Y-65109132D01*
X47972887Y-65233550D01*
X48547113Y-65233550D01*
X49172605Y-65109132D01*
X49702872Y-64754819D01*
X49947304Y-64389000D01*
X51073239Y-64389000D01*
X51313647Y-64629827D01*
X51803587Y-64833268D01*
X52019307Y-64833456D01*
X51441382Y-65411382D01*
X51248671Y-65699794D01*
X51181000Y-66040000D01*
X51181000Y-67583239D01*
X51172284Y-67591940D01*
X49881114Y-67591940D01*
X49702872Y-67325181D01*
X49172605Y-66970868D01*
X48547113Y-66846450D01*
X47972887Y-66846450D01*
X47347395Y-66970868D01*
X46817128Y-67325181D01*
X46462815Y-67855448D01*
X46338397Y-68480940D01*
X46462815Y-69106432D01*
X46817128Y-69636699D01*
X47347395Y-69991012D01*
X47972887Y-70115430D01*
X48547113Y-70115430D01*
X49172605Y-69991012D01*
X49702872Y-69636699D01*
X49881114Y-69369940D01*
X50974352Y-69369940D01*
X51313647Y-69709827D01*
X51635118Y-69843313D01*
X51377071Y-69950200D01*
X51315417Y-70185812D01*
X52070000Y-70940395D01*
X52824583Y-70185812D01*
X52762929Y-69950200D01*
X52483688Y-69851916D01*
X52824380Y-69711146D01*
X53199827Y-69336353D01*
X53403268Y-68846413D01*
X53403731Y-68315914D01*
X53201146Y-67825620D01*
X52959000Y-67583051D01*
X52959000Y-66408236D01*
X54978236Y-64389000D01*
X62025742Y-64389000D01*
X62103778Y-64505789D01*
X62499198Y-64770000D01*
X62103778Y-65034211D01*
X62025742Y-65151000D01*
X57238453Y-65151000D01*
X57124415Y-64980330D01*
X56638234Y-64655474D01*
X56064745Y-64541400D01*
X55695255Y-64541400D01*
X55121766Y-64655474D01*
X54635585Y-64980330D01*
X54310729Y-65466511D01*
X54196655Y-66040000D01*
X54310729Y-66613489D01*
X54635585Y-67099670D01*
X54950365Y-67310000D01*
X54635585Y-67520330D01*
X54310729Y-68006511D01*
X54196655Y-68580000D01*
X54310729Y-69153489D01*
X54635585Y-69639670D01*
X54950365Y-69850000D01*
X54635585Y-70060330D01*
X54310729Y-70546511D01*
X54196655Y-71120000D01*
X54310729Y-71693489D01*
X54635585Y-72179670D01*
X54950365Y-72390000D01*
X54635585Y-72600330D01*
X54310729Y-73086511D01*
X54196655Y-73660000D01*
X54310729Y-74233489D01*
X54635585Y-74719670D01*
X55121766Y-75044526D01*
X55695255Y-75158600D01*
X56064745Y-75158600D01*
X56638234Y-75044526D01*
X57124415Y-74719670D01*
X57238453Y-74549000D01*
X62025742Y-74549000D01*
X62103778Y-74665789D01*
X62565238Y-74974126D01*
X63109567Y-75082400D01*
X63890433Y-75082400D01*
X64434762Y-74974126D01*
X64896222Y-74665789D01*
X65204559Y-74204329D01*
X65312833Y-73660000D01*
X65312833Y-75311000D01*
X53415927Y-75311000D01*
X53415927Y-71312520D01*
X53387148Y-70782801D01*
X53239800Y-70427071D01*
X53004188Y-70365417D01*
X52249605Y-71120000D01*
X53004188Y-71874583D01*
X53239800Y-71812929D01*
X53415927Y-71312520D01*
X53415927Y-75311000D01*
X52824583Y-75311000D01*
X52824583Y-72054188D01*
X52070000Y-71299605D01*
X51890395Y-71479210D01*
X51890395Y-71120000D01*
X51135812Y-70365417D01*
X50900200Y-70427071D01*
X50724073Y-70927480D01*
X50752852Y-71457199D01*
X50900200Y-71812929D01*
X51135812Y-71874583D01*
X51890395Y-71120000D01*
X51890395Y-71479210D01*
X51315417Y-72054188D01*
X51377071Y-72289800D01*
X51877480Y-72465927D01*
X52407199Y-72437148D01*
X52762929Y-72289800D01*
X52824583Y-72054188D01*
X52824583Y-75311000D01*
X49454154Y-75311000D01*
X49095591Y-74951810D01*
X49043608Y-74930224D01*
X49093411Y-74909647D01*
X49508190Y-74495591D01*
X49732944Y-73954323D01*
X49733455Y-73368248D01*
X49509647Y-72826589D01*
X49095591Y-72411810D01*
X48554323Y-72187056D01*
X47968248Y-72186545D01*
X47426589Y-72410353D01*
X47065312Y-72771000D01*
X46095401Y-72771000D01*
X46095401Y-62494418D01*
X46071341Y-61844623D01*
X45868965Y-61356042D01*
X45602163Y-61257443D01*
X45422557Y-61437048D01*
X45422557Y-61077837D01*
X45323958Y-60811035D01*
X44714418Y-60584599D01*
X44064623Y-60608659D01*
X43576042Y-60811035D01*
X43477443Y-61077837D01*
X44450000Y-62050395D01*
X45422557Y-61077837D01*
X45422557Y-61437048D01*
X44629605Y-62230000D01*
X45602163Y-63202557D01*
X45868965Y-63103958D01*
X46095401Y-62494418D01*
X46095401Y-72771000D01*
X46088236Y-72771000D01*
X46069411Y-72752175D01*
X46084206Y-72716547D01*
X46084774Y-72066306D01*
X45836462Y-71465345D01*
X45422557Y-71050717D01*
X45422557Y-63382163D01*
X44450000Y-62409605D01*
X44270395Y-62589210D01*
X44270395Y-62230000D01*
X43297837Y-61257443D01*
X43255927Y-61272931D01*
X43255927Y-57342520D01*
X43227148Y-56812801D01*
X43079800Y-56457071D01*
X42844188Y-56395417D01*
X42664583Y-56575022D01*
X42664583Y-56215812D01*
X42602929Y-55980200D01*
X42102520Y-55804073D01*
X41572801Y-55832852D01*
X41217071Y-55980200D01*
X41155417Y-56215812D01*
X41910000Y-56970395D01*
X42664583Y-56215812D01*
X42664583Y-56575022D01*
X42089605Y-57150000D01*
X42844188Y-57904583D01*
X43079800Y-57842929D01*
X43255927Y-57342520D01*
X43255927Y-61272931D01*
X43031035Y-61356042D01*
X42804599Y-61965582D01*
X42828659Y-62615377D01*
X43031035Y-63103958D01*
X43297837Y-63202557D01*
X44270395Y-62230000D01*
X44270395Y-62589210D01*
X43477443Y-63382163D01*
X43576042Y-63648965D01*
X44185582Y-63875401D01*
X44835377Y-63851341D01*
X45323958Y-63648965D01*
X45422557Y-63382163D01*
X45422557Y-71050717D01*
X45377073Y-71005154D01*
X44776547Y-70755794D01*
X44126306Y-70755226D01*
X43525345Y-71003538D01*
X43065154Y-71462927D01*
X42815794Y-72063453D01*
X42815226Y-72713694D01*
X43063538Y-73314655D01*
X43522927Y-73774846D01*
X44123453Y-74024206D01*
X44773694Y-74024774D01*
X44811794Y-74009030D01*
X45091382Y-74288618D01*
X45379794Y-74481329D01*
X45379795Y-74481329D01*
X45720000Y-74549000D01*
X47065845Y-74549000D01*
X47424409Y-74908190D01*
X47476391Y-74929775D01*
X47426589Y-74950353D01*
X47065312Y-75311000D01*
X42664583Y-75311000D01*
X42664583Y-58084188D01*
X41910000Y-57329605D01*
X41730395Y-57509210D01*
X41730395Y-57150000D01*
X40975812Y-56395417D01*
X40740200Y-56457071D01*
X40564073Y-56957480D01*
X40592852Y-57487199D01*
X40740200Y-57842929D01*
X40975812Y-57904583D01*
X41730395Y-57150000D01*
X41730395Y-57509210D01*
X41155417Y-58084188D01*
X41217071Y-58319800D01*
X41717480Y-58495927D01*
X42247199Y-58467148D01*
X42602929Y-58319800D01*
X42664583Y-58084188D01*
X42664583Y-75311000D01*
X39738236Y-75311000D01*
X38989000Y-74561764D01*
X38989000Y-73687150D01*
X39344415Y-73449670D01*
X39370000Y-73411379D01*
X39395585Y-73449670D01*
X39881766Y-73774526D01*
X40455255Y-73888600D01*
X40824745Y-73888600D01*
X41398234Y-73774526D01*
X41884415Y-73449670D01*
X42209271Y-72963489D01*
X42323345Y-72390000D01*
X42209271Y-71816511D01*
X41884415Y-71330330D01*
X41569634Y-71120000D01*
X41884415Y-70909670D01*
X42209271Y-70423489D01*
X42323345Y-69850000D01*
X42209271Y-69276511D01*
X41884415Y-68790330D01*
X41569634Y-68580000D01*
X41884415Y-68369670D01*
X42209271Y-67883489D01*
X42323345Y-67310000D01*
X42209271Y-66736511D01*
X41884415Y-66250330D01*
X41569634Y-66040000D01*
X41884415Y-65829670D01*
X42209271Y-65343489D01*
X42323345Y-64770000D01*
X42209271Y-64196511D01*
X41884415Y-63710330D01*
X41569634Y-63500000D01*
X41884415Y-63289670D01*
X42209271Y-62803489D01*
X42323345Y-62230000D01*
X42209271Y-61656511D01*
X41884415Y-61170330D01*
X41398234Y-60845474D01*
X40824745Y-60731400D01*
X40455255Y-60731400D01*
X39881766Y-60845474D01*
X39707358Y-60962009D01*
X39707358Y-53699026D01*
X39707358Y-52980974D01*
X39704709Y-52965209D01*
X39450732Y-52437964D01*
X39038891Y-52070000D01*
X39450732Y-51702036D01*
X39704709Y-51174791D01*
X39707358Y-51159026D01*
X39586217Y-50927000D01*
X38227000Y-50927000D01*
X38227000Y-51999076D01*
X38227000Y-52140924D01*
X38227000Y-53213000D01*
X39586217Y-53213000D01*
X39707358Y-52980974D01*
X39707358Y-53699026D01*
X39586217Y-53467000D01*
X38227000Y-53467000D01*
X38227000Y-54680924D01*
X38461913Y-54825184D01*
X39014320Y-54631954D01*
X39450732Y-54242036D01*
X39704709Y-53714791D01*
X39707358Y-53699026D01*
X39707358Y-60962009D01*
X39395585Y-61170330D01*
X39370000Y-61208620D01*
X39344415Y-61170330D01*
X38989000Y-60932849D01*
X38989000Y-57150000D01*
X38921329Y-56809794D01*
X38728618Y-56521382D01*
X37973000Y-55765764D01*
X37973000Y-54680924D01*
X37973000Y-53467000D01*
X37973000Y-53213000D01*
X37973000Y-52140924D01*
X37973000Y-51999076D01*
X37973000Y-50927000D01*
X36613783Y-50927000D01*
X36492642Y-51159026D01*
X36495291Y-51174791D01*
X36749268Y-51702036D01*
X37161108Y-52070000D01*
X36749268Y-52437964D01*
X36495291Y-52965209D01*
X36492642Y-52980974D01*
X36613783Y-53213000D01*
X37973000Y-53213000D01*
X37973000Y-53467000D01*
X36613783Y-53467000D01*
X36492642Y-53699026D01*
X36495291Y-53714791D01*
X36749268Y-54242036D01*
X37185680Y-54631954D01*
X37738087Y-54825184D01*
X37973000Y-54680924D01*
X37973000Y-55765764D01*
X36449000Y-54241764D01*
X36449000Y-49149000D01*
X36741546Y-49149000D01*
X36855585Y-49319670D01*
X37165069Y-49526460D01*
X36749268Y-49897964D01*
X36495291Y-50425209D01*
X36492642Y-50440974D01*
X36613783Y-50673000D01*
X37973000Y-50673000D01*
X37973000Y-50653000D01*
X38227000Y-50653000D01*
X38227000Y-50673000D01*
X39586217Y-50673000D01*
X39707358Y-50440974D01*
X39704709Y-50425209D01*
X39450732Y-49897964D01*
X39034930Y-49526460D01*
X39344415Y-49319670D01*
X39458453Y-49149000D01*
X40640000Y-49149000D01*
X40980205Y-49081329D01*
X40980206Y-49081329D01*
X41268618Y-48888618D01*
X42278236Y-47879000D01*
X50431764Y-47879000D01*
X51181000Y-48628236D01*
X51181000Y-49398805D01*
X51164599Y-49405582D01*
X51164774Y-49206306D01*
X50916462Y-48605345D01*
X50457073Y-48145154D01*
X49856547Y-47895794D01*
X49206306Y-47895226D01*
X48605345Y-48143538D01*
X48145154Y-48602927D01*
X47895794Y-49203453D01*
X47895226Y-49853694D01*
X48143538Y-50454655D01*
X48602927Y-50914846D01*
X48641000Y-50930655D01*
X48641000Y-51073239D01*
X48533051Y-51181000D01*
X42906760Y-51181000D01*
X42666353Y-50940173D01*
X42176413Y-50736732D01*
X41645914Y-50736269D01*
X41155620Y-50938854D01*
X40780173Y-51313647D01*
X40576732Y-51803587D01*
X40576269Y-52334086D01*
X40778854Y-52824380D01*
X41153647Y-53199827D01*
X41643587Y-53403268D01*
X42174086Y-53403731D01*
X42664380Y-53201146D01*
X42906948Y-52959000D01*
X48533239Y-52959000D01*
X48773647Y-53199827D01*
X49263587Y-53403268D01*
X49794086Y-53403731D01*
X50284380Y-53201146D01*
X50659827Y-52826353D01*
X50863268Y-52336413D01*
X50863644Y-51905075D01*
X51142927Y-52184846D01*
X51181000Y-52200655D01*
X51181000Y-54610000D01*
X51248671Y-54950206D01*
X51441382Y-55238618D01*
X52711382Y-56508618D01*
X52999794Y-56701329D01*
X52999795Y-56701329D01*
X53340000Y-56769000D01*
X54521546Y-56769000D01*
X54635585Y-56939670D01*
X54945069Y-57146460D01*
X54529268Y-57517964D01*
X54275291Y-58045209D01*
X54272642Y-58060974D01*
X54393783Y-58293000D01*
X55753000Y-58293000D01*
X55753000Y-58273000D01*
X56007000Y-58273000D01*
X56007000Y-58293000D01*
X57366217Y-58293000D01*
X57487358Y-58060974D01*
X57484709Y-58045209D01*
X57230732Y-57517964D01*
X56814930Y-57146460D01*
X57124415Y-56939670D01*
X57238453Y-56769000D01*
X62025742Y-56769000D01*
X62103778Y-56885789D01*
X62498829Y-57149753D01*
X62482738Y-57154475D01*
X62048809Y-57504014D01*
X61781673Y-57993004D01*
X61764990Y-58072940D01*
X61887148Y-58293000D01*
X63373000Y-58293000D01*
X63373000Y-58273000D01*
X63627000Y-58273000D01*
X63627000Y-58293000D01*
X65112852Y-58293000D01*
X65235010Y-58072940D01*
X65218327Y-57993004D01*
X64951191Y-57504014D01*
X64517262Y-57154475D01*
X64501170Y-57149753D01*
X64896222Y-56885789D01*
X64974257Y-56769000D01*
X66040000Y-56769000D01*
X66380205Y-56701329D01*
X66380206Y-56701329D01*
X66668618Y-56508618D01*
X67938618Y-55238618D01*
X68131329Y-54950206D01*
X68131329Y-54950205D01*
X68199000Y-54610000D01*
X68199000Y-39370000D01*
X68131329Y-39029794D01*
X67938618Y-38741382D01*
X65398618Y-36201382D01*
X65110206Y-36008671D01*
X64770000Y-35941000D01*
X53708236Y-35941000D01*
X52959000Y-35191764D01*
X52959000Y-29578236D01*
X53708236Y-28829000D01*
X54614066Y-28829000D01*
X54777073Y-28992292D01*
X54631302Y-29052673D01*
X54452673Y-29231301D01*
X54356000Y-29464690D01*
X54356000Y-29717309D01*
X54356000Y-30194250D01*
X54514750Y-30353000D01*
X55753000Y-30353000D01*
X55753000Y-30333000D01*
X56007000Y-30333000D01*
X56007000Y-30353000D01*
X57245250Y-30353000D01*
X57404000Y-30194250D01*
X57404000Y-29717309D01*
X57404000Y-29464690D01*
X57307327Y-29231301D01*
X57128698Y-29052673D01*
X56982988Y-28992318D01*
X57146592Y-28829000D01*
X59708931Y-28829000D01*
X59709537Y-28832123D01*
X59849327Y-29044927D01*
X60060360Y-29187377D01*
X60310000Y-29237440D01*
X60472385Y-29237440D01*
X60296271Y-29310389D01*
X60240590Y-29540984D01*
X60960000Y-30260395D01*
X61679410Y-29540984D01*
X61623729Y-29310389D01*
X61414098Y-29237440D01*
X61610000Y-29237440D01*
X61852123Y-29190463D01*
X62064927Y-29050673D01*
X62207377Y-28839640D01*
X62257440Y-28590000D01*
X62257440Y-27290000D01*
X62210463Y-27047877D01*
X62070673Y-26835073D01*
X61859640Y-26692623D01*
X61610000Y-26642560D01*
X60310000Y-26642560D01*
X60067877Y-26689537D01*
X59855073Y-26829327D01*
X59712623Y-27040360D01*
X59710489Y-27051000D01*
X57145933Y-27051000D01*
X56744404Y-26648769D01*
X56184472Y-26416265D01*
X55578188Y-26415736D01*
X55017851Y-26647262D01*
X54613407Y-27051000D01*
X53340000Y-27051000D01*
X52999794Y-27118671D01*
X52711382Y-27311382D01*
X51441382Y-28581382D01*
X51248671Y-28869794D01*
X51181000Y-29210000D01*
X51181000Y-35560000D01*
X51248671Y-35900206D01*
X51441382Y-36188618D01*
X52711382Y-37458618D01*
X52999794Y-37651329D01*
X52999795Y-37651329D01*
X53340000Y-37719000D01*
X64401764Y-37719000D01*
X66421000Y-39738236D01*
X66421000Y-54241764D01*
X65671764Y-54991000D01*
X64974257Y-54991000D01*
X64896222Y-54874211D01*
X64500801Y-54610000D01*
X64896222Y-54345789D01*
X65204559Y-53884329D01*
X65312833Y-53340000D01*
X65204559Y-52795671D01*
X64896222Y-52334211D01*
X64500801Y-52070000D01*
X64896222Y-51805789D01*
X65204559Y-51344329D01*
X65312833Y-50800000D01*
X65204559Y-50255671D01*
X64896222Y-49794211D01*
X64500801Y-49530000D01*
X64896222Y-49265789D01*
X65204559Y-48804329D01*
X65312833Y-48260000D01*
X65204559Y-47715671D01*
X64896222Y-47254211D01*
X64500801Y-46990000D01*
X64896222Y-46725789D01*
X65204559Y-46264329D01*
X65312833Y-45720000D01*
X65204559Y-45175671D01*
X64896222Y-44714211D01*
X64500801Y-44450000D01*
X64896222Y-44185789D01*
X65204559Y-43724329D01*
X65312833Y-43180000D01*
X65204559Y-42635671D01*
X64896222Y-42174211D01*
X64723986Y-42059126D01*
X64885123Y-42027863D01*
X65097927Y-41888073D01*
X65240377Y-41677040D01*
X65290440Y-41427400D01*
X65290440Y-39852600D01*
X65243463Y-39610477D01*
X65103673Y-39397673D01*
X64892640Y-39255223D01*
X64643000Y-39205160D01*
X62357000Y-39205160D01*
X62114877Y-39252137D01*
X61902073Y-39391927D01*
X61759623Y-39602960D01*
X61729934Y-39751000D01*
X57538511Y-39751000D01*
X57496463Y-39534277D01*
X57356673Y-39321473D01*
X57145640Y-39179023D01*
X56896000Y-39128960D01*
X54864000Y-39128960D01*
X54621877Y-39175937D01*
X54409073Y-39315727D01*
X54266623Y-39526760D01*
X54221653Y-39751000D01*
X53471194Y-39751000D01*
X53456462Y-39715345D01*
X52997073Y-39255154D01*
X52396547Y-39005794D01*
X51746306Y-39005226D01*
X51145345Y-39253538D01*
X50799800Y-39598480D01*
X50457073Y-39255154D01*
X49856547Y-39005794D01*
X49206306Y-39005226D01*
X48605345Y-39253538D01*
X48145154Y-39712927D01*
X48129344Y-39751000D01*
X47986760Y-39751000D01*
X47746353Y-39510173D01*
X47256413Y-39306732D01*
X46725914Y-39306269D01*
X46235620Y-39508854D01*
X45860173Y-39883647D01*
X45656732Y-40373587D01*
X45656269Y-40904086D01*
X45858854Y-41394380D01*
X46233647Y-41769827D01*
X46723587Y-41973268D01*
X47254086Y-41973731D01*
X47744380Y-41771146D01*
X47986948Y-41529000D01*
X48128805Y-41529000D01*
X48143538Y-41564655D01*
X48602927Y-42024846D01*
X49203453Y-42274206D01*
X49853694Y-42274774D01*
X50454655Y-42026462D01*
X50800199Y-41681519D01*
X51142927Y-42024846D01*
X51743453Y-42274206D01*
X52393694Y-42274774D01*
X52994655Y-42026462D01*
X53454846Y-41567073D01*
X53470655Y-41529000D01*
X54221488Y-41529000D01*
X54263537Y-41745723D01*
X54403327Y-41958527D01*
X54614360Y-42100977D01*
X54652962Y-42108718D01*
X54635585Y-42120330D01*
X54521546Y-42291000D01*
X46088236Y-42291000D01*
X45339000Y-41541764D01*
X45339000Y-39370000D01*
X45271329Y-39029795D01*
X45271329Y-39029794D01*
X45078618Y-38741382D01*
X44462440Y-38125204D01*
X44462440Y-34925000D01*
X44462440Y-26035000D01*
X44415463Y-25792877D01*
X44275673Y-25580073D01*
X44064640Y-25437623D01*
X43815000Y-25387560D01*
X34925000Y-25387560D01*
X34682877Y-25434537D01*
X34470073Y-25574327D01*
X34327623Y-25785360D01*
X34277560Y-26035000D01*
X34277560Y-34925000D01*
X34324537Y-35167123D01*
X34464327Y-35379927D01*
X34675360Y-35522377D01*
X34925000Y-35572440D01*
X43815000Y-35572440D01*
X44057123Y-35525463D01*
X44269927Y-35385673D01*
X44412377Y-35174640D01*
X44462440Y-34925000D01*
X44462440Y-38125204D01*
X43808618Y-37471382D01*
X43520206Y-37278671D01*
X43180000Y-37211000D01*
X35560000Y-37211000D01*
X35219794Y-37278671D01*
X34931382Y-37471382D01*
X34738671Y-37759794D01*
X34671000Y-38100000D01*
X34671000Y-45720000D01*
X34738671Y-46060206D01*
X34931382Y-46348618D01*
X35219794Y-46541329D01*
X35560000Y-46609000D01*
X36741546Y-46609000D01*
X36855585Y-46779670D01*
X37170365Y-46990000D01*
X36855585Y-47200330D01*
X36741546Y-47371000D01*
X35560000Y-47371000D01*
X35219794Y-47438671D01*
X34931382Y-47631382D01*
X34738671Y-47919794D01*
X34671000Y-48260000D01*
X34671000Y-54610000D01*
X34738671Y-54950206D01*
X34931382Y-55238618D01*
X37211000Y-57518236D01*
X37211000Y-60932849D01*
X37016000Y-61063144D01*
X37016000Y-57732571D01*
X34354000Y-57732571D01*
X34354000Y-76887429D01*
X37016000Y-76887429D01*
X37016000Y-73556855D01*
X37211000Y-73687150D01*
X37211000Y-74930000D01*
X37278671Y-75270206D01*
X37471382Y-75558618D01*
X38741382Y-76828618D01*
X39029794Y-77021329D01*
X39029795Y-77021329D01*
X39370000Y-77089000D01*
X47065845Y-77089000D01*
X47424409Y-77448190D01*
X47965677Y-77672944D01*
X48551752Y-77673455D01*
X49093411Y-77449647D01*
X49454687Y-77089000D01*
X66040000Y-77089000D01*
X66380205Y-77021329D01*
X66380206Y-77021329D01*
X66668618Y-76828618D01*
X67938618Y-75558618D01*
X68131329Y-75270206D01*
X68131329Y-75270205D01*
X68199000Y-74930000D01*
X68199000Y-62598236D01*
X68948236Y-61849000D01*
X69645742Y-61849000D01*
X69723778Y-61965789D01*
X70119198Y-62230000D01*
X69723778Y-62494211D01*
X69415441Y-62955671D01*
X69307167Y-63500000D01*
X69415441Y-64044329D01*
X69723778Y-64505789D01*
X70119198Y-64770000D01*
X69723778Y-65034211D01*
X69415441Y-65495671D01*
X69307167Y-66040000D01*
X69415441Y-66584329D01*
X69723778Y-67045789D01*
X70119198Y-67310000D01*
X69723778Y-67574211D01*
X69415441Y-68035671D01*
X69307167Y-68580000D01*
X69415441Y-69124329D01*
X69723778Y-69585789D01*
X70119198Y-69850000D01*
X69723778Y-70114211D01*
X69415441Y-70575671D01*
X69307167Y-71120000D01*
X69415441Y-71664329D01*
X69723778Y-72125789D01*
X70119198Y-72390000D01*
X69723778Y-72654211D01*
X69415441Y-73115671D01*
X69307167Y-73660000D01*
X69415441Y-74204329D01*
X69723778Y-74665789D01*
X70185238Y-74974126D01*
X70729567Y-75082400D01*
X71510433Y-75082400D01*
X72054762Y-74974126D01*
X72516222Y-74665789D01*
X72594257Y-74549000D01*
X77381546Y-74549000D01*
X77495585Y-74719670D01*
X77981766Y-75044526D01*
X78555255Y-75158600D01*
X78924745Y-75158600D01*
X79498234Y-75044526D01*
X79984415Y-74719670D01*
X80309271Y-74233489D01*
X80423345Y-73660000D01*
X80423345Y-78309000D01*
X33451000Y-78309000D01*
X33451000Y-24561000D01*
X80849000Y-24561000D01*
X80849000Y-78309000D01*
X80849000Y-78309000D01*
G37*
X80849000Y-78309000D02*
X80423345Y-78309000D01*
X80423345Y-73660000D01*
X80309271Y-73086511D01*
X79984415Y-72600330D01*
X79669634Y-72390000D01*
X79984415Y-72179670D01*
X80309271Y-71693489D01*
X80423345Y-71120000D01*
X80309271Y-70546511D01*
X79984415Y-70060330D01*
X79669634Y-69850000D01*
X79984415Y-69639670D01*
X80309271Y-69153489D01*
X80423345Y-68580000D01*
X80309271Y-68006511D01*
X79984415Y-67520330D01*
X79669634Y-67310000D01*
X79984415Y-67099670D01*
X80309271Y-66613489D01*
X80423345Y-66040000D01*
X80309271Y-65466511D01*
X79984415Y-64980330D01*
X79669634Y-64770000D01*
X79984415Y-64559670D01*
X80309271Y-64073489D01*
X80423345Y-63500000D01*
X80309271Y-62926511D01*
X79984415Y-62440330D01*
X79669634Y-62230000D01*
X79984415Y-62019670D01*
X80309271Y-61533489D01*
X80423345Y-60960000D01*
X80309271Y-60386511D01*
X79984415Y-59900330D01*
X79669634Y-59690000D01*
X79984415Y-59479670D01*
X80309271Y-58993489D01*
X80423345Y-58420000D01*
X80423345Y-53340000D01*
X80309271Y-52766511D01*
X79984415Y-52280330D01*
X79669634Y-52070000D01*
X79984415Y-51859670D01*
X80309271Y-51373489D01*
X80423345Y-50800000D01*
X80309271Y-50226511D01*
X79984415Y-49740330D01*
X79669634Y-49530000D01*
X79984415Y-49319670D01*
X80309271Y-48833489D01*
X80423345Y-48260000D01*
X80309271Y-47686511D01*
X79984415Y-47200330D01*
X79669634Y-46990000D01*
X79984415Y-46779670D01*
X80309271Y-46293489D01*
X80423345Y-45720000D01*
X80309271Y-45146511D01*
X79984415Y-44660330D01*
X79669634Y-44450000D01*
X79984415Y-44239670D01*
X80309271Y-43753489D01*
X80423345Y-43180000D01*
X80309271Y-42606511D01*
X79984415Y-42120330D01*
X79669634Y-41910000D01*
X79984415Y-41699670D01*
X80309271Y-41213489D01*
X80423345Y-40640000D01*
X80423345Y-27940000D01*
X80297670Y-27308190D01*
X79939778Y-26772567D01*
X79404155Y-26414675D01*
X78772345Y-26289000D01*
X78707655Y-26289000D01*
X78075845Y-26414675D01*
X77540222Y-26772567D01*
X77354178Y-27051000D01*
X76331194Y-27051000D01*
X76316462Y-27015345D01*
X75857073Y-26555154D01*
X75256547Y-26305794D01*
X74606306Y-26305226D01*
X74005345Y-26553538D01*
X73545154Y-27012927D01*
X73295794Y-27613453D01*
X73295226Y-28263694D01*
X73543538Y-28864655D01*
X74002927Y-29324846D01*
X74603453Y-29574206D01*
X75253694Y-29574774D01*
X75854655Y-29326462D01*
X76314846Y-28867073D01*
X76330655Y-28829000D01*
X77354178Y-28829000D01*
X77540222Y-29107433D01*
X77703354Y-29216434D01*
X77333615Y-29615182D01*
X77134025Y-30097056D01*
X77253164Y-30353000D01*
X78613000Y-30353000D01*
X78613000Y-30333000D01*
X78867000Y-30333000D01*
X78867000Y-30353000D01*
X80226836Y-30353000D01*
X80345975Y-30097056D01*
X80146385Y-29615182D01*
X79776645Y-29216434D01*
X79939778Y-29107433D01*
X80297670Y-28571810D01*
X80423345Y-27940000D01*
X80423345Y-40640000D01*
X80345975Y-40251034D01*
X80345975Y-30862944D01*
X80226836Y-30607000D01*
X78867000Y-30607000D01*
X78867000Y-31967367D01*
X79122946Y-32085983D01*
X79708379Y-31817188D01*
X80146385Y-31344818D01*
X80345975Y-30862944D01*
X80345975Y-40251034D01*
X80309271Y-40066511D01*
X79984415Y-39580330D01*
X79498234Y-39255474D01*
X78924745Y-39141400D01*
X78613000Y-39141400D01*
X78613000Y-31967367D01*
X78613000Y-30607000D01*
X77253164Y-30607000D01*
X77134025Y-30862944D01*
X77333615Y-31344818D01*
X77771621Y-31817188D01*
X78357054Y-32085983D01*
X78613000Y-31967367D01*
X78613000Y-39141400D01*
X78555255Y-39141400D01*
X77981766Y-39255474D01*
X77495585Y-39580330D01*
X77381546Y-39751000D01*
X76576930Y-39751000D01*
X76576930Y-39099490D01*
X76576930Y-37100510D01*
X76529953Y-36858387D01*
X76390163Y-36645583D01*
X76179130Y-36503133D01*
X75929490Y-36453070D01*
X73930510Y-36453070D01*
X73688387Y-36500047D01*
X73475583Y-36639837D01*
X73468123Y-36650887D01*
X69877622Y-33060386D01*
X69877622Y-30700922D01*
X69848083Y-30190572D01*
X69709611Y-29856271D01*
X69479016Y-29800590D01*
X69299410Y-29980195D01*
X69299410Y-29620984D01*
X69243729Y-29390389D01*
X68760922Y-29222378D01*
X68250572Y-29251917D01*
X67916271Y-29390389D01*
X67860590Y-29620984D01*
X68580000Y-30340395D01*
X69299410Y-29620984D01*
X69299410Y-29980195D01*
X68759605Y-30520000D01*
X69479016Y-31239410D01*
X69709611Y-31183729D01*
X69877622Y-30700922D01*
X69877622Y-33060386D01*
X69877440Y-33060204D01*
X69877440Y-32370000D01*
X69830463Y-32127877D01*
X69690673Y-31915073D01*
X69479640Y-31772623D01*
X69230000Y-31722560D01*
X69067614Y-31722560D01*
X69243729Y-31649611D01*
X69299410Y-31419016D01*
X68580000Y-30699605D01*
X68400395Y-30879210D01*
X68400395Y-30520000D01*
X67680984Y-29800590D01*
X67450389Y-29856271D01*
X67282378Y-30339078D01*
X67311917Y-30849428D01*
X67450389Y-31183729D01*
X67680984Y-31239410D01*
X68400395Y-30520000D01*
X68400395Y-30879210D01*
X67860590Y-31419016D01*
X67916271Y-31649611D01*
X68125901Y-31722560D01*
X67930000Y-31722560D01*
X67687877Y-31769537D01*
X67475073Y-31909327D01*
X67332623Y-32120360D01*
X67330489Y-32131000D01*
X62257622Y-32131000D01*
X62257622Y-30620922D01*
X62228083Y-30110572D01*
X62089611Y-29776271D01*
X61859016Y-29720590D01*
X61139605Y-30440000D01*
X61859016Y-31159410D01*
X62089611Y-31103729D01*
X62257622Y-30620922D01*
X62257622Y-32131000D01*
X61679410Y-32131000D01*
X61679410Y-31339016D01*
X60960000Y-30619605D01*
X60780395Y-30799210D01*
X60780395Y-30440000D01*
X60060984Y-29720590D01*
X59830389Y-29776271D01*
X59662378Y-30259078D01*
X59691917Y-30769428D01*
X59830389Y-31103729D01*
X60060984Y-31159410D01*
X60780395Y-30440000D01*
X60780395Y-30799210D01*
X60240590Y-31339016D01*
X60296271Y-31569611D01*
X60779078Y-31737622D01*
X61289428Y-31708083D01*
X61623729Y-31569611D01*
X61679410Y-31339016D01*
X61679410Y-32131000D01*
X57145933Y-32131000D01*
X56982926Y-31967707D01*
X57128698Y-31907327D01*
X57307327Y-31728699D01*
X57404000Y-31495310D01*
X57404000Y-31242691D01*
X57404000Y-30765750D01*
X57245250Y-30607000D01*
X56007000Y-30607000D01*
X56007000Y-30627000D01*
X55753000Y-30627000D01*
X55753000Y-30607000D01*
X54514750Y-30607000D01*
X54356000Y-30765750D01*
X54356000Y-31242691D01*
X54356000Y-31495310D01*
X54452673Y-31728699D01*
X54631302Y-31907327D01*
X54777011Y-31967681D01*
X54588769Y-32155596D01*
X54356265Y-32715528D01*
X54355736Y-33321812D01*
X54587262Y-33882149D01*
X55015596Y-34311231D01*
X55575528Y-34543735D01*
X56181812Y-34544264D01*
X56742149Y-34312738D01*
X57146592Y-33909000D01*
X67328931Y-33909000D01*
X67329537Y-33912123D01*
X67469327Y-34124927D01*
X67680360Y-34267377D01*
X67930000Y-34317440D01*
X68620204Y-34317440D01*
X73031382Y-38728618D01*
X73283070Y-38896790D01*
X73283070Y-39099490D01*
X73330047Y-39341613D01*
X73469837Y-39554417D01*
X73680870Y-39696867D01*
X73930510Y-39746930D01*
X75929490Y-39746930D01*
X76171613Y-39699953D01*
X76384417Y-39560163D01*
X76526867Y-39349130D01*
X76576930Y-39099490D01*
X76576930Y-39751000D01*
X72594257Y-39751000D01*
X72516222Y-39634211D01*
X72054762Y-39325874D01*
X71510433Y-39217600D01*
X70729567Y-39217600D01*
X70185238Y-39325874D01*
X69723778Y-39634211D01*
X69415441Y-40095671D01*
X69307167Y-40640000D01*
X69415441Y-41184329D01*
X69723778Y-41645789D01*
X70119198Y-41910000D01*
X69723778Y-42174211D01*
X69415441Y-42635671D01*
X69307167Y-43180000D01*
X69415441Y-43724329D01*
X69723778Y-44185789D01*
X70119198Y-44450000D01*
X69723778Y-44714211D01*
X69415441Y-45175671D01*
X69307167Y-45720000D01*
X69415441Y-46264329D01*
X69723778Y-46725789D01*
X70119198Y-46990000D01*
X69723778Y-47254211D01*
X69415441Y-47715671D01*
X69307167Y-48260000D01*
X69415441Y-48804329D01*
X69723778Y-49265789D01*
X70119198Y-49530000D01*
X69723778Y-49794211D01*
X69415441Y-50255671D01*
X69307167Y-50800000D01*
X69415441Y-51344329D01*
X69723778Y-51805789D01*
X70119198Y-52070000D01*
X69723778Y-52334211D01*
X69415441Y-52795671D01*
X69307167Y-53340000D01*
X69415441Y-53884329D01*
X69723778Y-54345789D01*
X70118829Y-54609753D01*
X70102738Y-54614475D01*
X69668809Y-54964014D01*
X69401673Y-55453004D01*
X69384990Y-55532940D01*
X69507148Y-55753000D01*
X70993000Y-55753000D01*
X70993000Y-55733000D01*
X71247000Y-55733000D01*
X71247000Y-55753000D01*
X72732852Y-55753000D01*
X72855010Y-55532940D01*
X72838327Y-55453004D01*
X72571191Y-54964014D01*
X72137262Y-54614475D01*
X72121170Y-54609753D01*
X72516222Y-54345789D01*
X72594257Y-54229000D01*
X77381546Y-54229000D01*
X77495585Y-54399670D01*
X77805069Y-54606460D01*
X77389268Y-54977964D01*
X77135291Y-55505209D01*
X77132642Y-55520974D01*
X77253783Y-55753000D01*
X78613000Y-55753000D01*
X78613000Y-55733000D01*
X78867000Y-55733000D01*
X78867000Y-55753000D01*
X80226217Y-55753000D01*
X80347358Y-55520974D01*
X80344709Y-55505209D01*
X80090732Y-54977964D01*
X79674930Y-54606460D01*
X79984415Y-54399670D01*
X80309271Y-53913489D01*
X80423345Y-53340000D01*
X80423345Y-58420000D01*
X80309271Y-57846511D01*
X79984415Y-57360330D01*
X79674930Y-57153539D01*
X80090732Y-56782036D01*
X80344709Y-56254791D01*
X80347358Y-56239026D01*
X80226217Y-56007000D01*
X78867000Y-56007000D01*
X78867000Y-56027000D01*
X78613000Y-56027000D01*
X78613000Y-56007000D01*
X77253783Y-56007000D01*
X77132642Y-56239026D01*
X77135291Y-56254791D01*
X77389268Y-56782036D01*
X77805069Y-57153539D01*
X77495585Y-57360330D01*
X77381546Y-57531000D01*
X72594257Y-57531000D01*
X72516222Y-57414211D01*
X72121170Y-57150246D01*
X72137262Y-57145525D01*
X72571191Y-56795986D01*
X72838327Y-56306996D01*
X72855010Y-56227060D01*
X72732852Y-56007000D01*
X71247000Y-56007000D01*
X71247000Y-56027000D01*
X70993000Y-56027000D01*
X70993000Y-56007000D01*
X69507148Y-56007000D01*
X69384990Y-56227060D01*
X69401673Y-56306996D01*
X69668809Y-56795986D01*
X70102738Y-57145525D01*
X70118829Y-57150246D01*
X69723778Y-57414211D01*
X69415441Y-57875671D01*
X69307167Y-58420000D01*
X69415441Y-58964329D01*
X69723778Y-59425789D01*
X70119198Y-59690000D01*
X69723778Y-59954211D01*
X69645742Y-60071000D01*
X68580000Y-60071000D01*
X68239794Y-60138671D01*
X67951382Y-60331382D01*
X66681382Y-61601382D01*
X66488671Y-61889794D01*
X66421000Y-62230000D01*
X66421000Y-74561764D01*
X65671764Y-75311000D01*
X65312833Y-75311000D01*
X65312833Y-73660000D01*
X65204559Y-73115671D01*
X64896222Y-72654211D01*
X64500801Y-72390000D01*
X64896222Y-72125789D01*
X65204559Y-71664329D01*
X65312833Y-71120000D01*
X65204559Y-70575671D01*
X64896222Y-70114211D01*
X64500801Y-69850000D01*
X64896222Y-69585789D01*
X65204559Y-69124329D01*
X65312833Y-68580000D01*
X65204559Y-68035671D01*
X64896222Y-67574211D01*
X64500801Y-67310000D01*
X64896222Y-67045789D01*
X65204559Y-66584329D01*
X65312833Y-66040000D01*
X65204559Y-65495671D01*
X64896222Y-65034211D01*
X64500801Y-64770000D01*
X64896222Y-64505789D01*
X65204559Y-64044329D01*
X65312833Y-63500000D01*
X65204559Y-62955671D01*
X64896222Y-62494211D01*
X64500801Y-62230000D01*
X64896222Y-61965789D01*
X65204559Y-61504329D01*
X65312833Y-60960000D01*
X65204559Y-60415671D01*
X64896222Y-59954211D01*
X64501170Y-59690246D01*
X64517262Y-59685525D01*
X64951191Y-59335986D01*
X65218327Y-58846996D01*
X65235010Y-58767060D01*
X65112852Y-58547000D01*
X63627000Y-58547000D01*
X63627000Y-58567000D01*
X63373000Y-58567000D01*
X63373000Y-58547000D01*
X61887148Y-58547000D01*
X61764990Y-58767060D01*
X61781673Y-58846996D01*
X62048809Y-59335986D01*
X62482738Y-59685525D01*
X62498829Y-59690246D01*
X62103778Y-59954211D01*
X62025742Y-60071000D01*
X57487358Y-60071000D01*
X57487358Y-58779026D01*
X57366217Y-58547000D01*
X56007000Y-58547000D01*
X56007000Y-59760924D01*
X56241913Y-59905184D01*
X56794320Y-59711954D01*
X57230732Y-59322036D01*
X57484709Y-58794791D01*
X57487358Y-58779026D01*
X57487358Y-60071000D01*
X55753000Y-60071000D01*
X55753000Y-59760924D01*
X55753000Y-58547000D01*
X54393783Y-58547000D01*
X54272642Y-58779026D01*
X54275291Y-58794791D01*
X54529268Y-59322036D01*
X54965680Y-59711954D01*
X55518087Y-59905184D01*
X55753000Y-59760924D01*
X55753000Y-60071000D01*
X54610000Y-60071000D01*
X54269794Y-60138671D01*
X53981382Y-60331382D01*
X53402751Y-60910012D01*
X53387148Y-60622801D01*
X53239800Y-60267071D01*
X53004188Y-60205417D01*
X52824583Y-60385022D01*
X52824583Y-60025812D01*
X52762929Y-59790200D01*
X52262520Y-59614073D01*
X51732801Y-59642852D01*
X51377071Y-59790200D01*
X51315417Y-60025812D01*
X52070000Y-60780395D01*
X52824583Y-60025812D01*
X52824583Y-60385022D01*
X52249605Y-60960000D01*
X52263747Y-60974142D01*
X52084142Y-61153747D01*
X52070000Y-61139605D01*
X51890395Y-61319210D01*
X51890395Y-60960000D01*
X51135812Y-60205417D01*
X50900200Y-60267071D01*
X50875927Y-60336035D01*
X50875927Y-57342520D01*
X50847148Y-56812801D01*
X50699800Y-56457071D01*
X50464188Y-56395417D01*
X50284583Y-56575022D01*
X50284583Y-56215812D01*
X50222929Y-55980200D01*
X49722520Y-55804073D01*
X49192801Y-55832852D01*
X48837071Y-55980200D01*
X48775417Y-56215812D01*
X49530000Y-56970395D01*
X50284583Y-56215812D01*
X50284583Y-56575022D01*
X49709605Y-57150000D01*
X50464188Y-57904583D01*
X50699800Y-57842929D01*
X50875927Y-57342520D01*
X50875927Y-60336035D01*
X50724073Y-60767480D01*
X50752852Y-61297199D01*
X50900200Y-61652929D01*
X51135812Y-61714583D01*
X51890395Y-60960000D01*
X51890395Y-61319210D01*
X51315417Y-61894188D01*
X51377071Y-62129800D01*
X51656311Y-62228083D01*
X51315620Y-62368854D01*
X51073051Y-62611000D01*
X50284583Y-62611000D01*
X50284583Y-58084188D01*
X49530000Y-57329605D01*
X49350395Y-57509210D01*
X49350395Y-57150000D01*
X48595812Y-56395417D01*
X48360200Y-56457071D01*
X48184073Y-56957480D01*
X48212852Y-57487199D01*
X48360200Y-57842929D01*
X48595812Y-57904583D01*
X49350395Y-57150000D01*
X49350395Y-57509210D01*
X48775417Y-58084188D01*
X48837071Y-58319800D01*
X49337480Y-58495927D01*
X49867199Y-58467148D01*
X50222929Y-58319800D01*
X50284583Y-58084188D01*
X50284583Y-62611000D01*
X49814924Y-62611000D01*
X49702872Y-62443301D01*
X49172605Y-62088988D01*
X48547113Y-61964570D01*
X47972887Y-61964570D01*
X47347395Y-62088988D01*
X46817128Y-62443301D01*
X46462815Y-62973568D01*
X46338397Y-63599060D01*
X46462815Y-64224552D01*
X46817128Y-64754819D01*
X47347395Y-65109132D01*
X47972887Y-65233550D01*
X48547113Y-65233550D01*
X49172605Y-65109132D01*
X49702872Y-64754819D01*
X49947304Y-64389000D01*
X51073239Y-64389000D01*
X51313647Y-64629827D01*
X51803587Y-64833268D01*
X52019307Y-64833456D01*
X51441382Y-65411382D01*
X51248671Y-65699794D01*
X51181000Y-66040000D01*
X51181000Y-67583239D01*
X51172284Y-67591940D01*
X49881114Y-67591940D01*
X49702872Y-67325181D01*
X49172605Y-66970868D01*
X48547113Y-66846450D01*
X47972887Y-66846450D01*
X47347395Y-66970868D01*
X46817128Y-67325181D01*
X46462815Y-67855448D01*
X46338397Y-68480940D01*
X46462815Y-69106432D01*
X46817128Y-69636699D01*
X47347395Y-69991012D01*
X47972887Y-70115430D01*
X48547113Y-70115430D01*
X49172605Y-69991012D01*
X49702872Y-69636699D01*
X49881114Y-69369940D01*
X50974352Y-69369940D01*
X51313647Y-69709827D01*
X51635118Y-69843313D01*
X51377071Y-69950200D01*
X51315417Y-70185812D01*
X52070000Y-70940395D01*
X52824583Y-70185812D01*
X52762929Y-69950200D01*
X52483688Y-69851916D01*
X52824380Y-69711146D01*
X53199827Y-69336353D01*
X53403268Y-68846413D01*
X53403731Y-68315914D01*
X53201146Y-67825620D01*
X52959000Y-67583051D01*
X52959000Y-66408236D01*
X54978236Y-64389000D01*
X62025742Y-64389000D01*
X62103778Y-64505789D01*
X62499198Y-64770000D01*
X62103778Y-65034211D01*
X62025742Y-65151000D01*
X57238453Y-65151000D01*
X57124415Y-64980330D01*
X56638234Y-64655474D01*
X56064745Y-64541400D01*
X55695255Y-64541400D01*
X55121766Y-64655474D01*
X54635585Y-64980330D01*
X54310729Y-65466511D01*
X54196655Y-66040000D01*
X54310729Y-66613489D01*
X54635585Y-67099670D01*
X54950365Y-67310000D01*
X54635585Y-67520330D01*
X54310729Y-68006511D01*
X54196655Y-68580000D01*
X54310729Y-69153489D01*
X54635585Y-69639670D01*
X54950365Y-69850000D01*
X54635585Y-70060330D01*
X54310729Y-70546511D01*
X54196655Y-71120000D01*
X54310729Y-71693489D01*
X54635585Y-72179670D01*
X54950365Y-72390000D01*
X54635585Y-72600330D01*
X54310729Y-73086511D01*
X54196655Y-73660000D01*
X54310729Y-74233489D01*
X54635585Y-74719670D01*
X55121766Y-75044526D01*
X55695255Y-75158600D01*
X56064745Y-75158600D01*
X56638234Y-75044526D01*
X57124415Y-74719670D01*
X57238453Y-74549000D01*
X62025742Y-74549000D01*
X62103778Y-74665789D01*
X62565238Y-74974126D01*
X63109567Y-75082400D01*
X63890433Y-75082400D01*
X64434762Y-74974126D01*
X64896222Y-74665789D01*
X65204559Y-74204329D01*
X65312833Y-73660000D01*
X65312833Y-75311000D01*
X53415927Y-75311000D01*
X53415927Y-71312520D01*
X53387148Y-70782801D01*
X53239800Y-70427071D01*
X53004188Y-70365417D01*
X52249605Y-71120000D01*
X53004188Y-71874583D01*
X53239800Y-71812929D01*
X53415927Y-71312520D01*
X53415927Y-75311000D01*
X52824583Y-75311000D01*
X52824583Y-72054188D01*
X52070000Y-71299605D01*
X51890395Y-71479210D01*
X51890395Y-71120000D01*
X51135812Y-70365417D01*
X50900200Y-70427071D01*
X50724073Y-70927480D01*
X50752852Y-71457199D01*
X50900200Y-71812929D01*
X51135812Y-71874583D01*
X51890395Y-71120000D01*
X51890395Y-71479210D01*
X51315417Y-72054188D01*
X51377071Y-72289800D01*
X51877480Y-72465927D01*
X52407199Y-72437148D01*
X52762929Y-72289800D01*
X52824583Y-72054188D01*
X52824583Y-75311000D01*
X49454154Y-75311000D01*
X49095591Y-74951810D01*
X49043608Y-74930224D01*
X49093411Y-74909647D01*
X49508190Y-74495591D01*
X49732944Y-73954323D01*
X49733455Y-73368248D01*
X49509647Y-72826589D01*
X49095591Y-72411810D01*
X48554323Y-72187056D01*
X47968248Y-72186545D01*
X47426589Y-72410353D01*
X47065312Y-72771000D01*
X46095401Y-72771000D01*
X46095401Y-62494418D01*
X46071341Y-61844623D01*
X45868965Y-61356042D01*
X45602163Y-61257443D01*
X45422557Y-61437048D01*
X45422557Y-61077837D01*
X45323958Y-60811035D01*
X44714418Y-60584599D01*
X44064623Y-60608659D01*
X43576042Y-60811035D01*
X43477443Y-61077837D01*
X44450000Y-62050395D01*
X45422557Y-61077837D01*
X45422557Y-61437048D01*
X44629605Y-62230000D01*
X45602163Y-63202557D01*
X45868965Y-63103958D01*
X46095401Y-62494418D01*
X46095401Y-72771000D01*
X46088236Y-72771000D01*
X46069411Y-72752175D01*
X46084206Y-72716547D01*
X46084774Y-72066306D01*
X45836462Y-71465345D01*
X45422557Y-71050717D01*
X45422557Y-63382163D01*
X44450000Y-62409605D01*
X44270395Y-62589210D01*
X44270395Y-62230000D01*
X43297837Y-61257443D01*
X43255927Y-61272931D01*
X43255927Y-57342520D01*
X43227148Y-56812801D01*
X43079800Y-56457071D01*
X42844188Y-56395417D01*
X42664583Y-56575022D01*
X42664583Y-56215812D01*
X42602929Y-55980200D01*
X42102520Y-55804073D01*
X41572801Y-55832852D01*
X41217071Y-55980200D01*
X41155417Y-56215812D01*
X41910000Y-56970395D01*
X42664583Y-56215812D01*
X42664583Y-56575022D01*
X42089605Y-57150000D01*
X42844188Y-57904583D01*
X43079800Y-57842929D01*
X43255927Y-57342520D01*
X43255927Y-61272931D01*
X43031035Y-61356042D01*
X42804599Y-61965582D01*
X42828659Y-62615377D01*
X43031035Y-63103958D01*
X43297837Y-63202557D01*
X44270395Y-62230000D01*
X44270395Y-62589210D01*
X43477443Y-63382163D01*
X43576042Y-63648965D01*
X44185582Y-63875401D01*
X44835377Y-63851341D01*
X45323958Y-63648965D01*
X45422557Y-63382163D01*
X45422557Y-71050717D01*
X45377073Y-71005154D01*
X44776547Y-70755794D01*
X44126306Y-70755226D01*
X43525345Y-71003538D01*
X43065154Y-71462927D01*
X42815794Y-72063453D01*
X42815226Y-72713694D01*
X43063538Y-73314655D01*
X43522927Y-73774846D01*
X44123453Y-74024206D01*
X44773694Y-74024774D01*
X44811794Y-74009030D01*
X45091382Y-74288618D01*
X45379794Y-74481329D01*
X45379795Y-74481329D01*
X45720000Y-74549000D01*
X47065845Y-74549000D01*
X47424409Y-74908190D01*
X47476391Y-74929775D01*
X47426589Y-74950353D01*
X47065312Y-75311000D01*
X42664583Y-75311000D01*
X42664583Y-58084188D01*
X41910000Y-57329605D01*
X41730395Y-57509210D01*
X41730395Y-57150000D01*
X40975812Y-56395417D01*
X40740200Y-56457071D01*
X40564073Y-56957480D01*
X40592852Y-57487199D01*
X40740200Y-57842929D01*
X40975812Y-57904583D01*
X41730395Y-57150000D01*
X41730395Y-57509210D01*
X41155417Y-58084188D01*
X41217071Y-58319800D01*
X41717480Y-58495927D01*
X42247199Y-58467148D01*
X42602929Y-58319800D01*
X42664583Y-58084188D01*
X42664583Y-75311000D01*
X39738236Y-75311000D01*
X38989000Y-74561764D01*
X38989000Y-73687150D01*
X39344415Y-73449670D01*
X39370000Y-73411379D01*
X39395585Y-73449670D01*
X39881766Y-73774526D01*
X40455255Y-73888600D01*
X40824745Y-73888600D01*
X41398234Y-73774526D01*
X41884415Y-73449670D01*
X42209271Y-72963489D01*
X42323345Y-72390000D01*
X42209271Y-71816511D01*
X41884415Y-71330330D01*
X41569634Y-71120000D01*
X41884415Y-70909670D01*
X42209271Y-70423489D01*
X42323345Y-69850000D01*
X42209271Y-69276511D01*
X41884415Y-68790330D01*
X41569634Y-68580000D01*
X41884415Y-68369670D01*
X42209271Y-67883489D01*
X42323345Y-67310000D01*
X42209271Y-66736511D01*
X41884415Y-66250330D01*
X41569634Y-66040000D01*
X41884415Y-65829670D01*
X42209271Y-65343489D01*
X42323345Y-64770000D01*
X42209271Y-64196511D01*
X41884415Y-63710330D01*
X41569634Y-63500000D01*
X41884415Y-63289670D01*
X42209271Y-62803489D01*
X42323345Y-62230000D01*
X42209271Y-61656511D01*
X41884415Y-61170330D01*
X41398234Y-60845474D01*
X40824745Y-60731400D01*
X40455255Y-60731400D01*
X39881766Y-60845474D01*
X39707358Y-60962009D01*
X39707358Y-53699026D01*
X39707358Y-52980974D01*
X39704709Y-52965209D01*
X39450732Y-52437964D01*
X39038891Y-52070000D01*
X39450732Y-51702036D01*
X39704709Y-51174791D01*
X39707358Y-51159026D01*
X39586217Y-50927000D01*
X38227000Y-50927000D01*
X38227000Y-51999076D01*
X38227000Y-52140924D01*
X38227000Y-53213000D01*
X39586217Y-53213000D01*
X39707358Y-52980974D01*
X39707358Y-53699026D01*
X39586217Y-53467000D01*
X38227000Y-53467000D01*
X38227000Y-54680924D01*
X38461913Y-54825184D01*
X39014320Y-54631954D01*
X39450732Y-54242036D01*
X39704709Y-53714791D01*
X39707358Y-53699026D01*
X39707358Y-60962009D01*
X39395585Y-61170330D01*
X39370000Y-61208620D01*
X39344415Y-61170330D01*
X38989000Y-60932849D01*
X38989000Y-57150000D01*
X38921329Y-56809794D01*
X38728618Y-56521382D01*
X37973000Y-55765764D01*
X37973000Y-54680924D01*
X37973000Y-53467000D01*
X37973000Y-53213000D01*
X37973000Y-52140924D01*
X37973000Y-51999076D01*
X37973000Y-50927000D01*
X36613783Y-50927000D01*
X36492642Y-51159026D01*
X36495291Y-51174791D01*
X36749268Y-51702036D01*
X37161108Y-52070000D01*
X36749268Y-52437964D01*
X36495291Y-52965209D01*
X36492642Y-52980974D01*
X36613783Y-53213000D01*
X37973000Y-53213000D01*
X37973000Y-53467000D01*
X36613783Y-53467000D01*
X36492642Y-53699026D01*
X36495291Y-53714791D01*
X36749268Y-54242036D01*
X37185680Y-54631954D01*
X37738087Y-54825184D01*
X37973000Y-54680924D01*
X37973000Y-55765764D01*
X36449000Y-54241764D01*
X36449000Y-49149000D01*
X36741546Y-49149000D01*
X36855585Y-49319670D01*
X37165069Y-49526460D01*
X36749268Y-49897964D01*
X36495291Y-50425209D01*
X36492642Y-50440974D01*
X36613783Y-50673000D01*
X37973000Y-50673000D01*
X37973000Y-50653000D01*
X38227000Y-50653000D01*
X38227000Y-50673000D01*
X39586217Y-50673000D01*
X39707358Y-50440974D01*
X39704709Y-50425209D01*
X39450732Y-49897964D01*
X39034930Y-49526460D01*
X39344415Y-49319670D01*
X39458453Y-49149000D01*
X40640000Y-49149000D01*
X40980205Y-49081329D01*
X40980206Y-49081329D01*
X41268618Y-48888618D01*
X42278236Y-47879000D01*
X50431764Y-47879000D01*
X51181000Y-48628236D01*
X51181000Y-49398805D01*
X51164599Y-49405582D01*
X51164774Y-49206306D01*
X50916462Y-48605345D01*
X50457073Y-48145154D01*
X49856547Y-47895794D01*
X49206306Y-47895226D01*
X48605345Y-48143538D01*
X48145154Y-48602927D01*
X47895794Y-49203453D01*
X47895226Y-49853694D01*
X48143538Y-50454655D01*
X48602927Y-50914846D01*
X48641000Y-50930655D01*
X48641000Y-51073239D01*
X48533051Y-51181000D01*
X42906760Y-51181000D01*
X42666353Y-50940173D01*
X42176413Y-50736732D01*
X41645914Y-50736269D01*
X41155620Y-50938854D01*
X40780173Y-51313647D01*
X40576732Y-51803587D01*
X40576269Y-52334086D01*
X40778854Y-52824380D01*
X41153647Y-53199827D01*
X41643587Y-53403268D01*
X42174086Y-53403731D01*
X42664380Y-53201146D01*
X42906948Y-52959000D01*
X48533239Y-52959000D01*
X48773647Y-53199827D01*
X49263587Y-53403268D01*
X49794086Y-53403731D01*
X50284380Y-53201146D01*
X50659827Y-52826353D01*
X50863268Y-52336413D01*
X50863644Y-51905075D01*
X51142927Y-52184846D01*
X51181000Y-52200655D01*
X51181000Y-54610000D01*
X51248671Y-54950206D01*
X51441382Y-55238618D01*
X52711382Y-56508618D01*
X52999794Y-56701329D01*
X52999795Y-56701329D01*
X53340000Y-56769000D01*
X54521546Y-56769000D01*
X54635585Y-56939670D01*
X54945069Y-57146460D01*
X54529268Y-57517964D01*
X54275291Y-58045209D01*
X54272642Y-58060974D01*
X54393783Y-58293000D01*
X55753000Y-58293000D01*
X55753000Y-58273000D01*
X56007000Y-58273000D01*
X56007000Y-58293000D01*
X57366217Y-58293000D01*
X57487358Y-58060974D01*
X57484709Y-58045209D01*
X57230732Y-57517964D01*
X56814930Y-57146460D01*
X57124415Y-56939670D01*
X57238453Y-56769000D01*
X62025742Y-56769000D01*
X62103778Y-56885789D01*
X62498829Y-57149753D01*
X62482738Y-57154475D01*
X62048809Y-57504014D01*
X61781673Y-57993004D01*
X61764990Y-58072940D01*
X61887148Y-58293000D01*
X63373000Y-58293000D01*
X63373000Y-58273000D01*
X63627000Y-58273000D01*
X63627000Y-58293000D01*
X65112852Y-58293000D01*
X65235010Y-58072940D01*
X65218327Y-57993004D01*
X64951191Y-57504014D01*
X64517262Y-57154475D01*
X64501170Y-57149753D01*
X64896222Y-56885789D01*
X64974257Y-56769000D01*
X66040000Y-56769000D01*
X66380205Y-56701329D01*
X66380206Y-56701329D01*
X66668618Y-56508618D01*
X67938618Y-55238618D01*
X68131329Y-54950206D01*
X68131329Y-54950205D01*
X68199000Y-54610000D01*
X68199000Y-39370000D01*
X68131329Y-39029794D01*
X67938618Y-38741382D01*
X65398618Y-36201382D01*
X65110206Y-36008671D01*
X64770000Y-35941000D01*
X53708236Y-35941000D01*
X52959000Y-35191764D01*
X52959000Y-29578236D01*
X53708236Y-28829000D01*
X54614066Y-28829000D01*
X54777073Y-28992292D01*
X54631302Y-29052673D01*
X54452673Y-29231301D01*
X54356000Y-29464690D01*
X54356000Y-29717309D01*
X54356000Y-30194250D01*
X54514750Y-30353000D01*
X55753000Y-30353000D01*
X55753000Y-30333000D01*
X56007000Y-30333000D01*
X56007000Y-30353000D01*
X57245250Y-30353000D01*
X57404000Y-30194250D01*
X57404000Y-29717309D01*
X57404000Y-29464690D01*
X57307327Y-29231301D01*
X57128698Y-29052673D01*
X56982988Y-28992318D01*
X57146592Y-28829000D01*
X59708931Y-28829000D01*
X59709537Y-28832123D01*
X59849327Y-29044927D01*
X60060360Y-29187377D01*
X60310000Y-29237440D01*
X60472385Y-29237440D01*
X60296271Y-29310389D01*
X60240590Y-29540984D01*
X60960000Y-30260395D01*
X61679410Y-29540984D01*
X61623729Y-29310389D01*
X61414098Y-29237440D01*
X61610000Y-29237440D01*
X61852123Y-29190463D01*
X62064927Y-29050673D01*
X62207377Y-28839640D01*
X62257440Y-28590000D01*
X62257440Y-27290000D01*
X62210463Y-27047877D01*
X62070673Y-26835073D01*
X61859640Y-26692623D01*
X61610000Y-26642560D01*
X60310000Y-26642560D01*
X60067877Y-26689537D01*
X59855073Y-26829327D01*
X59712623Y-27040360D01*
X59710489Y-27051000D01*
X57145933Y-27051000D01*
X56744404Y-26648769D01*
X56184472Y-26416265D01*
X55578188Y-26415736D01*
X55017851Y-26647262D01*
X54613407Y-27051000D01*
X53340000Y-27051000D01*
X52999794Y-27118671D01*
X52711382Y-27311382D01*
X51441382Y-28581382D01*
X51248671Y-28869794D01*
X51181000Y-29210000D01*
X51181000Y-35560000D01*
X51248671Y-35900206D01*
X51441382Y-36188618D01*
X52711382Y-37458618D01*
X52999794Y-37651329D01*
X52999795Y-37651329D01*
X53340000Y-37719000D01*
X64401764Y-37719000D01*
X66421000Y-39738236D01*
X66421000Y-54241764D01*
X65671764Y-54991000D01*
X64974257Y-54991000D01*
X64896222Y-54874211D01*
X64500801Y-54610000D01*
X64896222Y-54345789D01*
X65204559Y-53884329D01*
X65312833Y-53340000D01*
X65204559Y-52795671D01*
X64896222Y-52334211D01*
X64500801Y-52070000D01*
X64896222Y-51805789D01*
X65204559Y-51344329D01*
X65312833Y-50800000D01*
X65204559Y-50255671D01*
X64896222Y-49794211D01*
X64500801Y-49530000D01*
X64896222Y-49265789D01*
X65204559Y-48804329D01*
X65312833Y-48260000D01*
X65204559Y-47715671D01*
X64896222Y-47254211D01*
X64500801Y-46990000D01*
X64896222Y-46725789D01*
X65204559Y-46264329D01*
X65312833Y-45720000D01*
X65204559Y-45175671D01*
X64896222Y-44714211D01*
X64500801Y-44450000D01*
X64896222Y-44185789D01*
X65204559Y-43724329D01*
X65312833Y-43180000D01*
X65204559Y-42635671D01*
X64896222Y-42174211D01*
X64723986Y-42059126D01*
X64885123Y-42027863D01*
X65097927Y-41888073D01*
X65240377Y-41677040D01*
X65290440Y-41427400D01*
X65290440Y-39852600D01*
X65243463Y-39610477D01*
X65103673Y-39397673D01*
X64892640Y-39255223D01*
X64643000Y-39205160D01*
X62357000Y-39205160D01*
X62114877Y-39252137D01*
X61902073Y-39391927D01*
X61759623Y-39602960D01*
X61729934Y-39751000D01*
X57538511Y-39751000D01*
X57496463Y-39534277D01*
X57356673Y-39321473D01*
X57145640Y-39179023D01*
X56896000Y-39128960D01*
X54864000Y-39128960D01*
X54621877Y-39175937D01*
X54409073Y-39315727D01*
X54266623Y-39526760D01*
X54221653Y-39751000D01*
X53471194Y-39751000D01*
X53456462Y-39715345D01*
X52997073Y-39255154D01*
X52396547Y-39005794D01*
X51746306Y-39005226D01*
X51145345Y-39253538D01*
X50799800Y-39598480D01*
X50457073Y-39255154D01*
X49856547Y-39005794D01*
X49206306Y-39005226D01*
X48605345Y-39253538D01*
X48145154Y-39712927D01*
X48129344Y-39751000D01*
X47986760Y-39751000D01*
X47746353Y-39510173D01*
X47256413Y-39306732D01*
X46725914Y-39306269D01*
X46235620Y-39508854D01*
X45860173Y-39883647D01*
X45656732Y-40373587D01*
X45656269Y-40904086D01*
X45858854Y-41394380D01*
X46233647Y-41769827D01*
X46723587Y-41973268D01*
X47254086Y-41973731D01*
X47744380Y-41771146D01*
X47986948Y-41529000D01*
X48128805Y-41529000D01*
X48143538Y-41564655D01*
X48602927Y-42024846D01*
X49203453Y-42274206D01*
X49853694Y-42274774D01*
X50454655Y-42026462D01*
X50800199Y-41681519D01*
X51142927Y-42024846D01*
X51743453Y-42274206D01*
X52393694Y-42274774D01*
X52994655Y-42026462D01*
X53454846Y-41567073D01*
X53470655Y-41529000D01*
X54221488Y-41529000D01*
X54263537Y-41745723D01*
X54403327Y-41958527D01*
X54614360Y-42100977D01*
X54652962Y-42108718D01*
X54635585Y-42120330D01*
X54521546Y-42291000D01*
X46088236Y-42291000D01*
X45339000Y-41541764D01*
X45339000Y-39370000D01*
X45271329Y-39029795D01*
X45271329Y-39029794D01*
X45078618Y-38741382D01*
X44462440Y-38125204D01*
X44462440Y-34925000D01*
X44462440Y-26035000D01*
X44415463Y-25792877D01*
X44275673Y-25580073D01*
X44064640Y-25437623D01*
X43815000Y-25387560D01*
X34925000Y-25387560D01*
X34682877Y-25434537D01*
X34470073Y-25574327D01*
X34327623Y-25785360D01*
X34277560Y-26035000D01*
X34277560Y-34925000D01*
X34324537Y-35167123D01*
X34464327Y-35379927D01*
X34675360Y-35522377D01*
X34925000Y-35572440D01*
X43815000Y-35572440D01*
X44057123Y-35525463D01*
X44269927Y-35385673D01*
X44412377Y-35174640D01*
X44462440Y-34925000D01*
X44462440Y-38125204D01*
X43808618Y-37471382D01*
X43520206Y-37278671D01*
X43180000Y-37211000D01*
X35560000Y-37211000D01*
X35219794Y-37278671D01*
X34931382Y-37471382D01*
X34738671Y-37759794D01*
X34671000Y-38100000D01*
X34671000Y-45720000D01*
X34738671Y-46060206D01*
X34931382Y-46348618D01*
X35219794Y-46541329D01*
X35560000Y-46609000D01*
X36741546Y-46609000D01*
X36855585Y-46779670D01*
X37170365Y-46990000D01*
X36855585Y-47200330D01*
X36741546Y-47371000D01*
X35560000Y-47371000D01*
X35219794Y-47438671D01*
X34931382Y-47631382D01*
X34738671Y-47919794D01*
X34671000Y-48260000D01*
X34671000Y-54610000D01*
X34738671Y-54950206D01*
X34931382Y-55238618D01*
X37211000Y-57518236D01*
X37211000Y-60932849D01*
X37016000Y-61063144D01*
X37016000Y-57732571D01*
X34354000Y-57732571D01*
X34354000Y-76887429D01*
X37016000Y-76887429D01*
X37016000Y-73556855D01*
X37211000Y-73687150D01*
X37211000Y-74930000D01*
X37278671Y-75270206D01*
X37471382Y-75558618D01*
X38741382Y-76828618D01*
X39029794Y-77021329D01*
X39029795Y-77021329D01*
X39370000Y-77089000D01*
X47065845Y-77089000D01*
X47424409Y-77448190D01*
X47965677Y-77672944D01*
X48551752Y-77673455D01*
X49093411Y-77449647D01*
X49454687Y-77089000D01*
X66040000Y-77089000D01*
X66380205Y-77021329D01*
X66380206Y-77021329D01*
X66668618Y-76828618D01*
X67938618Y-75558618D01*
X68131329Y-75270206D01*
X68131329Y-75270205D01*
X68199000Y-74930000D01*
X68199000Y-62598236D01*
X68948236Y-61849000D01*
X69645742Y-61849000D01*
X69723778Y-61965789D01*
X70119198Y-62230000D01*
X69723778Y-62494211D01*
X69415441Y-62955671D01*
X69307167Y-63500000D01*
X69415441Y-64044329D01*
X69723778Y-64505789D01*
X70119198Y-64770000D01*
X69723778Y-65034211D01*
X69415441Y-65495671D01*
X69307167Y-66040000D01*
X69415441Y-66584329D01*
X69723778Y-67045789D01*
X70119198Y-67310000D01*
X69723778Y-67574211D01*
X69415441Y-68035671D01*
X69307167Y-68580000D01*
X69415441Y-69124329D01*
X69723778Y-69585789D01*
X70119198Y-69850000D01*
X69723778Y-70114211D01*
X69415441Y-70575671D01*
X69307167Y-71120000D01*
X69415441Y-71664329D01*
X69723778Y-72125789D01*
X70119198Y-72390000D01*
X69723778Y-72654211D01*
X69415441Y-73115671D01*
X69307167Y-73660000D01*
X69415441Y-74204329D01*
X69723778Y-74665789D01*
X70185238Y-74974126D01*
X70729567Y-75082400D01*
X71510433Y-75082400D01*
X72054762Y-74974126D01*
X72516222Y-74665789D01*
X72594257Y-74549000D01*
X77381546Y-74549000D01*
X77495585Y-74719670D01*
X77981766Y-75044526D01*
X78555255Y-75158600D01*
X78924745Y-75158600D01*
X79498234Y-75044526D01*
X79984415Y-74719670D01*
X80309271Y-74233489D01*
X80423345Y-73660000D01*
X80423345Y-78309000D01*
X33451000Y-78309000D01*
X33451000Y-24561000D01*
X80849000Y-24561000D01*
X80849000Y-78309000D01*
M02*
