G04 #@! TF.FileFunction,Copper,L1,Top,Signal*
%FSLAX46Y46*%
G04 Gerber Fmt 4.6, Leading zero omitted, Abs format (unit mm)*
G04 Created by KiCad (PCBNEW (2015-04-05 BZR 5577)-product) date 17-04-2015 10:44:10*
%MOMM*%
G01*
G04 APERTURE LIST*
%ADD10C,0.100000*%
%ADD11O,2.032000X1.727200*%
%ADD12R,2.032000X1.727200*%
%ADD13O,2.032000X2.032000*%
%ADD14C,1.300000*%
%ADD15R,1.300000X1.300000*%
%ADD16C,1.397000*%
%ADD17C,1.676400*%
%ADD18O,2.286000X1.574800*%
%ADD19R,2.286000X1.574800*%
%ADD20C,1.998980*%
%ADD21R,8.890000X8.890000*%
%ADD22C,1.778000*%
%ADD23R,1.778000X1.778000*%
%ADD24O,2.499360X1.998980*%
%ADD25R,1.998980X1.998980*%
G04 APERTURE END LIST*
D10*
D11*
X40640000Y-62230000D03*
X40640000Y-64770000D03*
X40640000Y-67310000D03*
X40640000Y-69850000D03*
X40640000Y-72390000D03*
X38100000Y-62230000D03*
X38100000Y-64770000D03*
X38100000Y-67310000D03*
X38100000Y-69850000D03*
X38100000Y-72390000D03*
D12*
X38100000Y-40640000D03*
D11*
X38100000Y-43180000D03*
X38100000Y-45720000D03*
X38100000Y-48260000D03*
X38100000Y-50800000D03*
X38100000Y-53340000D03*
D12*
X55880000Y-40640000D03*
D11*
X55880000Y-43180000D03*
X55880000Y-45720000D03*
X55880000Y-48260000D03*
X55880000Y-50800000D03*
X55880000Y-53340000D03*
X55880000Y-55880000D03*
X55880000Y-58420000D03*
D13*
X78740000Y-27940000D03*
X78740000Y-30480000D03*
D11*
X55880000Y-66040000D03*
X55880000Y-68580000D03*
X55880000Y-71120000D03*
X55880000Y-73660000D03*
X78740000Y-73660000D03*
X78740000Y-71120000D03*
X78740000Y-68580000D03*
X78740000Y-66040000D03*
X78740000Y-63500000D03*
X78740000Y-60960000D03*
X78740000Y-58420000D03*
X78740000Y-55880000D03*
X78740000Y-53340000D03*
X78740000Y-50800000D03*
X78740000Y-48260000D03*
X78740000Y-45720000D03*
X78740000Y-43180000D03*
X78740000Y-40640000D03*
D14*
X68580000Y-30520000D03*
D15*
X68580000Y-33020000D03*
D14*
X60960000Y-30440000D03*
D15*
X60960000Y-27940000D03*
D16*
X52070000Y-68580000D03*
X52070000Y-71120000D03*
X52070000Y-63500000D03*
X52070000Y-60960000D03*
D17*
X48260000Y-76200000D03*
X48260000Y-73660000D03*
D18*
X63500000Y-43180000D03*
X63500000Y-45720000D03*
X63500000Y-48260000D03*
X63500000Y-50800000D03*
X63500000Y-53340000D03*
X63500000Y-55880000D03*
X63500000Y-58420000D03*
X63500000Y-60960000D03*
X63500000Y-63500000D03*
X63500000Y-66040000D03*
X63500000Y-68580000D03*
X63500000Y-71120000D03*
X63500000Y-73660000D03*
D19*
X63500000Y-40640000D03*
D18*
X71120000Y-73660000D03*
X71120000Y-71120000D03*
X71120000Y-68580000D03*
X71120000Y-66040000D03*
X71120000Y-63500000D03*
X71120000Y-60960000D03*
X71120000Y-58420000D03*
X71120000Y-55880000D03*
X71120000Y-53340000D03*
X71120000Y-50800000D03*
X71120000Y-48260000D03*
X71120000Y-45720000D03*
X71120000Y-43180000D03*
X71120000Y-40640000D03*
D20*
X44450000Y-72390000D03*
X44450000Y-62230000D03*
X52070000Y-50800000D03*
X52070000Y-40640000D03*
D16*
X49530000Y-52070000D03*
X49530000Y-57150000D03*
X41910000Y-52070000D03*
X41910000Y-57150000D03*
D21*
X39370000Y-30480000D03*
D22*
X55880000Y-33020000D03*
D23*
X55880000Y-30480000D03*
D22*
X55880000Y-27940000D03*
D24*
X48260000Y-68480940D03*
X48260000Y-63599060D03*
D16*
X46990000Y-40640000D03*
X41910000Y-40640000D03*
D20*
X74930000Y-27940000D03*
D25*
X74930000Y-38100000D03*
D20*
X49530000Y-49530000D03*
X49530000Y-40640000D03*
M02*
